<?xml version="1.0" standalone="no"?>
<!DOCTYPE svg PUBLIC "-//W3C//DTD SVG 1.1//EN" "http://www.w3.org/Graphics/SVG/1.1/DTD/svg11.dtd" >
<svg xmlns="http://www.w3.org/2000/svg" xmlns:xlink="http://www.w3.org/1999/xlink" version="1.1">
<metadata>
Created by FontForge 20201107 at Thu Feb 20 02:49:18 2025
 By 
Copyright 2024 Arillatype.Studio, S.L. All rights reserved.
</metadata>
<defs>
<font id="MistiFont-BoldItalic" horiz-adv-x="1228" >
  <font-face 
    font-family="Misti Font"
    font-weight="700"
    font-style="italic"
    font-stretch="normal"
    units-per-em="2048"
    panose-1="0 0 0 0 0 0 0 0 0 0"
    ascent="1638"
    descent="-410"
    x-height="1022"
    cap-height="1434"
    bbox="-246 -492 2400 1939"
    underline-thickness="102"
    underline-position="-255"
    slope="-8"
    unicode-range="U+000D-FB02"
  />
<missing-glyph horiz-adv-x="1730" 
d="M285 0v1434h1216v-1434h-1216zM514 354l234 353l-234 350v-703zM698 1219l195 -293l194 293h-389zM715 215h356l-178 270zM1040 707l234 -355v707z" />
    <glyph glyph-name="fi" unicode="fi" horiz-adv-x="1308" 
d="M279 1120q25 175 134 277t273 102q121 0 193 -55l-103 -217q-21 14 -69 14q-50 0 -88.5 -38.5t-45.5 -98.5l-12 -82h205l-35 -260h-205l-106 -762h-299l106 762h-176l35 260h178zM807 0l143 1022h297l-141 -1022h-299zM1139 1161q-72 0 -123 51.5t-51 124.5q0 72 51 123
t123 51q73 0 124.5 -51t51.5 -123q0 -73 -51.5 -124.5t-124.5 -51.5z" />
    <glyph glyph-name="fl" unicode="fl" horiz-adv-x="1349" 
d="M279 1120q25 175 134 277t273 102q121 0 193 -55l-103 -217q-21 14 -69 14q-50 0 -88.5 -38.5t-45.5 -98.5l-12 -82h205l-35 -260h-205l-106 -762h-299l106 762h-176l35 260h178zM848 0l207 1475h299l-207 -1475h-299z" />
    <glyph glyph-name="L_periodcentered_L.liga" unicode="L&#xb7;L" horiz-adv-x="2203" 
d="M84 0l201 1434h311l-160 -1139h543l-39 -295h-856zM922 647q-75 0 -120.5 50t-45.5 130q0 92 52 153.5t130 61.5q75 0 120.5 -50t45.5 -130q0 -92 -52 -153.5t-130 -61.5zM1206 0l201 1434h311l-159 -1139h542l-39 -295h-856z" />
    <glyph glyph-name="f_iacute.liga" unicode="f&#xed;" horiz-adv-x="1308" 
d="M279 1120q25 175 134 277t273 102q121 0 193 -55l-103 -217q-21 14 -69 14q-50 0 -88.5 -38.5t-45.5 -98.5l-12 -82h205l-35 -260h-205l-106 -762h-299l106 762h-176l35 260h178zM807 0l143 1022h297l-141 -1022h-299zM950 1147l185 328h354l-248 -328h-291z" />
    <glyph glyph-name="l_periodcentered_l.liga" unicode="l&#xb7;l" horiz-adv-x="1296" 
d="M59 0l207 1475h299l-207 -1475h-299zM688 549q-65 0 -104 47.5t-39 124.5q0 98 48 160.5t120 62.5q64 0 102.5 -45.5t38.5 -122.5q0 -99 -47 -163t-119 -64zM795 0l206 1475h299l-206 -1475h-299z" />
    <glyph glyph-name=".notdef" horiz-adv-x="1730" 
d="M285 0v1434h1216v-1434h-1216zM514 354l234 353l-234 350v-703zM698 1219l195 -293l194 293h-389zM715 215h356l-178 270zM1040 707l234 -355v707z" />
    <glyph glyph-name=".null" horiz-adv-x="0" 
 />
    <glyph glyph-name="nonmarkingreturn" horiz-adv-x="682" 
 />
    <glyph glyph-name="CR" unicode="&#xd;" horiz-adv-x="479" 
 />
    <glyph glyph-name="space" unicode=" " horiz-adv-x="479" 
 />
    <glyph glyph-name="space" unicode="&#xa0;" horiz-adv-x="479" 
 />
    <glyph glyph-name="exclam" unicode="!" horiz-adv-x="610" 
d="M258 -16q-82 0 -140.5 58t-58.5 138q0 83 58.5 141t140.5 58t140.5 -58t58.5 -141q0 -80 -58.5 -138t-140.5 -58zM129 467l137 967h309l-137 -967h-309z" />
    <glyph glyph-name="quotedbl" unicode="&#x22;" horiz-adv-x="1067" 
d="M209 827l67 607h304l-103 -607h-268zM680 827l68 607h303l-103 -607h-268z" />
    <glyph glyph-name="numbersign" unicode="#" horiz-adv-x="1554" 
d="M129 0l109 309h-211v238h292l115 327h-219v238h303l113 322h268l-113 -322h334l113 322h268l-112 -322h198v-238h-282l-115 -327h209v-238h-291l-109 -309h-268l109 309h-334l-109 -309h-268zM588 547h334l114 327h-334z" />
    <glyph glyph-name="dollar" unicode="$" horiz-adv-x="1163" 
d="M379 -164l22 152q-171 34 -266.5 149.5t-95.5 292.5l295 49q-6 -108 55.5 -168.5t179.5 -60.5q101 0 162.5 50.5t61.5 133.5q0 96 -129 123l-164 33q-155 30 -242.5 130.5t-87.5 242.5q0 190 122 323.5t314 163.5l21 147h250l-23 -153q282 -59 326 -354l-293 -84
q-6 85 -57.5 131.5t-137.5 46.5q-97 0 -154 -49t-57 -134q0 -93 121 -118l156 -31q169 -34 256.5 -129t87.5 -244q0 -199 -123.5 -332t-329.5 -163l-20 -148h-250z" />
    <glyph glyph-name="percent" unicode="%" horiz-adv-x="2002" 
d="M326 0l1112 1434h311l-1114 -1434h-309zM520 649q-177 0 -293 115t-116 289q0 175 116 290t293 115q175 0 291.5 -115.5t116.5 -289.5q0 -173 -116.5 -288.5t-291.5 -115.5zM520 866q73 0 121.5 53.5t48.5 133.5q0 83 -48 135.5t-122 52.5t-123 -52.5t-49 -135.5
q0 -80 49.5 -133.5t122.5 -53.5zM1542 -31q-177 0 -293 115t-116 289q0 175 116 290t293 115q174 0 290 -115.5t116 -289.5q0 -173 -116.5 -288.5t-289.5 -115.5zM1542 186q73 0 121.5 53.5t48.5 133.5q0 83 -48 136.5t-122 53.5q-75 0 -123.5 -53.5t-48.5 -136.5
q0 -80 48.5 -133.5t123.5 -53.5z" />
    <glyph glyph-name="ampersand" unicode="&#x26;" horiz-adv-x="1388" 
d="M645 905q83 0 138 55t55 138q0 56 -36 89.5t-97 33.5q-82 0 -138.5 -55.5t-56.5 -135.5q0 -57 36.5 -91t98.5 -34zM526 -25q-206 0 -327 104.5t-121 282.5q0 147 84 268t215 173q-109 98 -109 248q0 170 130.5 288.5t316.5 118.5q166 0 270.5 -93t104.5 -241
q0 -112 -62.5 -208.5t-165.5 -153.5l115 -213l141 244h285l-287 -502l158 -291h-309l-56 100q-71 -59 -171 -92t-212 -33zM365 395q0 -75 49 -120.5t131 -45.5q139 0 246 93l-187 346q-93 -9 -166 -92t-73 -181z" />
    <glyph glyph-name="quotesingle" unicode="'" horiz-adv-x="595" 
d="M209 827l67 607h304l-103 -607h-268z" />
    <glyph glyph-name="parenleft" unicode="(" horiz-adv-x="735" 
d="M373 -428q-104 126 -161.5 324t-57.5 430q0 354 136 704t349 545l219 -164q-183 -164 -303.5 -471t-120.5 -608q0 -194 46.5 -358.5t129.5 -262.5z" />
    <glyph glyph-name="parenright" unicode=")" horiz-adv-x="735" 
d="M-104 -276q181 164 300 471t119 608q0 196 -45.5 359t-128.5 261l240 140q103 -126 160 -324t57 -428q0 -356 -136 -706t-351 -545z" />
    <glyph glyph-name="asterisk" unicode="*" horiz-adv-x="919" 
d="M831 727l-210 141l16 -254h-213l16 252l-211 -139l-106 184l227 113l-227 113l106 184l211 -139l-16 252h213l-16 -254l210 141l107 -184l-227 -113l227 -113z" />
    <glyph glyph-name="plus" unicode="+" 
d="M121 514l37 256h352l47 334h266l-47 -334h348l-37 -256h-348l-49 -356h-266l49 356h-352z" />
    <glyph glyph-name="comma" unicode="," horiz-adv-x="632" 
d="M-12 -190q90 7 174.5 58t128.5 120q-24 -4 -37 -4q-82 0 -134 52.5t-52 135.5q0 90 58 148.5t148 58.5q92 0 145.5 -57.5t53.5 -155.5q0 -196 -140 -345t-329 -157z" />
    <glyph glyph-name="hyphen" unicode="-" horiz-adv-x="856" 
d="M96 463l41 278h647l-41 -278h-647z" />
    <glyph glyph-name="period" unicode="." horiz-adv-x="610" 
d="M258 -16q-82 0 -140.5 58t-58.5 138q0 83 58.5 141t140.5 58t140.5 -58t58.5 -141q0 -80 -58.5 -138t-140.5 -58z" />
    <glyph glyph-name="slash" unicode="/" horiz-adv-x="931" 
d="M-150 -410l924 1885h313l-923 -1885h-314z" />
    <glyph glyph-name="zero" unicode="0" horiz-adv-x="1347" 
d="M614 -25q-252 0 -392 155t-140 435q0 258 90.5 462t252.5 317.5t366 113.5q252 0 392 -154.5t140 -431.5q0 -260 -90 -464.5t-251.5 -318.5t-367.5 -114zM631 283q105 0 190.5 74.5t134 205.5t48.5 293q0 144 -59.5 219.5t-170.5 75.5q-105 0 -190.5 -74t-134 -204.5
t-48.5 -292.5q0 -144 59.5 -220.5t170.5 -76.5z" />
    <glyph glyph-name="one" unicode="1" horiz-adv-x="819" 
d="M283 0l147 1069q-97 -89 -319 -158l30 324q233 79 344 199h308l-201 -1434h-309z" />
    <glyph glyph-name="two" unicode="2" horiz-adv-x="1171" 
d="M0 0l39 285l594 473q112 89 158.5 155t46.5 134q0 54 -36.5 85t-99.5 31q-91 0 -153.5 -54.5t-91.5 -160.5l-301 82q63 201 210 314.5t345 113.5q213 0 331.5 -100.5t118.5 -280.5q0 -151 -79.5 -279t-256.5 -261l-317 -242h563l-41 -295h-1030z" />
    <glyph glyph-name="three" unicode="3" horiz-adv-x="1208" 
d="M553 -25q-241 0 -377.5 119t-134.5 328l307 45q-9 -215 209 -215q110 0 181 62.5t71 158.5q0 133 -195 133h-104l37 258h92q106 0 170.5 55t64.5 144q0 57 -40 88t-115 31q-97 0 -164.5 -51.5t-93.5 -143.5l-283 88q56 180 202 281.5t353 101.5q212 0 335.5 -96
t123.5 -260q0 -138 -71 -234t-195 -127q88 -26 140 -102.5t52 -181.5q0 -215 -156 -348.5t-409 -133.5z" />
    <glyph glyph-name="four" unicode="4" horiz-adv-x="1275" 
d="M88 637q169 171 265.5 363t129.5 434h326q-31 -226 -147 -459.5t-279 -399.5h362l64 447h311l-63 -447h184l-41 -282h-182l-41 -293h-311l41 293h-662z" />
    <glyph glyph-name="five" unicode="5" horiz-adv-x="1179" 
d="M539 -25q-228 0 -365.5 122.5t-134.5 320.5l303 49q0 -215 201 -215q115 0 190.5 79t75.5 191q0 75 -45.5 117.5t-126.5 42.5q-65 0 -121.5 -25.5t-93.5 -66.5l-289 96l193 748h862l-41 -295h-621l-73 -303q47 41 120 64.5t156 23.5q187 0 290 -100t103 -279
q0 -252 -160.5 -411t-422.5 -159z" />
    <glyph glyph-name="six" unicode="6" horiz-adv-x="1218" 
d="M582 -25q-242 0 -373 144t-131 409q0 198 52.5 371t144.5 295.5t220.5 193t276.5 70.5q192 0 312 -87t157 -251l-307 -94q-6 77 -50.5 116.5t-123.5 39.5q-128 0 -222 -110.5t-122 -291.5q50 72 133 111t190 39q186 0 300 -111t114 -293q0 -155 -74 -281.5t-204.5 -198
t-292.5 -71.5zM582 252q107 0 182.5 74t75.5 180q0 77 -51.5 122.5t-139.5 45.5q-109 0 -183.5 -73t-74.5 -179q0 -78 51 -124t140 -46z" />
    <glyph glyph-name="seven" unicode="7" horiz-adv-x="1120" 
d="M258 0q70 316 212 583t386 558h-444l-29 -193h-293l70 486h1059l-37 -291q-228 -259 -372.5 -538t-217.5 -605h-334z" />
    <glyph glyph-name="eight" unicode="8" horiz-adv-x="1253" 
d="M567 -25q-238 0 -373 101.5t-135 279.5q0 150 88.5 255.5t233.5 136.5q-99 23 -155 95t-56 179q0 137 79 237.5t207.5 149.5t286.5 49q225 0 359.5 -97t134.5 -259q0 -133 -76 -232t-223 -131q103 -23 165 -104t62 -195q0 -139 -79.5 -246t-215 -163t-303.5 -56zM582 252
q122 0 197 60t75 149q0 67 -55 105t-152 38q-125 0 -198.5 -58t-73.5 -149q0 -67 55.5 -106t151.5 -39zM666 864q112 0 183 54t71 133q0 60 -51 95.5t-140 35.5q-114 0 -183 -52t-69 -135q0 -60 50 -95.5t139 -35.5z" />
    <glyph glyph-name="nine" unicode="9" horiz-adv-x="1218" 
d="M694 1458q242 0 373 -144t131 -409q0 -198 -52.5 -371t-144.5 -295.5t-220.5 -193t-276.5 -70.5q-192 0 -312 87t-157 251l307 95q6 -77 50.5 -116.5t123.5 -39.5q128 0 222 110t122 291q-50 -72 -133 -110.5t-190 -38.5q-186 0 -300 111t-114 292q0 155 74 281.5
t204.5 198t292.5 71.5zM694 1182q-107 0 -182.5 -74t-75.5 -180q0 -77 51.5 -122.5t139.5 -45.5q109 0 183.5 73t74.5 179q0 78 -51 124t-140 46z" />
    <glyph glyph-name="colon" unicode=":" horiz-adv-x="610" 
d="M258 -16q-82 0 -140.5 58t-58.5 138q0 83 58.5 141t140.5 58t140.5 -58t58.5 -141q0 -80 -58.5 -138t-140.5 -58zM348 616q-81 0 -139.5 58.5t-58.5 138.5q0 83 58 141t140 58t140.5 -58t58.5 -141q0 -80 -59 -138.5t-140 -58.5z" />
    <glyph glyph-name="semicolon" unicode=";" horiz-adv-x="632" 
d="M-12 -190q90 7 174.5 58t128.5 120q-24 -4 -37 -4q-82 0 -134 52.5t-52 135.5q0 90 58 148.5t148 58.5q92 0 145.5 -57.5t53.5 -155.5q0 -196 -140 -345t-329 -157zM354 616q-81 0 -139.5 58.5t-58.5 138.5q0 83 58 141t140 58t140.5 -58t58.5 -141q0 -80 -59 -138.5
t-140 -58.5z" />
    <glyph glyph-name="less" unicode="&#x3c;" 
d="M1149 1208l-41 -293l-713 -274h-2l637 -285l-39 -282l-905 426l37 282z" />
    <glyph glyph-name="equal" unicode="=" 
d="M164 813l37 256h966l-37 -256h-966zM80 215l35 256h966l-34 -256h-967z" />
    <glyph glyph-name="greater" unicode="&#x3e;" 
d="M59 74l41 293l713 274h2l-637 285l39 282l905 -426l-37 -282z" />
    <glyph glyph-name="question" unicode="?" horiz-adv-x="1081" 
d="M395 512q15 86 57 142.5t150 133.5l37 25q152 110 152 236q0 51 -37.5 81.5t-100.5 30.5q-173 0 -243 -196l-295 73q57 195 205 307.5t352 112.5q208 0 327 -93.5t119 -260.5q0 -140 -67 -247.5t-203 -203.5l-35 -26q-105 -79 -111 -129l-4 -31h-311zM520 -16
q-81 0 -139.5 58t-58.5 138q0 83 58 141t140 58t140.5 -58t58.5 -141q0 -80 -58.5 -138t-140.5 -58z" />
    <glyph glyph-name="at" unicode="@" horiz-adv-x="1925" 
d="M877 -434q-248 0 -437 97.5t-292 276t-103 412.5q0 214 81 404t220 326t334 215t414 79q228 0 407.5 -90.5t280 -253t100.5 -368.5q0 -170 -62 -315.5t-168 -230.5t-231 -85q-107 0 -182 52.5t-94 139.5q-41 -90 -116.5 -138t-174.5 -48q-149 0 -238.5 98t-89.5 262
q0 210 120 354t296 144q178 0 232 -149l16 120h227l-67 -487q-18 -133 69 -133q86 0 151.5 121.5t65.5 281.5q0 225 -147 357.5t-397 132.5q-171 0 -319.5 -59t-253 -163t-164.5 -250.5t-60 -316.5q0 -256 158 -404.5t428 -148.5q230 0 407 105l78 -228q-212 -110 -489 -110
zM915 256q94 0 159 76.5t65 189.5q0 72 -39.5 114t-106.5 42q-93 0 -157 -76t-64 -188q0 -72 38.5 -115t104.5 -43z" />
    <glyph glyph-name="A" unicode="A" horiz-adv-x="1343" 
d="M-43 0l657 1434h369l258 -1434h-321l-48 324h-444l-135 -324h-336zM547 606h284l-71 506z" />
    <glyph glyph-name="B" unicode="B" horiz-adv-x="1275" 
d="M84 0l201 1434h528q191 0 301.5 -90.5t110.5 -243.5q0 -127 -77 -229t-190 -130q97 -28 157.5 -108t60.5 -184q0 -195 -146 -322t-366 -127h-580zM631 258q108 0 172.5 54t64.5 149q0 67 -45 105t-133 38h-211l-49 -346h201zM682 864q102 0 164.5 50.5t62.5 138.5
q0 58 -42 90.5t-119 32.5h-189l-43 -312h166z" />
    <glyph glyph-name="C" unicode="C" horiz-adv-x="1316" 
d="M612 -25q-248 0 -389 158t-141 434q0 180 50 341.5t141 283.5t229 194t303 72q248 0 376.5 -152.5t110.5 -410.5h-311q6 124 -41 190t-162 66q-75 0 -138.5 -36t-106.5 -95.5t-73.5 -135.5t-44.5 -155.5t-14 -157.5q0 -288 240 -288q221 0 301 243h315
q-58 -262 -228 -406.5t-417 -144.5z" />
    <glyph glyph-name="D" unicode="D" horiz-adv-x="1349" 
d="M84 0l201 1434h417q288 0 454.5 -160t166.5 -432q0 -128 -29.5 -248t-94 -228.5t-157.5 -189.5t-228 -128.5t-298 -47.5h-432zM543 295q138 0 244.5 75t160 193.5t53.5 257.5q0 151 -84.5 234.5t-240.5 83.5h-121l-119 -844h107z" />
    <glyph glyph-name="E" unicode="E" horiz-adv-x="1159" 
d="M84 0l201 1434h886l-43 -295h-573l-39 -275h545l-41 -282h-545l-39 -287h584l-39 -295h-897z" />
    <glyph glyph-name="F" unicode="F" horiz-adv-x="1087" 
d="M84 0l201 1434h845l-40 -295h-535l-43 -297h504l-39 -283h-504l-78 -559h-311z" />
    <glyph glyph-name="G" unicode="G" horiz-adv-x="1359" 
d="M614 -25q-247 0 -389.5 158.5t-142.5 433.5q0 192 54 357.5t149 282.5t230 184t292 67q217 0 352 -119t148 -323l-324 -64q-6 103 -55.5 151t-149.5 48q-161 0 -268 -165.5t-107 -414.5q0 -288 240 -288q117 0 198.5 66.5t121.5 195.5h-267l39 270h606l-14 -106
q-51 -349 -238.5 -541.5t-474.5 -192.5z" />
    <glyph glyph-name="H" unicode="H" horiz-adv-x="1406" 
d="M868 0l80 575h-473l-80 -575h-311l201 1434h311l-78 -564h473l78 564h309l-200 -1434h-310z" />
    <glyph glyph-name="I" unicode="I" horiz-adv-x="622" 
d="M84 0l201 1434h311l-201 -1434h-311z" />
    <glyph glyph-name="J" unicode="J" horiz-adv-x="1222" 
d="M537 -25q-227 0 -348.5 140.5t-90.5 369.5l8 64h310l-10 -80q-12 -89 27 -137.5t122 -48.5q89 0 145.5 52.5t69.5 149.5l92 654h-356l41 295h667l-137 -965q-31 -223 -178.5 -358.5t-361.5 -135.5z" />
    <glyph glyph-name="K" unicode="K" horiz-adv-x="1284" 
d="M84 0l201 1434h311l-82 -582l496 582h366l-534 -607l334 -827h-334l-221 573l-172 -194l-54 -379h-311z" />
    <glyph glyph-name="L" unicode="L" horiz-adv-x="1081" 
d="M84 0l201 1434h311l-160 -1139h543l-39 -295h-856z" />
    <glyph glyph-name="M" unicode="M" horiz-adv-x="1640" 
d="M84 0l201 1434h442l102 -797l326 797h457l-201 -1434h-309l139 993l-332 -788h-264l-113 788l-137 -993h-311z" />
    <glyph glyph-name="N" unicode="N" horiz-adv-x="1421" 
d="M84 0l201 1434h319l354 -887l125 887h310l-201 -1434h-318l-356 887l-123 -887h-311z" />
    <glyph glyph-name="O" unicode="O" horiz-adv-x="1361" 
d="M612 -25q-247 0 -388.5 158t-141.5 434q0 259 92 462t256.5 316t374.5 113q246 0 389 -159.5t143 -434.5q0 -259 -91.5 -461.5t-257 -315t-376.5 -112.5zM641 283q164 0 269.5 162t105.5 417q0 142 -60.5 215.5t-177.5 73.5q-164 0 -270.5 -163.5t-106.5 -416.5
q0 -288 240 -288z" />
    <glyph glyph-name="P" unicode="P" horiz-adv-x="1220" 
d="M84 0l201 1434h491q212 0 338.5 -110t126.5 -292q0 -232 -157 -379t-420 -147h-199l-70 -506h-311zM504 784h182q105 0 173.5 64.5t68.5 165.5q0 69 -44.5 105t-129.5 36h-199z" />
    <glyph glyph-name="Q" unicode="Q" horiz-adv-x="1361" 
d="M612 -25q-247 0 -388.5 158t-141.5 434q0 259 92 462t256.5 316t374.5 113q246 0 389 -159.5t143 -434.5q0 -258 -91.5 -460.5t-254.5 -313.5l209 -295h-360l-140 187q-51 -7 -88 -7zM641 283q164 0 269.5 162t105.5 417q0 142 -60.5 215.5t-177.5 73.5
q-164 0 -270.5 -163.5t-106.5 -416.5q0 -288 240 -288z" />
    <glyph glyph-name="R" unicode="R" horiz-adv-x="1267" 
d="M84 0l201 1434h516q219 0 345.5 -116t115.5 -304q-7 -161 -100 -277t-249 -168l209 -569h-307l-186 537h-158l-76 -537h-311zM508 807h205q98 0 164.5 55.5t72.5 141.5q6 73 -38.5 112t-133.5 39h-221z" />
    <glyph glyph-name="S" unicode="S" horiz-adv-x="1163" 
d="M539 -25q-232 0 -366 121.5t-134 333.5l295 49q-6 -108 55.5 -168.5t179.5 -60.5q101 0 162.5 50.5t61.5 133.5q0 96 -129 123l-164 33q-155 30 -242.5 130.5t-87.5 242.5q0 215 152.5 355t379.5 140q422 0 478 -368l-293 -84q-6 85 -57.5 131.5t-137.5 46.5
q-97 0 -154 -49t-57 -134q0 -93 121 -118l156 -31q169 -34 256.5 -129t87.5 -244q0 -227 -156 -365.5t-407 -138.5z" />
    <glyph glyph-name="T" unicode="T" horiz-adv-x="1118" 
d="M334 0l160 1139h-373l41 295h1055l-41 -295h-373l-160 -1139h-309z" />
    <glyph glyph-name="U" unicode="U" horiz-adv-x="1388" 
d="M627 -25q-252 0 -384.5 157.5t-97.5 414.5l125 887h310l-127 -906q-17 -117 41 -181t178 -64q112 0 182.5 69t89.5 195l125 887h309l-127 -906q-35 -256 -202.5 -404.5t-421.5 -148.5z" />
    <glyph glyph-name="V" unicode="V" horiz-adv-x="1327" 
d="M412 0l-254 1434h325l152 -1078l452 1078h340l-651 -1434h-364z" />
    <glyph glyph-name="W" unicode="W" horiz-adv-x="1775" 
d="M236 0l-78 1434h301l39 -1065l307 1065h401l35 -1065l315 1065h320l-479 -1434h-398l-47 987l-305 -987h-411z" />
    <glyph glyph-name="X" unicode="X" horiz-adv-x="1284" 
d="M846 0l-213 455l-326 -455h-350l549 729l-330 705h330l209 -449l307 449h350l-530 -721l332 -713h-328z" />
    <glyph glyph-name="Y" unicode="Y" horiz-adv-x="1275" 
d="M412 0l82 584l-336 850h327l195 -572l354 572h342l-573 -850l-82 -584h-309z" />
    <glyph glyph-name="Z" unicode="Z" horiz-adv-x="1138" 
d="M18 0l41 285l684 854h-546l41 295h938l-39 -285l-686 -854h565l-41 -295h-957z" />
    <glyph glyph-name="bracketleft" unicode="[" horiz-adv-x="649" 
d="M27 -410l274 1954h442l-34 -229h-170l-209 -1495h170l-31 -230h-442z" />
    <glyph glyph-name="backslash" unicode="\" horiz-adv-x="925" 
d="M817 -410h-307l-395 1885h307z" />
    <glyph glyph-name="bracketright" unicode="]" horiz-adv-x="649" 
d="M639 1544l-274 -1954h-443l35 230h170l209 1495h-170l31 229h442z" />
    <glyph glyph-name="asciicircum" unicode="^" 
d="M825 786l-114 400l-219 -400h-293l399 648h270l219 -648h-262z" />
    <glyph glyph-name="underscore" unicode="_" horiz-adv-x="729" 
d="M-72 -279l41 279h647l-41 -279h-647z" />
    <glyph glyph-name="grave" unicode="`" horiz-adv-x="790" 
d="M778 1147h-291l-247 328h354z" />
    <glyph glyph-name="a" unicode="a" horiz-adv-x="1116" 
d="M317 -25q-133 0 -213.5 72t-80.5 191q0 178 130 276t361 98q112 0 193 -34l12 84q11 72 -24.5 107.5t-121.5 35.5q-124 0 -190 -109l-231 84q54 118 182.5 192.5t279.5 74.5q216 0 322 -103.5t80 -288.5l-92 -655h-297l14 106q-113 -131 -324 -131zM324 281
q0 -44 32.5 -68.5t92.5 -24.5q88 0 153.5 55t77.5 138l2 8q-70 37 -162 37q-94 0 -145 -38t-51 -107z" />
    <glyph glyph-name="b" unicode="b" horiz-adv-x="1257" 
d="M666 -25q-100 0 -179 41.5t-112 108.5l-17 -125h-299l207 1475h299l-76 -543q46 53 126 84t169 31q194 0 307 -121t113 -324q0 -125 -37.5 -238t-105.5 -200t-170.5 -138t-224.5 -51zM621 250q117 0 200.5 92.5t83.5 220.5q0 95 -56 152t-149 57q-120 0 -203 -91
t-83 -222q0 -97 56 -153t151 -56z" />
    <glyph glyph-name="c" unicode="c" horiz-adv-x="1132" 
d="M532 -25q-215 0 -347 128.5t-132 334.5q0 168 79.5 308t217 220.5t303.5 80.5q185 0 308 -97.5t143 -259.5l-277 -69q-10 73 -58.5 112t-127.5 39q-125 0 -207 -94t-82 -225q0 -92 53 -147.5t142 -55.5q84 0 153 45.5t101 122.5l258 -105q-61 -152 -207 -245t-320 -93z
" />
    <glyph glyph-name="d" unicode="d" horiz-adv-x="1259" 
d="M473 -25q-189 0 -304.5 122.5t-115.5 322.5q0 177 70.5 321t193.5 225t275 81q101 0 183.5 -40t111.5 -102l78 570h299l-207 -1475h-299l14 104q-47 -60 -127 -94.5t-172 -34.5zM559 250q118 0 202.5 92t84.5 221q0 95 -56.5 152t-150.5 57q-118 0 -201.5 -92t-83.5 -221
q0 -96 55.5 -152.5t149.5 -56.5z" />
    <glyph glyph-name="e" unicode="e" horiz-adv-x="1136" 
d="M526 -25q-209 0 -341 128t-132 331q0 128 46.5 242t126 195.5t191.5 128.5t238 47q198 0 315 -116t117 -313q0 -79 -22 -176h-727v-8q0 -103 53 -157t156 -54q129 0 215 99l213 -154q-77 -90 -195.5 -141.5t-253.5 -51.5zM373 623h442q3 84 -43.5 132t-136.5 48
t-158 -47.5t-104 -132.5z" />
    <glyph glyph-name="f" unicode="f" horiz-adv-x="829" 
d="M700 1499q136 0 222.5 -51t119.5 -143l-223 -140q-24 76 -104 76q-55 0 -93.5 -36t-46.5 -95l-14 -88h334l-35 -260h-334l-106 -762h-299l108 762h-178l35 260h178l17 125q25 166 136 259t283 93z" />
    <glyph glyph-name="g" unicode="g" horiz-adv-x="1259" 
d="M444 -434q-165 0 -284 69.5t-160 188.5l262 123q57 -117 209 -117q125 0 204.5 72t98.5 202l8 64q-46 -60 -129.5 -93.5t-187.5 -33.5q-179 0 -292.5 118.5t-113.5 307.5q0 162 70 295.5t192.5 209t270.5 75.5q105 0 185 -43.5t108 -114.5l18 133h297l-133 -934
q-73 -522 -623 -522zM567 307q116 0 199.5 83t83.5 198q0 86 -57 138t-154 52q-118 0 -200.5 -81t-82.5 -197q0 -89 56.5 -141t154.5 -52z" />
    <glyph glyph-name="h" unicode="h" horiz-adv-x="1196" 
d="M59 0l207 1475h299l-80 -568q44 63 121.5 101.5t159.5 38.5q177 0 264.5 -112t59.5 -300l-89 -635h-296l83 600q12 87 -23.5 130.5t-113.5 43.5q-83 0 -142 -55t-71 -141l-80 -578h-299z" />
    <glyph glyph-name="i" unicode="i" horiz-adv-x="561" 
d="M59 0l144 1022h297l-142 -1022h-299zM391 1161q-72 0 -123 51.5t-51 124.5q0 72 51 123t123 51q73 0 124.5 -51t51.5 -123q0 -73 -51.5 -124.5t-124.5 -51.5z" />
    <glyph glyph-name="j" unicode="j" horiz-adv-x="552" 
d="M-31 -434q-132 0 -215 47l82 231q32 -18 76 -18q62 0 94 33.5t41 99.5l150 1063h299l-152 -1081q-28 -185 -122.5 -280t-252.5 -95zM385 1161q-72 0 -123 51.5t-51 124.5q0 72 51 123t123 51q73 0 124.5 -51t51.5 -123q0 -73 -51.5 -124.5t-124.5 -51.5z" />
    <glyph glyph-name="k" unicode="k" horiz-adv-x="1159" 
d="M59 0l207 1475h299l-119 -820l385 367h371l-450 -426l301 -596h-305l-201 401l-150 -141l-39 -260h-299z" />
    <glyph glyph-name="l" unicode="l" horiz-adv-x="561" 
d="M59 0l207 1475h299l-207 -1475h-299z" />
    <glyph glyph-name="m" unicode="m" horiz-adv-x="1839" 
d="M59 0l144 1022h297l-15 -117q43 63 125 102.5t172 39.5q102 0 175 -39t108 -111q141 150 344 150q177 0 264.5 -111.5t61.5 -300.5l-88 -635h-297l84 600q21 174 -138 174q-83 0 -143 -55t-72 -141l-80 -578h-296l83 600q12 86 -23.5 130t-113.5 44q-80 0 -140.5 -55
t-72.5 -141l-80 -578h-299z" />
    <glyph glyph-name="n" unicode="n" horiz-adv-x="1196" 
d="M59 0l144 1022h297l-15 -117q43 64 120 103t161 39q175 0 263.5 -111.5t60.5 -300.5l-89 -635h-296l83 600q12 85 -23.5 129.5t-113.5 44.5q-82 0 -141.5 -55t-71.5 -141l-80 -578h-299z" />
    <glyph glyph-name="o" unicode="o" horiz-adv-x="1196" 
d="M539 -25q-214 0 -349 130.5t-135 336.5q0 167 79.5 306t218.5 219t306 80q214 0 348 -131t134 -338q0 -125 -46.5 -236.5t-126.5 -192t-192 -127.5t-237 -47zM559 250q117 0 201 92t84 221q0 95 -55.5 152t-149.5 57q-120 0 -203.5 -91t-83.5 -222q0 -97 56 -153t151 -56
z" />
    <glyph glyph-name="p" unicode="p" horiz-adv-x="1257" 
d="M2 -410l201 1432h297l-13 -102q47 58 127.5 92.5t169.5 34.5q194 0 307 -121t113 -324q0 -170 -65 -312t-189.5 -228.5t-283.5 -86.5q-101 0 -182.5 40.5t-112.5 103.5l-70 -529h-299zM621 250q117 0 201.5 92.5t84.5 220.5q0 95 -56.5 152t-150.5 57q-120 0 -203 -91
t-83 -222q0 -97 56 -153t151 -56z" />
    <glyph glyph-name="q" unicode="q" horiz-adv-x="1257" 
d="M997 -410h-297l68 500q-46 -53 -126 -84t-169 -31q-194 0 -307 121t-113 324q0 167 63.5 308.5t188.5 230t287 88.5q101 0 180.5 -42.5t112.5 -109.5l16 127h297zM557 250q121 0 204 93.5t83 219.5q0 95 -56.5 152t-150.5 57q-122 0 -203.5 -93t-81.5 -220q0 -97 55 -153
t150 -56z" />
    <glyph glyph-name="r" unicode="r" horiz-adv-x="1019" 
d="M59 0l144 1022h297l-23 -143q38 79 106.5 123.5t161.5 44.5q134 0 205 -98.5t68 -250.5l-277 -59q3 96 -18.5 138t-89.5 42q-76 0 -128 -64t-67 -177l-80 -578h-299z" />
    <glyph glyph-name="s" unicode="s" horiz-adv-x="937" 
d="M434 -25q-181 0 -298.5 89.5t-112.5 224.5l256 39q2 -65 42 -99t115 -34q64 0 101.5 27.5t37.5 74.5q0 34 -20 53t-70 29l-114 22q-127 26 -197 100t-70 183q0 164 114.5 263.5t303.5 99.5q166 0 273 -86t106 -218l-252 -38q0 122 -135 122q-58 0 -94.5 -30.5
t-36.5 -77.5q0 -59 82 -76l115 -22q140 -28 208 -95.5t68 -179.5q0 -171 -114 -271t-308 -100z" />
    <glyph glyph-name="t" unicode="t" horiz-adv-x="997" 
d="M502 -25q-172 0 -264.5 102t-67.5 269l59 416h-178l35 260h178l41 291h297l-41 -291h334l-35 -260h-334l-59 -416q-15 -113 92 -113q96 0 141 132l232 -54q-35 -166 -143.5 -251t-286.5 -85z" />
    <glyph glyph-name="u" unicode="u" horiz-adv-x="1196" 
d="M1137 1022l-144 -1022h-297l15 117q-43 -64 -120 -103t-161 -39q-175 0 -263.5 111.5t-60.5 300.5l89 635h297l-84 -600q-12 -85 23.5 -129.5t113.5 -44.5q82 0 141.5 55t71.5 141l80 578h299z" />
    <glyph glyph-name="v" unicode="v" horiz-adv-x="1163" 
d="M352 0l-262 1022h320l135 -698l334 698h340l-549 -1022h-318z" />
    <glyph glyph-name="w" unicode="w" horiz-adv-x="1591" 
d="M197 0l-107 1022h311l35 -700l262 700h332l64 -700l233 700h318l-396 -1022h-364l-62 696l-260 -696h-366z" />
    <glyph glyph-name="x" unicode="x" horiz-adv-x="1118" 
d="M700 0l-170 299l-237 -299h-336l442 526l-282 496h315l164 -287l221 287h338l-430 -510l293 -512h-318z" />
    <glyph glyph-name="y" unicode="y" horiz-adv-x="1159" 
d="M137 -434q-151 0 -215 51l72 229q41 -20 106 -20q77 0 125 33.5t105 113.5l41 62l-281 987h322l147 -672l318 672h335l-618 -1131q-95 -173 -202.5 -249t-254.5 -76z" />
    <glyph glyph-name="z" unicode="z" horiz-adv-x="956" 
d="M0 0l31 246l516 516h-428l35 260h802l-32 -246l-512 -516h438l-37 -260h-813z" />
    <glyph glyph-name="braceleft" unicode="{" horiz-adv-x="751" 
d="M553 -410q-205 0 -298 100t-67 292l41 301q12 94 -26.5 125.5t-163.5 31.5l35 254q120 0 171.5 38.5t65.5 135.5l43 301q28 191 140 283t317 92h39l-33 -229h-22q-69 0 -115.5 -43.5t-56.5 -118.5l-41 -301q-31 -221 -240 -291q90 -32 131.5 -110t24.5 -185l-43 -301
q-9 -75 18 -110t96 -35h39l-33 -230h-22z" />
    <glyph glyph-name="bar" unicode="|" horiz-adv-x="612" 
d="M47 -410l264 1885h258l-264 -1885h-258z" />
    <glyph glyph-name="braceright" unicode="}" horiz-adv-x="751" 
d="M215 1544q205 0 298 -99.5t67 -291.5l-41 -301q-12 -94 26.5 -126t163.5 -32l-35 -254q-120 0 -171.5 -38.5t-65.5 -135.5l-43 -301q-28 -191 -140 -283t-317 -92h-39l33 230h22q69 0 115.5 43.5t56.5 118.5l41 301q30 220 240 290q-90 32 -131.5 110t-24.5 185l43 301
q9 75 -18 110.5t-96 35.5h-39l33 229h22z" />
    <glyph glyph-name="asciitilde" unicode="~" 
d="M139 506q0 146 67 225.5t189 79.5q66 0 138.5 -22.5t134.5 -45t100 -22.5q83 0 98 90l240 -29q0 -151 -69.5 -234t-196.5 -83q-67 0 -140.5 23t-134.5 46t-98 23q-86 0 -98 -92z" />
    <glyph glyph-name="exclamdown" unicode="&#xa1;" horiz-adv-x="610" 
d="M369 1155q81 0 139.5 -58.5t58.5 -138.5q0 -83 -58 -140.5t-140 -57.5t-140.5 57.5t-58.5 140.5q0 80 59 138.5t140 58.5zM498 672l-138 -967h-309l137 967h310z" />
    <glyph glyph-name="cent" unicode="&#xa2;" horiz-adv-x="1132" 
d="M369 -164l22 156q-156 40 -247 158.5t-91 287.5q0 224 137 391t349 207l20 150h246l-23 -154q134 -31 219.5 -121t102.5 -221l-277 -69q-10 73 -58.5 112t-127.5 39q-125 0 -207 -94t-82 -225q0 -92 53 -147.5t142 -55.5q84 0 153 45.5t101 122.5l258 -105
q-52 -128 -166 -215t-258 -114l-21 -148h-245z" />
    <glyph glyph-name="sterling" unicode="&#xa3;" horiz-adv-x="1193" 
d="M39 260q133 48 198 113.5t66 156.5h-219l31 232h125q-41 102 -41 192q0 106 43 199.5t117.5 160.5t179.5 105.5t225 38.5q205 0 332.5 -106.5t134.5 -286.5l-297 -80q-3 199 -178 199q-114 0 -177 -66.5t-63 -183.5q0 -62 31 -172h352l-33 -232h-270v-8q0 -163 -115 -254
h637l-37 -268h-1071z" />
    <glyph glyph-name="yen" unicode="&#xa5;" horiz-adv-x="1275" 
d="M412 0l22 166h-332l27 188h332l12 88h-332l27 189h307l-317 803h327l195 -572l354 572h342l-540 -803h325l-26 -189h-353l-12 -88h352l-26 -188h-353l-22 -166h-309z" />
    <glyph glyph-name="section" unicode="&#xa7;" horiz-adv-x="1132" 
d="M575 -274q-177 0 -292 85t-146 236l262 68q30 -150 187 -150q71 0 111 30.5t40 84.5q0 43 -38.5 69t-133.5 48l-123 24q-319 70 -319 318q0 98 48.5 171t133.5 107q-184 88 -184 281q0 160 120.5 260t315.5 100q175 0 291 -85t145 -236l-260 -66q-30 148 -186 148
q-72 0 -112 -29.5t-40 -83.5q0 -44 38 -70.5t132 -46.5l123 -26q324 -68 324 -318q0 -97 -48.5 -169.5t-134.5 -108.5q183 -88 183 -281q0 -160 -121.5 -260t-315.5 -100zM557 442q73 -19 128.5 29.5t55.5 130.5q0 52 -31 83t-100 48l-35 10q-74 19 -129 -29.5t-55 -131.5
q0 -53 30.5 -83.5t100.5 -47.5z" />
    <glyph glyph-name="dieresis" unicode="&#xa8;" horiz-adv-x="1103" 
d="M395 1161q-72 0 -123 51.5t-51 124.5q0 72 51 123t123 51q73 0 124.5 -51t51.5 -123q0 -73 -51.5 -124.5t-124.5 -51.5zM940 1161q-72 0 -123 51.5t-51 124.5q0 72 51 123t123 51q73 0 124.5 -51t51.5 -123q0 -73 -51 -124.5t-125 -51.5z" />
    <glyph glyph-name="copyright" unicode="&#xa9;" horiz-adv-x="1656" 
d="M858 -25q-155 0 -296 58.5t-243 158t-162.5 237t-60.5 288.5t60.5 288.5t162.5 236.5t243 157.5t296 58.5q154 0 294.5 -58.5t242.5 -157.5t162.5 -236.5t60.5 -288.5t-60.5 -288.5t-162.5 -237t-242.5 -158t-294.5 -58.5zM858 150q154 0 284.5 76t206.5 206.5t76 284.5
t-76 284.5t-206.5 206.5t-284.5 76q-155 0 -286 -76t-207 -206.5t-76 -284.5t76 -284.5t207 -206.5t286 -76zM864 270q-190 0 -313 126t-123 321q0 196 122.5 322t313.5 126q147 0 255 -82.5t145 -224.5l-240 -70q-17 62 -59.5 97t-100.5 35q-79 0 -130.5 -57.5
t-51.5 -145.5q0 -89 51 -146t131 -57q58 0 103.5 34.5t62.5 92.5l240 -72q-40 -134 -152 -216.5t-254 -82.5z" />
    <glyph glyph-name="ordfeminine" unicode="&#xaa;" horiz-adv-x="888" 
d="M344 608q-114 0 -181 58.5t-67 156.5q0 138 100 214.5t281 76.5h164l6 47q15 105 -100 105q-62 0 -107.5 -35.5t-60.5 -95.5l-205 63q29 115 134 187.5t243 72.5q172 0 261 -85.5t69 -231.5l-74 -514h-236l11 69q-82 -88 -238 -88zM330 848q0 -34 23 -53t65 -19
q74 0 131.5 47.5t66.5 114.5l5 27h-123q-77 0 -122.5 -31.5t-45.5 -85.5z" />
    <glyph glyph-name="guillemotleft" unicode="&#xab;" horiz-adv-x="1296" 
d="M328 102l-252 420l362 420h344l-383 -436l236 -404h-307zM860 102l-252 420l363 420h344l-383 -436l235 -404h-307z" />
    <glyph glyph-name="uni00AD" unicode="&#xad;" horiz-adv-x="856" 
d="M96 463l41 278h647l-41 -278h-647z" />
    <glyph glyph-name="registered" unicode="&#xae;" horiz-adv-x="1093" 
d="M612 506q-198 0 -336.5 139t-138.5 338q0 198 138.5 336.5t336.5 138.5q199 0 338.5 -138.5t139.5 -336.5q0 -199 -139 -338t-339 -139zM612 631q117 0 205 63h-131l-98 211h-37v-211h-141q85 -63 202 -63zM262 983q0 -88 37.5 -162.5t103.5 -122.5v568
q-66 -48 -103.5 -122.5t-37.5 -160.5zM418 1276h219q89 0 147 -51t58 -133q0 -59 -31 -103.5t-84 -66.5l109 -215q61 50 95 121.5t34 154.5q0 148 -102 249t-251 101q-109 0 -194 -57zM551 1020h67q34 0 55 18.5t21 53.5q0 34 -21 51.5t-55 17.5h-67v-141z" />
    <glyph glyph-name="macron" unicode="&#xaf;" horiz-adv-x="913" 
d="M199 1188l39 270h708l-39 -270h-708z" />
    <glyph glyph-name="degree" unicode="&#xb0;" horiz-adv-x="997" 
d="M571 608q-175 0 -299.5 124.5t-124.5 301.5q0 175 124.5 299.5t299.5 124.5q177 0 301.5 -124.5t124.5 -299.5q0 -177 -124.5 -301.5t-301.5 -124.5zM571 844q80 0 135.5 55.5t55.5 134.5q0 78 -56 133.5t-135 55.5q-78 0 -133 -55.5t-55 -133.5q0 -79 55 -134.5
t133 -55.5z" />
    <glyph glyph-name="acute" unicode="&#xb4;" horiz-adv-x="696" 
d="M190 1147l185 328h354l-248 -328h-291z" />
    <glyph glyph-name="uni00B5" unicode="&#xb5;" horiz-adv-x="1196" 
d="M-6 -410l199 1432h296l-81 -600q-12 -84 23 -129t112 -45q83 0 143 55t72 141l80 578h297l-144 -1022h-297l17 117q-43 -63 -120.5 -102.5t-160.5 -39.5q-42 0 -88 17l-55 -402h-293z" />
    <glyph glyph-name="paragraph" unicode="&#xb6;" horiz-adv-x="1486" 
d="M496 -410v1205h-23q-167 0 -265.5 88t-98.5 231q0 145 104 232.5t293 87.5h260v-1844h-270zM932 -410v1844h270v-1844h-270z" />
    <glyph glyph-name="periodcentered" unicode="&#xb7;" horiz-adv-x="610" 
d="M322 434q-81 0 -140 58.5t-59 138.5q0 83 58.5 140.5t140.5 57.5t140 -57.5t58 -140.5q0 -80 -58.5 -138.5t-139.5 -58.5z" />
    <glyph glyph-name="cedilla" unicode="&#xb8;" horiz-adv-x="634" 
d="M186 -410q-123 0 -209 41l46 160q61 -33 120 -33q62 0 62 39q0 23 -23 32t-76 9l-61 72l66 131h174l-56 -98q199 -30 199 -172q0 -87 -63.5 -134t-178.5 -47z" />
    <glyph glyph-name="ordmasculine" unicode="&#xba;" horiz-adv-x="954" 
d="M506 608q-170 0 -278.5 104.5t-108.5 270.5q0 97 37.5 184.5t101.5 151.5t151.5 101.5t184.5 37.5q170 0 277.5 -104.5t107.5 -270.5q0 -97 -37.5 -185t-100.5 -151.5t-150.5 -101t-184.5 -37.5zM510 825q101 0 169.5 73.5t68.5 182.5q0 72 -43 116t-113 44
q-101 0 -170.5 -74.5t-69.5 -181.5q0 -72 43.5 -116t114.5 -44z" />
    <glyph glyph-name="guillemotright" unicode="&#xbb;" horiz-adv-x="1294" 
d="M971 942l252 -420l-363 -420h-344l383 437l-235 403h307zM438 942l252 -420l-362 -420h-344l383 437l-236 403h307z" />
    <glyph glyph-name="questiondown" unicode="&#xbf;" horiz-adv-x="1038" 
d="M702 627q-15 -87 -56.5 -144t-149.5 -133l-37 -24q-152 -110 -152 -236q0 -51 37 -82t100 -31q174 0 244 197l295 -74q-57 -195 -205 -307t-352 -112q-208 0 -327 93.5t-119 260.5q0 140 67 247t203 203l35 27q104 78 110 129l4 31h312zM578 1155q81 0 139.5 -58.5
t58.5 -138.5q0 -83 -58 -140.5t-140 -57.5t-140.5 57.5t-58.5 140.5q0 80 59 138.5t140 58.5z" />
    <glyph glyph-name="Agrave" unicode="&#xc0;" horiz-adv-x="1343" 
d="M-43 0l657 1434h369l258 -1434h-321l-48 324h-444l-135 -324h-336zM1014 1516h-318l-258 303h381zM547 606h284l-71 506z" />
    <glyph glyph-name="Aacute" unicode="&#xc1;" horiz-adv-x="1343" 
d="M-43 0l657 1434h369l258 -1434h-321l-48 324h-444l-135 -324h-336zM649 1516l195 303h381l-258 -303h-318zM547 606h284l-71 506z" />
    <glyph glyph-name="Acircumflex" unicode="&#xc2;" horiz-adv-x="1343" 
d="M-43 0l657 1434h369l258 -1434h-321l-48 324h-444l-135 -324h-336zM948 1516l-100 192l-154 -192h-307l256 303h416l170 -303h-281zM547 606h284l-71 506z" />
    <glyph glyph-name="Atilde" unicode="&#xc3;" horiz-adv-x="1392" 
d="M-43 0l657 1434h369l258 -1434h-321l-48 324h-444l-135 -324h-336zM459 1556q0 146 59 226t166 80q57 0 119.5 -22.5t115 -45t85.5 -22.5q60 0 69 90l242 -29q0 -151 -63 -234t-177 -83q-56 0 -118.5 23t-115.5 46t-85 23q-61 0 -70 -92zM547 606h284l-71 506z" />
    <glyph glyph-name="Adieresis" unicode="&#xc4;" horiz-adv-x="1343" 
d="M-43 0l657 1434h369l258 -1434h-321l-48 324h-444l-135 -324h-336zM547 1499q-72 0 -123 51t-51 123q0 73 51 124.5t123 51.5q73 0 124.5 -51.5t51.5 -124.5q0 -72 -51.5 -123t-124.5 -51zM1092 1499q-72 0 -123 51t-51 123q0 73 51 124.5t123 51.5q74 0 125 -51.5
t51 -124.5q0 -72 -51.5 -123t-124.5 -51zM547 606h284l-71 506z" />
    <glyph glyph-name="Aring" unicode="&#xc5;" horiz-adv-x="1343" 
d="M-43 0l657 1434h369l258 -1434h-321l-48 324h-444l-135 -324h-336zM825 1458q-118 0 -193 67.5t-75 172.5q0 106 75 173.5t193 67.5q117 0 192 -67.5t75 -173.5q0 -104 -75 -172t-192 -68zM825 1622q32 0 53 21t21 55t-21 56t-53 22t-53.5 -22t-21.5 -56t21 -55t54 -21z
M547 606h284l-71 506z" />
    <glyph glyph-name="AE" unicode="&#xc6;" horiz-adv-x="1978" 
d="M932 0l45 324h-430l-217 -324h-373l1006 1434h1028l-43 -295h-545l-39 -275h516l-41 -282h-516l-39 -287h555l-39 -295h-868zM737 606h279l74 524z" />
    <glyph glyph-name="Ccedilla" unicode="&#xc7;" horiz-adv-x="1316" 
d="M618 -410q-122 0 -208 41l45 160q61 -33 120 -33q62 0 62 39q0 23 -22.5 32t-75.5 9l-62 72l37 74q-204 31 -318 184t-114 399q0 180 50 341.5t141 283.5t229 194t303 72q248 0 376.5 -152.5t110.5 -410.5h-311q6 124 -41 190t-162 66q-75 0 -138.5 -36t-106.5 -95.5
t-73.5 -135.5t-44.5 -155.5t-14 -157.5q0 -288 240 -288q221 0 301 243h315q-54 -243 -204.5 -385t-370.5 -161l-20 -37q198 -30 198 -172q0 -87 -63.5 -134t-178.5 -47z" />
    <glyph glyph-name="Egrave" unicode="&#xc8;" horiz-adv-x="1159" 
d="M84 0l201 1434h886l-43 -295h-573l-39 -275h545l-41 -282h-545l-39 -287h584l-39 -295h-897zM958 1516h-317l-258 303h381z" />
    <glyph glyph-name="Eacute" unicode="&#xc9;" horiz-adv-x="1159" 
d="M84 0l201 1434h886l-43 -295h-573l-39 -275h545l-41 -282h-545l-39 -287h584l-39 -295h-897zM594 1516l194 303h381l-258 -303h-317z" />
    <glyph glyph-name="Ecircumflex" unicode="&#xca;" horiz-adv-x="1159" 
d="M84 0l201 1434h886l-43 -295h-573l-39 -275h545l-41 -282h-545l-39 -287h584l-39 -295h-897zM893 1516l-100 192l-154 -192h-307l256 303h416l170 -303h-281z" />
    <glyph glyph-name="Edieresis" unicode="&#xcb;" horiz-adv-x="1159" 
d="M84 0l201 1434h886l-43 -295h-573l-39 -275h545l-41 -282h-545l-39 -287h584l-39 -295h-897zM492 1499q-72 0 -123.5 51t-51.5 123q0 73 51.5 124.5t123.5 51.5q74 0 125 -51.5t51 -124.5q0 -72 -51.5 -123t-124.5 -51zM1036 1499q-72 0 -123 51t-51 123q0 73 51 124.5
t123 51.5q74 0 125 -51.5t51 -124.5q0 -72 -51.5 -123t-124.5 -51z" />
    <glyph glyph-name="Igrave" unicode="&#xcc;" horiz-adv-x="622" 
d="M84 0l201 1434h311l-201 -1434h-311zM655 1516h-317l-258 303h381z" />
    <glyph glyph-name="Iacute" unicode="&#xcd;" horiz-adv-x="622" 
d="M84 0l201 1434h311l-201 -1434h-311zM291 1516l194 303h381l-258 -303h-317z" />
    <glyph glyph-name="Icircumflex" unicode="&#xce;" horiz-adv-x="622" 
d="M84 0l201 1434h311l-201 -1434h-311zM590 1516l-101 192l-153 -192h-307l256 303h415l170 -303h-280z" />
    <glyph glyph-name="Idieresis" unicode="&#xcf;" horiz-adv-x="622" 
d="M84 0l201 1434h311l-201 -1434h-311zM188 1499q-72 0 -123 51t-51 123q0 73 51 124.5t123 51.5q74 0 125.5 -51.5t51.5 -124.5q0 -72 -52 -123t-125 -51zM733 1499q-72 0 -123 51t-51 123q0 73 51 124.5t123 51.5q73 0 124.5 -51.5t51.5 -124.5q0 -72 -51.5 -123
t-124.5 -51z" />
    <glyph glyph-name="Eth" unicode="&#xd0;" horiz-adv-x="1349" 
d="M84 0l82 582h-166l39 272h164l82 580h417q288 0 454.5 -160t166.5 -432q0 -128 -29.5 -248t-94 -228.5t-157.5 -189.5t-228 -128.5t-298 -47.5h-432zM543 295q138 0 244.5 75t160 193.5t53.5 257.5q0 151 -84.5 234.5t-240.5 83.5h-121l-41 -285h332l-39 -272h-330
l-41 -287h107z" />
    <glyph glyph-name="Ntilde" unicode="&#xd1;" horiz-adv-x="1454" 
d="M84 0l201 1434h319l354 -887l125 887h310l-201 -1434h-318l-356 887l-123 -887h-311zM492 1556q0 146 59 226t166 80q57 0 119 -22.5t114.5 -45t85.5 -22.5q61 0 70 90l242 -29q0 -151 -63 -234t-177 -83q-56 0 -119 23t-116 46t-85 23q-60 0 -69 -92z" />
    <glyph glyph-name="Ograve" unicode="&#xd2;" horiz-adv-x="1361" 
d="M612 -25q-247 0 -388.5 158t-141.5 434q0 259 92 462t256.5 316t374.5 113q246 0 389 -159.5t143 -434.5q0 -259 -91.5 -461.5t-257 -315t-376.5 -112.5zM641 283q164 0 269.5 162t105.5 417q0 142 -60.5 215.5t-177.5 73.5q-164 0 -270.5 -163.5t-106.5 -416.5
q0 -288 240 -288zM1024 1516h-317l-258 303h380z" />
    <glyph glyph-name="Oacute" unicode="&#xd3;" horiz-adv-x="1361" 
d="M612 -25q-247 0 -388.5 158t-141.5 434q0 259 92 462t256.5 316t374.5 113q246 0 389 -159.5t143 -434.5q0 -259 -91.5 -461.5t-257 -315t-376.5 -112.5zM641 283q164 0 269.5 162t105.5 417q0 142 -60.5 215.5t-177.5 73.5q-164 0 -270.5 -163.5t-106.5 -416.5
q0 -288 240 -288zM659 1516l195 303h381l-258 -303h-318z" />
    <glyph glyph-name="Ocircumflex" unicode="&#xd4;" horiz-adv-x="1361" 
d="M612 -25q-247 0 -388.5 158t-141.5 434q0 259 92 462t256.5 316t374.5 113q246 0 389 -159.5t143 -434.5q0 -259 -91.5 -461.5t-257 -315t-376.5 -112.5zM641 283q164 0 269.5 162t105.5 417q0 142 -60.5 215.5t-177.5 73.5q-164 0 -270.5 -163.5t-106.5 -416.5
q0 -288 240 -288zM961 1516l-101 192l-153 -192h-308l256 303h416l170 -303h-280z" />
    <glyph glyph-name="Otilde" unicode="&#xd5;" horiz-adv-x="1449" 
d="M612 -25q-247 0 -388.5 158t-141.5 434q0 259 92 462t256.5 316t374.5 113q246 0 389 -159.5t143 -434.5q0 -259 -91.5 -461.5t-257 -315t-376.5 -112.5zM641 283q164 0 269.5 162t105.5 417q0 142 -60.5 215.5t-177.5 73.5q-164 0 -270.5 -163.5t-106.5 -416.5
q0 -288 240 -288zM489 1556q0 146 59.5 226t166.5 80q57 0 119 -22.5t114.5 -45t85.5 -22.5q61 0 70 90l242 -29q0 -151 -63 -234t-177 -83q-56 0 -119 23t-116 46t-85 23q-60 0 -69 -92z" />
    <glyph glyph-name="Odieresis" unicode="&#xd6;" horiz-adv-x="1361" 
d="M612 -25q-247 0 -388.5 158t-141.5 434q0 259 92 462t256.5 316t374.5 113q246 0 389 -159.5t143 -434.5q0 -259 -91.5 -461.5t-257 -315t-376.5 -112.5zM641 283q164 0 269.5 162t105.5 417q0 142 -60.5 215.5t-177.5 73.5q-164 0 -270.5 -163.5t-106.5 -416.5
q0 -288 240 -288zM559 1499q-72 0 -123 51t-51 123q0 73 51 124.5t123 51.5q73 0 124.5 -51.5t51.5 -124.5q0 -72 -51.5 -123t-124.5 -51zM1104 1499q-72 0 -123 51t-51 123q0 73 51 124.5t123 51.5q74 0 125 -51.5t51 -124.5q0 -72 -51.5 -123t-124.5 -51z" />
    <glyph glyph-name="multiply" unicode="&#xd7;" 
d="M279 160l-175 180l336 301l-250 289l203 182l250 -291l311 279l172 -182l-319 -285l248 -287l-201 -180l-248 287z" />
    <glyph glyph-name="Oslash" unicode="&#xd8;" horiz-adv-x="1361" 
d="M612 -25q-202 0 -333 107l-78 -82h-340l270 285q-49 122 -49 282q0 259 92 462t256.5 316t374.5 113q205 0 336 -110l82 86h340l-275 -289q49 -119 49 -281q0 -259 -91.5 -461.5t-257 -315t-376.5 -112.5zM641 283q164 0 268.5 160.5t106.5 414.5l-514 -541
q55 -34 139 -34zM401 569l517 543q-53 39 -140 39q-164 0 -270.5 -163.5t-106.5 -416.5v-2z" />
    <glyph glyph-name="Ugrave" unicode="&#xd9;" horiz-adv-x="1388" 
d="M627 -25q-252 0 -384.5 157.5t-97.5 414.5l125 887h310l-127 -906q-17 -117 41 -181t178 -64q112 0 182.5 69t89.5 195l125 887h309l-127 -906q-35 -256 -202.5 -404.5t-421.5 -148.5zM1038 1516h-317l-258 303h381z" />
    <glyph glyph-name="Uacute" unicode="&#xda;" horiz-adv-x="1388" 
d="M627 -25q-252 0 -384.5 157.5t-97.5 414.5l125 887h310l-127 -906q-17 -117 41 -181t178 -64q112 0 182.5 69t89.5 195l125 887h309l-127 -906q-35 -256 -202.5 -404.5t-421.5 -148.5zM674 1516l194 303h381l-258 -303h-317z" />
    <glyph glyph-name="Ucircumflex" unicode="&#xdb;" horiz-adv-x="1388" 
d="M627 -25q-252 0 -384.5 157.5t-97.5 414.5l125 887h310l-127 -906q-17 -117 41 -181t178 -64q112 0 182.5 69t89.5 195l125 887h309l-127 -906q-35 -256 -202.5 -404.5t-421.5 -148.5zM973 1516l-101 192l-153 -192h-307l256 303h415l170 -303h-280z" />
    <glyph glyph-name="Udieresis" unicode="&#xdc;" horiz-adv-x="1388" 
d="M627 -25q-252 0 -384.5 157.5t-97.5 414.5l125 887h310l-127 -906q-17 -117 41 -181t178 -64q112 0 182.5 69t89.5 195l125 887h309l-127 -906q-35 -256 -202.5 -404.5t-421.5 -148.5zM571 1499q-72 0 -123 51t-51 123q0 73 51 124.5t123 51.5q74 0 125.5 -51.5
t51.5 -124.5q0 -72 -52 -123t-125 -51zM1116 1499q-72 0 -123 51t-51 123q0 73 51 124.5t123 51.5q74 0 125 -51.5t51 -124.5q0 -72 -51.5 -123t-124.5 -51z" />
    <glyph glyph-name="Yacute" unicode="&#xdd;" horiz-adv-x="1275" 
d="M412 0l82 584l-336 850h327l195 -572l354 572h342l-573 -850l-82 -584h-309zM616 1516l195 303h381l-258 -303h-318z" />
    <glyph glyph-name="Thorn" unicode="&#xde;" horiz-adv-x="1241" 
d="M84 0l201 1434h311l-31 -222h201q212 0 337.5 -109.5t125.5 -295.5q0 -233 -160 -377.5t-418 -144.5h-217l-39 -285h-311zM676 563q108 0 175 63t67 165q0 68 -46 105.5t-129 37.5h-219l-51 -371h203z" />
    <glyph glyph-name="germandbls" unicode="&#xdf;" horiz-adv-x="1245" 
d="M662 -25q-67 0 -129.5 13.5t-98.5 36.5l76 249q46 -28 117 -28q109 0 171 59.5t62 165.5q0 69 -50.5 102t-154.5 33h-82l35 252h72q110 0 179 59t69 154q0 65 -44.5 99t-129.5 34q-110 0 -176.5 -60.5t-83.5 -174.5l-136 -969h-297l138 989q32 232 179.5 359t383.5 127
q212 0 339.5 -99.5t127.5 -265.5q0 -142 -73.5 -242t-199.5 -129q89 -30 142 -109t53 -190q0 -214 -131.5 -339.5t-357.5 -125.5z" />
    <glyph glyph-name="agrave" unicode="&#xe0;" horiz-adv-x="1116" 
d="M317 -25q-133 0 -213.5 72t-80.5 191q0 178 130 276t361 98q112 0 193 -34l12 84q11 72 -24.5 107.5t-121.5 35.5q-124 0 -190 -109l-231 84q54 118 182.5 192.5t279.5 74.5q216 0 322 -103.5t80 -288.5l-92 -655h-297l14 106q-113 -131 -324 -131zM782 1147h-290
l-248 328h354zM324 281q0 -44 32.5 -68.5t92.5 -24.5q88 0 153.5 55t77.5 138l2 8q-70 37 -162 37q-94 0 -145 -38t-51 -107z" />
    <glyph glyph-name="aacute" unicode="&#xe1;" horiz-adv-x="1116" 
d="M317 -25q-133 0 -213.5 72t-80.5 191q0 178 130 276t361 98q112 0 193 -34l12 84q11 72 -24.5 107.5t-121.5 35.5q-124 0 -190 -109l-231 84q54 118 182.5 192.5t279.5 74.5q216 0 322 -103.5t80 -288.5l-92 -655h-297l14 106q-113 -131 -324 -131zM483 1147l185 328h354
l-248 -328h-291zM324 281q0 -44 32.5 -68.5t92.5 -24.5q88 0 153.5 55t77.5 138l2 8q-70 37 -162 37q-94 0 -145 -38t-51 -107z" />
    <glyph glyph-name="acircumflex" unicode="&#xe2;" horiz-adv-x="1155" 
d="M317 -25q-133 0 -213.5 72t-80.5 191q0 178 130 276t361 98q112 0 193 -34l12 84q11 72 -24.5 107.5t-121.5 35.5q-124 0 -190 -109l-231 84q54 118 182.5 192.5t279.5 74.5q216 0 322 -103.5t80 -288.5l-92 -655h-297l14 106q-113 -131 -324 -131zM825 1147l-98 209
l-156 -209h-309l268 328h402l174 -328h-281zM324 281q0 -44 32.5 -68.5t92.5 -24.5q88 0 153.5 55t77.5 138l2 8q-70 37 -162 37q-94 0 -145 -38t-51 -107z" />
    <glyph glyph-name="atilde" unicode="&#xe3;" horiz-adv-x="1155" 
d="M317 -25q-133 0 -213.5 72t-80.5 191q0 178 130 276t361 98q112 0 193 -34l12 84q11 72 -24.5 107.5t-121.5 35.5q-124 0 -190 -109l-231 84q54 118 182.5 192.5t279.5 74.5q216 0 322 -103.5t80 -288.5l-92 -655h-297l14 106q-113 -131 -324 -131zM283 1192
q0 146 59 225.5t166 79.5q57 0 119 -22.5t114.5 -45t85.5 -22.5q61 0 70 90l242 -29q0 -151 -63 -234t-177 -83q-56 0 -118.5 23t-115.5 46t-85 23q-61 0 -70 -92zM324 281q0 -44 32.5 -68.5t92.5 -24.5q88 0 153.5 55t77.5 138l2 8q-70 37 -162 37q-94 0 -145 -38t-51 -107
z" />
    <glyph glyph-name="adieresis" unicode="&#xe4;" horiz-adv-x="1155" 
d="M317 -25q-133 0 -213.5 72t-80.5 191q0 178 130 276t361 98q112 0 193 -34l12 84q11 72 -24.5 107.5t-121.5 35.5q-124 0 -190 -109l-231 84q54 118 182.5 192.5t279.5 74.5q216 0 322 -103.5t80 -288.5l-92 -655h-297l14 106q-113 -131 -324 -131zM408 1161
q-72 0 -123.5 51.5t-51.5 124.5q0 72 51.5 123t123.5 51q73 0 124.5 -51t51.5 -123q0 -73 -51 -124.5t-125 -51.5zM952 1161q-72 0 -123 51.5t-51 124.5q0 72 51 123t123 51q73 0 124.5 -51t51.5 -123q0 -73 -51 -124.5t-125 -51.5zM324 281q0 -44 32.5 -68.5t92.5 -24.5
q88 0 153.5 55t77.5 138l2 8q-70 37 -162 37q-94 0 -145 -38t-51 -107z" />
    <glyph glyph-name="aring" unicode="&#xe5;" horiz-adv-x="1155" 
d="M317 -25q-133 0 -213.5 72t-80.5 191q0 178 130 276t361 98q112 0 193 -34l12 84q11 72 -24.5 107.5t-121.5 35.5q-124 0 -190 -109l-231 84q54 118 182.5 192.5t279.5 74.5q216 0 322 -103.5t80 -288.5l-92 -655h-297l14 106q-113 -131 -324 -131zM717 1122
q-118 0 -193 67.5t-75 172.5q0 106 75 174t193 68q117 0 191.5 -68t74.5 -174q0 -105 -74.5 -172.5t-191.5 -67.5zM717 1286q32 0 53 21t21 55t-21 56t-53 22t-54 -22t-22 -56q0 -33 21.5 -54.5t54.5 -21.5zM324 281q0 -44 32.5 -68.5t92.5 -24.5q88 0 153.5 55t77.5 138
l2 8q-70 37 -162 37q-94 0 -145 -38t-51 -107z" />
    <glyph glyph-name="ae" unicode="&#xe6;" horiz-adv-x="1794" 
d="M379 -25q-166 0 -259 75.5t-93 209.5q0 166 128 259t355 93h205l8 58q10 66 -22.5 100.5t-104.5 34.5q-75 0 -133 -45t-78 -117l-258 74q38 146 171 238t306 92q225 0 338 -119q158 119 352 119q206 0 323.5 -115.5t117.5 -317.5q0 -79 -23 -176h-715v-12q0 -91 53 -142
t148 -51q80 0 149.5 43.5t100.5 112.5l256 -92q-60 -145 -203.5 -233.5t-318.5 -88.5q-118 0 -214.5 42t-160.5 118q-97 -88 -195.5 -124t-232.5 -36zM326 281q0 -45 29.5 -69t86.5 -24q91 0 160.5 58t81.5 143l4 37h-158q-95 0 -149.5 -38.5t-54.5 -106.5zM1036 618h414
q4 82 -38 126t-124 44q-83 0 -149 -45.5t-103 -124.5z" />
    <glyph glyph-name="ccedilla" unicode="&#xe7;" horiz-adv-x="1132" 
d="M516 -410q-123 0 -209 41l45 160q61 -33 121 -33q62 0 62 39q0 23 -23 32t-76 9l-61 72l39 78q-165 34 -263 155t-98 295q0 168 79.5 308t217 220.5t303.5 80.5q185 0 308 -97.5t143 -259.5l-277 -69q-10 73 -58.5 112t-127.5 39q-125 0 -207 -94t-82 -225
q0 -92 53 -147.5t142 -55.5q84 0 153 45.5t101 122.5l258 -105q-57 -141 -188.5 -232.5t-292.5 -103.5l-19 -34q199 -30 199 -172q0 -87 -63.5 -134t-178.5 -47z" />
    <glyph glyph-name="egrave" unicode="&#xe8;" horiz-adv-x="1136" 
d="M526 -25q-209 0 -341 128t-132 331q0 128 46.5 242t126 195.5t191.5 128.5t238 47q198 0 315 -116t117 -313q0 -79 -22 -176h-727v-8q0 -103 53 -157t156 -54q129 0 215 99l213 -154q-77 -90 -195.5 -141.5t-253.5 -51.5zM795 1147h-291l-248 328h354zM373 623h442
q3 84 -43.5 132t-136.5 48t-158 -47.5t-104 -132.5z" />
    <glyph glyph-name="eacute" unicode="&#xe9;" horiz-adv-x="1136" 
d="M526 -25q-209 0 -341 128t-132 331q0 128 46.5 242t126 195.5t191.5 128.5t238 47q198 0 315 -116t117 -313q0 -79 -22 -176h-727v-8q0 -103 53 -157t156 -54q129 0 215 99l213 -154q-77 -90 -195.5 -141.5t-253.5 -51.5zM496 1147l184 328h354l-248 -328h-290zM373 623
h442q3 84 -43.5 132t-136.5 48t-158 -47.5t-104 -132.5z" />
    <glyph glyph-name="ecircumflex" unicode="&#xea;" horiz-adv-x="1136" 
d="M526 -25q-209 0 -341 128t-132 331q0 128 46.5 242t126 195.5t191.5 128.5t238 47q198 0 315 -116t117 -313q0 -79 -22 -176h-727v-8q0 -103 53 -157t156 -54q129 0 215 99l213 -154q-77 -90 -195.5 -141.5t-253.5 -51.5zM801 1147l-99 209l-155 -209h-309l268 328h401
l174 -328h-280zM373 623h442q3 84 -43.5 132t-136.5 48t-158 -47.5t-104 -132.5z" />
    <glyph glyph-name="edieresis" unicode="&#xeb;" horiz-adv-x="1136" 
d="M526 -25q-209 0 -341 128t-132 331q0 128 46.5 242t126 195.5t191.5 128.5t238 47q198 0 315 -116t117 -313q0 -79 -22 -176h-727v-8q0 -103 53 -157t156 -54q129 0 215 99l213 -154q-77 -90 -195.5 -141.5t-253.5 -51.5zM401 1161q-72 0 -123 51.5t-51 124.5
q0 72 51 123t123 51q73 0 125 -51t52 -123q0 -73 -51.5 -124.5t-125.5 -51.5zM946 1161q-72 0 -123 51.5t-51 124.5q0 72 51 123t123 51q73 0 124.5 -51t51.5 -123q0 -73 -51 -124.5t-125 -51.5zM373 623h442q3 84 -43.5 132t-136.5 48t-158 -47.5t-104 -132.5z" />
    <glyph glyph-name="igrave" unicode="&#xec;" horiz-adv-x="561" 
d="M59 0l144 1022h297l-142 -1022h-299zM502 1147h-291l-248 328h354z" />
    <glyph glyph-name="iacute" unicode="&#xed;" horiz-adv-x="561" 
d="M59 0l144 1022h297l-142 -1022h-299zM203 1147l184 328h354l-247 -328h-291z" />
    <glyph glyph-name="icircumflex" unicode="&#xee;" horiz-adv-x="505" 
d="M59 0l144 1022h297l-142 -1022h-299zM455 1147l-72 192l-125 -192h-297l240 328h377l145 -328h-268z" />
    <glyph glyph-name="idieresis" unicode="&#xef;" horiz-adv-x="505" 
d="M59 0l144 1022h297l-142 -1022h-299zM201 1161q-72 0 -123 51.5t-51 124.5q0 72 51 123t123 51q73 0 124.5 -51t51.5 -123q0 -73 -51.5 -124.5t-124.5 -51.5zM635 1161q-72 0 -123 51.5t-51 124.5q0 72 51 123t123 51q73 0 124.5 -51t51.5 -123q0 -73 -51.5 -124.5
t-124.5 -51.5z" />
    <glyph glyph-name="eth" unicode="&#xf0;" horiz-adv-x="1214" 
d="M522 -25q-213 0 -344 117t-131 307q0 223 143.5 371t358.5 148q101 0 188.5 -37.5t128.5 -98.5q35 185 -88 308l-473 -168l25 188l258 92q-112 33 -232 33l19 240q343 0 555 -152l350 125l-25 -188l-192 -68q119 -162 119 -393q0 -242 -83 -429.5t-233.5 -291
t-343.5 -103.5zM551 252q107 0 182.5 74t75.5 180q0 77 -51.5 122.5t-139.5 45.5q-107 0 -181.5 -73t-74.5 -179q0 -78 50.5 -124t138.5 -46z" />
    <glyph glyph-name="ntilde" unicode="&#xf1;" horiz-adv-x="1196" 
d="M59 0l144 1022h297l-15 -117q43 64 120 103t161 39q175 0 263.5 -111.5t60.5 -300.5l-89 -635h-296l83 600q12 85 -23.5 129.5t-113.5 44.5q-82 0 -141.5 -55t-71.5 -141l-80 -578h-299zM242 1192q0 146 59 225.5t166 79.5q57 0 119 -22.5t114.5 -45t85.5 -22.5
q61 0 70 90l242 -29q0 -151 -63 -234t-177 -83q-56 0 -118.5 23t-115.5 46t-85 23q-61 0 -70 -92z" />
    <glyph glyph-name="ograve" unicode="&#xf2;" horiz-adv-x="1196" 
d="M539 -25q-214 0 -349 130.5t-135 336.5q0 167 79.5 306t218.5 219t306 80q214 0 348 -131t134 -338q0 -125 -46.5 -236.5t-126.5 -192t-192 -127.5t-237 -47zM559 250q117 0 201 92t84 221q0 95 -55.5 152t-149.5 57q-120 0 -203.5 -91t-83.5 -222q0 -97 56 -153t151 -56
zM821 1147h-291l-247 328h354z" />
    <glyph glyph-name="oacute" unicode="&#xf3;" horiz-adv-x="1196" 
d="M539 -25q-214 0 -349 130.5t-135 336.5q0 167 79.5 306t218.5 219t306 80q214 0 348 -131t134 -338q0 -125 -46.5 -236.5t-126.5 -192t-192 -127.5t-237 -47zM559 250q117 0 201 92t84 221q0 95 -55.5 152t-149.5 57q-120 0 -203.5 -91t-83.5 -222q0 -97 56 -153t151 -56
zM522 1147l185 328h354l-248 -328h-291z" />
    <glyph glyph-name="ocircumflex" unicode="&#xf4;" horiz-adv-x="1196" 
d="M539 -25q-214 0 -349 130.5t-135 336.5q0 167 79.5 306t218.5 219t306 80q214 0 348 -131t134 -338q0 -125 -46.5 -236.5t-126.5 -192t-192 -127.5t-237 -47zM559 250q117 0 201 92t84 221q0 95 -55.5 152t-149.5 57q-120 0 -203.5 -91t-83.5 -222q0 -97 56 -153t151 -56
zM825 1147l-98 209l-156 -209h-309l268 328h402l174 -328h-281z" />
    <glyph glyph-name="otilde" unicode="&#xf5;" horiz-adv-x="1196" 
d="M539 -25q-214 0 -349 130.5t-135 336.5q0 167 79.5 306t218.5 219t306 80q214 0 348 -131t134 -338q0 -125 -46.5 -236.5t-126.5 -192t-192 -127.5t-237 -47zM559 250q117 0 201 92t84 221q0 95 -55.5 152t-149.5 57q-120 0 -203.5 -91t-83.5 -222q0 -97 56 -153t151 -56
zM289 1192q0 146 59 225.5t166 79.5q57 0 119.5 -22.5t115 -45t85.5 -22.5q60 0 69 90l242 -29q0 -151 -63 -234t-177 -83q-56 0 -118.5 23t-115.5 46t-85 23q-61 0 -70 -92z" />
    <glyph glyph-name="odieresis" unicode="&#xf6;" horiz-adv-x="1196" 
d="M539 -25q-214 0 -349 130.5t-135 336.5q0 167 79.5 306t218.5 219t306 80q214 0 348 -131t134 -338q0 -125 -46.5 -236.5t-126.5 -192t-192 -127.5t-237 -47zM559 250q117 0 201 92t84 221q0 95 -55.5 152t-149.5 57q-120 0 -203.5 -91t-83.5 -222q0 -97 56 -153t151 -56
zM414 1161q-72 0 -123 51.5t-51 124.5q0 72 51 123t123 51q73 0 124.5 -51t51.5 -123q0 -73 -51 -124.5t-125 -51.5zM958 1161q-72 0 -123 51.5t-51 124.5q0 72 51 123t123 51q73 0 125 -51t52 -123q0 -73 -51.5 -124.5t-125.5 -51.5z" />
    <glyph glyph-name="divide" unicode="&#xf7;" 
d="M121 514l37 256h966l-37 -256h-966zM553 37q-69 0 -115.5 47t-46.5 115q0 73 53.5 126.5t124.5 53.5q70 0 117 -47t47 -115q0 -73 -54.5 -126.5t-125.5 -53.5zM676 905q-69 0 -115.5 46.5t-46.5 115.5q0 72 53.5 125t124.5 53q69 0 115.5 -46.5t46.5 -115.5
q0 -72 -53.5 -125t-124.5 -53z" />
    <glyph glyph-name="oslash" unicode="&#xf8;" horiz-adv-x="1196" 
d="M539 -25q-142 0 -256 62l-35 -37h-244l143 154q-92 122 -92 288q0 167 79.5 306t218.5 219t306 80q144 0 256 -64l37 39h244l-145 -156q90 -123 90 -288q0 -125 -46.5 -236.5t-126.5 -192t-192 -127.5t-237 -47zM559 250q117 0 201 92t84 221q0 30 -8 70l-349 -373
q38 -10 72 -10zM352 459q0 -36 10 -74l349 377q-38 10 -72 10q-120 0 -203.5 -91t-83.5 -222z" />
    <glyph glyph-name="ugrave" unicode="&#xf9;" horiz-adv-x="1196" 
d="M1137 1022l-144 -1022h-297l15 117q-43 -64 -120 -103t-161 -39q-175 0 -263.5 111.5t-60.5 300.5l89 635h297l-84 -600q-12 -85 23.5 -129.5t113.5 -44.5q82 0 141.5 55t71.5 141l80 578h299zM819 1147h-291l-247 328h354z" />
    <glyph glyph-name="uacute" unicode="&#xfa;" horiz-adv-x="1196" 
d="M1137 1022l-144 -1022h-297l15 117q-43 -64 -120 -103t-161 -39q-175 0 -263.5 111.5t-60.5 300.5l89 635h297l-84 -600q-12 -85 23.5 -129.5t113.5 -44.5q82 0 141.5 55t71.5 141l80 578h299zM520 1147l185 328h354l-248 -328h-291z" />
    <glyph glyph-name="ucircumflex" unicode="&#xfb;" horiz-adv-x="1196" 
d="M1137 1022l-144 -1022h-297l15 117q-43 -64 -120 -103t-161 -39q-175 0 -263.5 111.5t-60.5 300.5l89 635h297l-84 -600q-12 -85 23.5 -129.5t113.5 -44.5q82 0 141.5 55t71.5 141l80 578h299zM825 1147l-98 209l-156 -209h-309l268 328h402l174 -328h-281z" />
    <glyph glyph-name="udieresis" unicode="&#xfc;" horiz-adv-x="1196" 
d="M1137 1022l-144 -1022h-297l15 117q-43 -64 -120 -103t-161 -39q-175 0 -263.5 111.5t-60.5 300.5l89 635h297l-84 -600q-12 -85 23.5 -129.5t113.5 -44.5q82 0 141.5 55t71.5 141l80 578h299zM426 1161q-72 0 -123 51.5t-51 124.5q0 72 51 123t123 51q73 0 124.5 -51
t51.5 -123q0 -73 -51 -124.5t-125 -51.5zM971 1161q-72 0 -123 51.5t-51 124.5q0 72 51 123t123 51q73 0 124.5 -51t51.5 -123q0 -73 -51.5 -124.5t-124.5 -51.5z" />
    <glyph glyph-name="yacute" unicode="&#xfd;" horiz-adv-x="1159" 
d="M137 -434q-151 0 -215 51l72 229q41 -20 106 -20q77 0 125 33.5t105 113.5l41 62l-281 987h322l147 -672l318 672h335l-618 -1131q-95 -173 -202.5 -249t-254.5 -76zM502 1147l184 328h354l-247 -328h-291z" />
    <glyph glyph-name="thorn" unicode="&#xfe;" horiz-adv-x="1257" 
d="M2 -410l264 1885h299l-76 -553q47 58 126 91.5t169 33.5q195 0 307.5 -120.5t112.5 -324.5q0 -124 -37 -236.5t-104.5 -200t-170.5 -139t-226 -51.5q-102 0 -183.5 40.5t-111.5 103.5l-70 -529h-299zM621 250q119 0 202.5 93.5t83.5 219.5q0 95 -56.5 152t-150.5 57
q-122 0 -204 -93t-82 -220q0 -97 55 -153t152 -56z" />
    <glyph glyph-name="ydieresis" unicode="&#xff;" horiz-adv-x="1159" 
d="M137 -434q-151 0 -215 51l72 229q41 -20 106 -20q77 0 125 33.5t105 113.5l41 62l-281 987h322l147 -672l318 672h335l-618 -1131q-95 -173 -202.5 -249t-254.5 -76zM406 1161q-72 0 -123.5 51.5t-51.5 124.5q0 72 51.5 123t123.5 51q73 0 124.5 -51t51.5 -123
q0 -73 -51 -124.5t-125 -51.5zM950 1161q-72 0 -123 51.5t-51 124.5q0 72 51 123t123 51q73 0 124.5 -51t51.5 -123q0 -73 -51 -124.5t-125 -51.5z" />
    <glyph glyph-name="Amacron" unicode="&#x100;" horiz-adv-x="1343" 
d="M-43 0l657 1434h369l258 -1434h-321l-48 324h-444l-135 -324h-336zM457 1548l39 271h708l-39 -271h-708zM547 606h284l-71 506z" />
    <glyph glyph-name="amacron" unicode="&#x101;" horiz-adv-x="1155" 
d="M317 -25q-133 0 -213.5 72t-80.5 191q0 178 130 276t361 98q112 0 193 -34l12 84q11 72 -24.5 107.5t-121.5 35.5q-124 0 -190 -109l-231 84q54 118 182.5 192.5t279.5 74.5q216 0 322 -103.5t80 -288.5l-92 -655h-297l14 106q-113 -131 -324 -131zM340 1188l39 270h708
l-38 -270h-709zM324 281q0 -44 32.5 -68.5t92.5 -24.5q88 0 153.5 55t77.5 138l2 8q-70 37 -162 37q-94 0 -145 -38t-51 -107z" />
    <glyph glyph-name="Abreve" unicode="&#x102;" horiz-adv-x="1343" 
d="M-43 0l657 1434h369l258 -1434h-321l-48 324h-444l-135 -324h-336zM823 1516q-166 0 -260 85.5t-74 217.5h244q-12 -131 109 -131q56 0 91 33.5t44 97.5h244q-12 -136 -121.5 -219.5t-276.5 -83.5zM547 606h284l-71 506z" />
    <glyph glyph-name="abreve" unicode="&#x103;" horiz-adv-x="1155" 
d="M317 -25q-133 0 -213.5 72t-80.5 191q0 178 130 276t361 98q112 0 193 -34l12 84q11 72 -24.5 107.5t-121.5 35.5q-124 0 -190 -109l-231 84q54 118 182.5 192.5t279.5 74.5q216 0 322 -103.5t80 -288.5l-92 -655h-297l14 106q-113 -131 -324 -131zM705 1147
q-166 0 -258 93t-72 235h237q-17 -144 105 -144q58 0 94 39t45 105h238q-20 -152 -126 -240t-263 -88zM324 281q0 -44 32.5 -68.5t92.5 -24.5q88 0 153.5 55t77.5 138l2 8q-70 37 -162 37q-94 0 -145 -38t-51 -107z" />
    <glyph glyph-name="Aogonek" unicode="&#x104;" horiz-adv-x="1343" 
d="M-43 0l657 1434h369l258 -1434q-84 -29 -133 -73.5t-49 -90.5q0 -65 86 -65q52 0 96 20l45 -160q-86 -41 -209 -41q-117 0 -185.5 51t-68.5 144q0 66 38.5 122t109.5 93h-51l-48 324h-444l-135 -324h-336zM547 606h284l-71 506z" />
    <glyph glyph-name="aogonek" unicode="&#x105;" horiz-adv-x="1155" 
d="M317 -25q-133 0 -213.5 72t-80.5 191q0 178 130 276t361 98q112 0 193 -34l12 84q11 72 -24.5 107.5t-121.5 35.5q-124 0 -190 -109l-231 84q54 118 182.5 192.5t279.5 74.5q216 0 322 -103.5t80 -288.5l-88 -622l63 -33q-84 -29 -133 -73.5t-49 -90.5q0 -65 86 -65
q52 0 96 20l45 -160q-86 -41 -209 -41q-117 0 -185.5 51t-68.5 144q0 66 38.5 122t109.5 93h-94l14 106q-113 -131 -324 -131zM324 281q0 -44 32.5 -68.5t92.5 -24.5q88 0 153.5 55t77.5 138l2 8q-70 37 -162 37q-94 0 -145 -38t-51 -107z" />
    <glyph glyph-name="Cacute" unicode="&#x106;" horiz-adv-x="1316" 
d="M612 -25q-248 0 -389 158t-141 434q0 180 50 341.5t141 283.5t229 194t303 72q248 0 376.5 -152.5t110.5 -410.5h-311q6 124 -41 190t-162 66q-75 0 -138.5 -36t-106.5 -95.5t-73.5 -135.5t-44.5 -155.5t-14 -157.5q0 -288 240 -288q221 0 301 243h315
q-58 -262 -228 -406.5t-417 -144.5zM659 1516l195 303h381l-258 -303h-318z" />
    <glyph glyph-name="cacute" unicode="&#x107;" horiz-adv-x="1132" 
d="M532 -25q-215 0 -347 128.5t-132 334.5q0 168 79.5 308t217 220.5t303.5 80.5q185 0 308 -97.5t143 -259.5l-277 -69q-10 73 -58.5 112t-127.5 39q-125 0 -207 -94t-82 -225q0 -92 53 -147.5t142 -55.5q84 0 153 45.5t101 122.5l258 -105q-61 -152 -207 -245t-320 -93z
M489 1147l185 328h354l-248 -328h-291z" />
    <glyph glyph-name="Ccircumflex" unicode="&#x108;" horiz-adv-x="1316" 
d="M612 -25q-248 0 -389 158t-141 434q0 180 50 341.5t141 283.5t229 194t303 72q248 0 376.5 -152.5t110.5 -410.5h-311q6 124 -41 190t-162 66q-75 0 -138.5 -36t-106.5 -95.5t-73.5 -135.5t-44.5 -155.5t-14 -157.5q0 -288 240 -288q221 0 301 243h315
q-58 -262 -228 -406.5t-417 -144.5zM961 1516l-101 192l-153 -192h-308l256 303h416l170 -303h-280z" />
    <glyph glyph-name="ccircumflex" unicode="&#x109;" horiz-adv-x="1132" 
d="M532 -25q-215 0 -347 128.5t-132 334.5q0 168 79.5 308t217 220.5t303.5 80.5q185 0 308 -97.5t143 -259.5l-277 -69q-10 73 -58.5 112t-127.5 39q-125 0 -207 -94t-82 -225q0 -92 53 -147.5t142 -55.5q84 0 153 45.5t101 122.5l258 -105q-61 -152 -207 -245t-320 -93z
M793 1147l-99 209l-155 -209h-310l269 328h401l174 -328h-280z" />
    <glyph glyph-name="Cdotaccent" unicode="&#x10a;" horiz-adv-x="1316" 
d="M612 -25q-248 0 -389 158t-141 434q0 180 50 341.5t141 283.5t229 194t303 72q248 0 376.5 -152.5t110.5 -410.5h-311q6 124 -41 190t-162 66q-75 0 -138.5 -36t-106.5 -95.5t-73.5 -135.5t-44.5 -155.5t-14 -157.5q0 -288 240 -288q221 0 301 243h315
q-58 -262 -228 -406.5t-417 -144.5zM813 1499q-72 0 -123 51.5t-51 124.5q0 72 51 123t123 51q73 0 124.5 -51t51.5 -123q0 -73 -51.5 -124.5t-124.5 -51.5z" />
    <glyph glyph-name="cdotaccent" unicode="&#x10b;" horiz-adv-x="1132" 
d="M532 -25q-215 0 -347 128.5t-132 334.5q0 168 79.5 308t217 220.5t303.5 80.5q185 0 308 -97.5t143 -259.5l-277 -69q-10 73 -58.5 112t-127.5 39q-125 0 -207 -94t-82 -225q0 -92 53 -147.5t142 -55.5q84 0 153 45.5t101 122.5l258 -105q-61 -152 -207 -245t-320 -93z
M682 1161q-72 0 -123 51.5t-51 124.5q0 72 51 123t123 51q73 0 124.5 -51t51.5 -123q0 -73 -51 -124.5t-125 -51.5z" />
    <glyph glyph-name="Ccaron" unicode="&#x10c;" horiz-adv-x="1316" 
d="M612 -25q-248 0 -389 158t-141 434q0 180 50 341.5t141 283.5t229 194t303 72q248 0 376.5 -152.5t110.5 -410.5h-311q6 124 -41 190t-162 66q-75 0 -138.5 -36t-106.5 -95.5t-73.5 -135.5t-44.5 -155.5t-14 -157.5q0 -288 240 -288q221 0 301 243h315
q-58 -262 -228 -406.5t-417 -144.5zM729 1819l100 -193l154 193h307l-256 -303h-416l-169 303h280z" />
    <glyph glyph-name="ccaron" unicode="&#x10d;" horiz-adv-x="1132" 
d="M532 -25q-215 0 -347 128.5t-132 334.5q0 168 79.5 308t217 220.5t303.5 80.5q185 0 308 -97.5t143 -259.5l-277 -69q-10 73 -58.5 112t-127.5 39q-125 0 -207 -94t-82 -225q0 -92 53 -147.5t142 -55.5q84 0 153 45.5t101 122.5l258 -105q-61 -152 -207 -245t-320 -93z
M573 1475l99 -209l155 209h310l-269 -328h-401l-174 328h280z" />
    <glyph glyph-name="Dcaron" unicode="&#x10e;" horiz-adv-x="1349" 
d="M84 0l201 1434h417q288 0 454.5 -160t166.5 -432q0 -128 -29.5 -248t-94 -228.5t-157.5 -189.5t-228 -128.5t-298 -47.5h-432zM543 295q138 0 244.5 75t160 193.5t53.5 257.5q0 151 -84.5 234.5t-240.5 83.5h-121l-119 -844h107zM784 1819l101 -193l153 193h308
l-256 -303h-416l-170 303h280z" />
    <glyph glyph-name="dcaron" unicode="&#x10f;" horiz-adv-x="1230" 
d="M473 -25q-189 0 -304.5 122.5t-115.5 322.5q0 177 70.5 321t193.5 225t275 81q101 0 183.5 -40t111.5 -102l78 570h299l-207 -1475h-299l14 104q-47 -60 -127 -94.5t-172 -34.5zM559 250q118 0 202.5 92t84.5 221q0 95 -56.5 152t-150.5 57q-118 0 -201.5 -92t-83.5 -221
q0 -96 55.5 -152.5t149.5 -56.5zM1284 868l84 607h303l-119 -607h-268z" />
    <glyph glyph-name="Dcroat" unicode="&#x110;" horiz-adv-x="1349" 
d="M84 0l82 582h-166l39 272h164l82 580h417q288 0 454.5 -160t166.5 -432q0 -128 -29.5 -248t-94 -228.5t-157.5 -189.5t-228 -128.5t-298 -47.5h-432zM543 295q138 0 244.5 75t160 193.5t53.5 257.5q0 151 -84.5 234.5t-240.5 83.5h-121l-41 -285h332l-39 -272h-330
l-41 -287h107z" />
    <glyph glyph-name="dcroat" unicode="&#x111;" horiz-adv-x="1230" 
d="M473 -25q-189 0 -304.5 122.5t-115.5 322.5q0 177 70.5 321t193.5 225t275 81q101 0 183.5 -40t111.5 -102l33 238h-273l31 225h272l15 107h299l-15 -107h144l-31 -225h-145l-160 -1143h-299l14 104q-47 -60 -127 -94.5t-172 -34.5zM559 250q118 0 202.5 92t84.5 221
q0 95 -56.5 152t-150.5 57q-118 0 -201.5 -92t-83.5 -221q0 -96 55.5 -152.5t149.5 -56.5z" />
    <glyph glyph-name="Emacron" unicode="&#x112;" horiz-adv-x="1159" 
d="M84 0l201 1434h886l-43 -295h-573l-39 -275h545l-41 -282h-545l-39 -287h584l-39 -295h-897zM401 1548l39 271h709l-39 -271h-709z" />
    <glyph glyph-name="emacron" unicode="&#x113;" horiz-adv-x="1136" 
d="M526 -25q-209 0 -341 128t-132 331q0 128 46.5 242t126 195.5t191.5 128.5t238 47q198 0 315 -116t117 -313q0 -79 -22 -176h-727v-8q0 -103 53 -157t156 -54q129 0 215 99l213 -154q-77 -90 -195.5 -141.5t-253.5 -51.5zM313 1188l39 270h709l-39 -270h-709zM373 623
h442q3 84 -43.5 132t-136.5 48t-158 -47.5t-104 -132.5z" />
    <glyph glyph-name="Ebreve" unicode="&#x114;" horiz-adv-x="1159" 
d="M84 0l201 1434h886l-43 -295h-573l-39 -275h545l-41 -282h-545l-39 -287h584l-39 -295h-897zM768 1516q-166 0 -260 85.5t-74 217.5h244q-12 -131 108 -131q56 0 91.5 33.5t44.5 97.5h243q-12 -137 -121 -220t-276 -83z" />
    <glyph glyph-name="ebreve" unicode="&#x115;" horiz-adv-x="1136" 
d="M526 -25q-209 0 -341 128t-132 331q0 128 46.5 242t126 195.5t191.5 128.5t238 47q198 0 315 -116t117 -313q0 -79 -22 -176h-727v-8q0 -103 53 -157t156 -54q129 0 215 99l213 -154q-77 -90 -195.5 -141.5t-253.5 -51.5zM678 1147q-166 0 -258 93t-72 235h238
q-17 -144 104 -144q58 0 94 39t45 105h238q-20 -152 -126 -240t-263 -88zM373 623h442q3 84 -43.5 132t-136.5 48t-158 -47.5t-104 -132.5z" />
    <glyph glyph-name="Edotaccent" unicode="&#x116;" horiz-adv-x="1159" 
d="M84 0l201 1434h886l-43 -295h-573l-39 -275h545l-41 -282h-545l-39 -287h584l-39 -295h-897zM748 1499q-72 0 -123.5 51.5t-51.5 124.5q0 72 51.5 123t123.5 51q73 0 124.5 -51t51.5 -123q0 -73 -51 -124.5t-125 -51.5z" />
    <glyph glyph-name="edotaccent" unicode="&#x117;" horiz-adv-x="1136" 
d="M526 -25q-209 0 -341 128t-132 331q0 128 46.5 242t126 195.5t191.5 128.5t238 47q198 0 315 -116t117 -313q0 -79 -22 -176h-727v-8q0 -103 53 -157t156 -54q129 0 215 99l213 -154q-77 -90 -195.5 -141.5t-253.5 -51.5zM688 1161q-72 0 -123 51.5t-51 124.5
q0 72 51 123t123 51q73 0 124.5 -51t51.5 -123q0 -73 -51 -124.5t-125 -51.5zM373 623h442q3 84 -43.5 132t-136.5 48t-158 -47.5t-104 -132.5z" />
    <glyph glyph-name="Eogonek" unicode="&#x118;" horiz-adv-x="1159" 
d="M84 0l201 1434h886l-43 -295h-573l-39 -275h545l-41 -282h-545l-39 -287h584l-39 -295h-2q-84 -29 -133 -73.5t-49 -90.5q0 -65 86 -65q52 0 96 20l45 -160q-86 -41 -209 -41q-117 0 -185.5 51t-68.5 144q0 66 38.5 122t109.5 93h-625z" />
    <glyph glyph-name="eogonek" unicode="&#x119;" horiz-adv-x="1144" 
d="M627 -410q-114 0 -178 47.5t-64 131.5q0 60 35.5 118t95.5 95h-20q-194 0 -318.5 128.5t-124.5 327.5q0 125 46.5 237.5t125.5 194t188.5 129.5t231.5 48q207 0 324.5 -115t117.5 -318q0 -102 -24 -172h-727q0 -106 55 -162.5t160 -56.5q82 0 154 49.5t106 128.5
l246 -104q-63 -147 -230 -250q-92 -57 -147 -117t-55 -104q0 -26 18.5 -40.5t50.5 -14.5q53 0 101 22l36 -166q-78 -37 -204 -37zM813 623q3 84 -45 132t-135 48q-92 0 -161 -47.5t-101 -132.5h442z" />
    <glyph glyph-name="Ecaron" unicode="&#x11a;" horiz-adv-x="1159" 
d="M84 0l201 1434h886l-43 -295h-573l-39 -275h545l-41 -282h-545l-39 -287h584l-39 -295h-897zM664 1819l100 -193l154 193h307l-256 -303h-416l-170 303h281z" />
    <glyph glyph-name="ecaron" unicode="&#x11b;" horiz-adv-x="1136" 
d="M526 -25q-209 0 -341 128t-132 331q0 128 46.5 242t126 195.5t191.5 128.5t238 47q198 0 315 -116t117 -313q0 -79 -22 -176h-727v-8q0 -103 53 -157t156 -54q129 0 215 99l213 -154q-77 -90 -195.5 -141.5t-253.5 -51.5zM582 1475l98 -209l156 209h309l-268 -328h-402
l-174 328h281zM373 623h442q3 84 -43.5 132t-136.5 48t-158 -47.5t-104 -132.5z" />
    <glyph glyph-name="Gcircumflex" unicode="&#x11c;" horiz-adv-x="1359" 
d="M614 -25q-247 0 -389.5 158.5t-142.5 433.5q0 192 54 357.5t149 282.5t230 184t292 67q217 0 352 -119t148 -323l-324 -64q-6 103 -55.5 151t-149.5 48q-161 0 -268 -165.5t-107 -414.5q0 -288 240 -288q117 0 198.5 66.5t121.5 195.5h-267l39 270h606l-14 -106
q-51 -349 -238.5 -541.5t-474.5 -192.5zM969 1516l-101 192l-153 -192h-307l256 303h415l170 -303h-280z" />
    <glyph glyph-name="gcircumflex" unicode="&#x11d;" horiz-adv-x="1230" 
d="M444 -434q-165 0 -284 69.5t-160 188.5l262 123q57 -117 209 -117q125 0 204.5 72t98.5 202l8 64q-46 -60 -129.5 -93.5t-187.5 -33.5q-179 0 -292.5 118.5t-113.5 307.5q0 162 70 295.5t192.5 209t270.5 75.5q105 0 185 -43.5t108 -114.5l18 133h297l-133 -934
q-73 -522 -623 -522zM567 307q116 0 199.5 83t83.5 198q0 86 -57 138t-154 52q-118 0 -200.5 -81t-82.5 -197q0 -89 56.5 -141t154.5 -52zM862 1147l-98 209l-156 -209h-309l268 328h402l174 -328h-281z" />
    <glyph glyph-name="Gbreve" unicode="&#x11e;" horiz-adv-x="1359" 
d="M614 -25q-247 0 -389.5 158.5t-142.5 433.5q0 192 54 357.5t149 282.5t230 184t292 67q217 0 352 -119t148 -323l-324 -64q-6 103 -55.5 151t-149.5 48q-161 0 -268 -165.5t-107 -414.5q0 -288 240 -288q117 0 198.5 66.5t121.5 195.5h-267l39 270h606l-14 -106
q-51 -349 -238.5 -541.5t-474.5 -192.5zM842 1516q-166 0 -260 85.5t-74 217.5h244q-12 -131 108 -131q56 0 91 33.5t44 97.5h244q-12 -137 -121 -220t-276 -83z" />
    <glyph glyph-name="gbreve" unicode="&#x11f;" horiz-adv-x="1230" 
d="M444 -434q-165 0 -284 69.5t-160 188.5l262 123q57 -117 209 -117q125 0 204.5 72t98.5 202l8 64q-46 -60 -129.5 -93.5t-187.5 -33.5q-179 0 -292.5 118.5t-113.5 307.5q0 162 70 295.5t192.5 209t270.5 75.5q105 0 185 -43.5t108 -114.5l18 133h297l-133 -934
q-73 -522 -623 -522zM567 307q116 0 199.5 83t83.5 198q0 86 -57 138t-154 52q-118 0 -200.5 -81t-82.5 -197q0 -89 56.5 -141t154.5 -52zM739 1147q-166 0 -257.5 93t-71.5 235h237q-17 -144 105 -144q58 0 94 39t45 105h237q-20 -152 -126 -240t-263 -88z" />
    <glyph glyph-name="Gdotaccent" unicode="&#x120;" horiz-adv-x="1359" 
d="M614 -25q-247 0 -389.5 158.5t-142.5 433.5q0 192 54 357.5t149 282.5t230 184t292 67q217 0 352 -119t148 -323l-324 -64q-6 103 -55.5 151t-149.5 48q-161 0 -268 -165.5t-107 -414.5q0 -288 240 -288q117 0 198.5 66.5t121.5 195.5h-267l39 270h606l-14 -106
q-51 -349 -238.5 -541.5t-474.5 -192.5zM821 1499q-72 0 -123 51.5t-51 124.5q0 72 51 123t123 51q73 0 124.5 -51t51.5 -123q0 -73 -51.5 -124.5t-124.5 -51.5z" />
    <glyph glyph-name="gdotaccent" unicode="&#x121;" horiz-adv-x="1259" 
d="M444 -434q-165 0 -284 69.5t-160 188.5l262 123q57 -117 209 -117q125 0 204.5 72t98.5 202l8 64q-46 -60 -129.5 -93.5t-187.5 -33.5q-179 0 -292.5 118.5t-113.5 307.5q0 162 70 295.5t192.5 209t270.5 75.5q105 0 185 -43.5t108 -114.5l18 133h297l-133 -934
q-73 -522 -623 -522zM567 307q116 0 199.5 83t83.5 198q0 86 -57 138t-154 52q-118 0 -200.5 -81t-82.5 -197q0 -89 56.5 -141t154.5 -52zM745 1161q-72 0 -123 51.5t-51 124.5q0 72 51 123t123 51q73 0 125 -51t52 -123q0 -73 -51.5 -124.5t-125.5 -51.5z" />
    <glyph glyph-name="uni0122" unicode="&#x122;" horiz-adv-x="1359" 
d="M614 -25q-247 0 -389.5 158.5t-142.5 433.5q0 192 54 357.5t149 282.5t230 184t292 67q217 0 352 -119t148 -323l-324 -64q-6 103 -55.5 151t-149.5 48q-161 0 -268 -165.5t-107 -414.5q0 -288 240 -288q117 0 198.5 66.5t121.5 195.5h-267l39 270h606l-14 -106
q-51 -349 -238.5 -541.5t-474.5 -192.5zM344 -377q80 3 151.5 26t110.5 56q-28 -4 -47 -4q-74 0 -118 32t-44 85q0 57 48 89t133 32q86 0 134 -41t48 -113q0 -127 -102 -199t-293 -78z" />
    <glyph glyph-name="uni0123" unicode="&#x123;" horiz-adv-x="1259" 
d="M444 -434q-165 0 -284 69.5t-160 188.5l262 123q57 -117 209 -117q125 0 204.5 72t98.5 202l8 64q-46 -60 -129.5 -93.5t-187.5 -33.5q-179 0 -292.5 118.5t-113.5 307.5q0 162 70 295.5t192.5 209t270.5 75.5q105 0 185 -43.5t108 -114.5l18 133h297l-133 -934
q-73 -522 -623 -522zM567 307q116 0 199.5 83t83.5 198q0 86 -57 138t-154 52q-118 0 -200.5 -81t-82.5 -197q0 -89 56.5 -141t154.5 -52zM903 1434q-80 -3 -151.5 -26t-110.5 -56q28 4 47 4q74 0 118 -32t44 -85q0 -57 -47.5 -89t-132.5 -32q-86 0 -134.5 41t-48.5 113
q0 126 102.5 198t293.5 78z" />
    <glyph glyph-name="Hcircumflex" unicode="&#x124;" horiz-adv-x="1406" 
d="M868 0l80 575h-473l-80 -575h-311l201 1434h311l-78 -564h473l78 564h309l-200 -1434h-310zM981 1516l-100 192l-154 -192h-307l256 303h416l170 -303h-281z" />
    <glyph glyph-name="hcircumflex" unicode="&#x125;" horiz-adv-x="1196" 
d="M59 0l207 1475h299l-80 -568q44 63 121.5 101.5t159.5 38.5q177 0 264.5 -112t59.5 -300l-89 -635h-296l83 600q12 87 -23.5 130.5t-113.5 43.5q-83 0 -142 -55t-71 -141l-80 -578h-299zM831 1556l-100 193l-153 -193h-308l256 304h416l170 -304h-281z" />
    <glyph glyph-name="Hbar" unicode="&#x126;" horiz-adv-x="1406" 
d="M868 0l80 575h-473l-80 -575h-311l149 1061h-172l37 258h170l17 115h311l-16 -115h473l16 115h309l-16 -115h172l-37 -258h-170l-149 -1061h-310zM518 870h473l27 191h-473z" />
    <glyph glyph-name="hbar" unicode="&#x127;" horiz-adv-x="1224" 
d="M90 0l160 1143h-160l31 225h162l14 107h299l-14 -107h254l-31 -225h-256l-33 -236q44 63 121.5 101.5t159.5 38.5q176 0 263.5 -112t59.5 -300l-88 -635h-297l84 600q12 87 -23.5 130.5t-113.5 43.5q-83 0 -142 -55t-71 -141l-80 -578h-299z" />
    <glyph glyph-name="Itilde" unicode="&#x128;" horiz-adv-x="622" 
d="M84 0l201 1434h311l-201 -1434h-311zM76 1556q0 146 59 226t166 80q57 0 119.5 -22.5t115 -45t85.5 -22.5q60 0 69 90l242 -29q0 -151 -63 -234t-177 -83q-56 0 -118.5 23t-115.5 46t-85 23q-61 0 -70 -92z" />
    <glyph glyph-name="itilde" unicode="&#x129;" horiz-adv-x="505" 
d="M59 0l144 1022h297l-142 -1022h-299zM18 1192q0 146 59 225.5t167 79.5q44 0 83 -14t62 -31t48 -31t44 -14q61 0 70 90l242 -29q0 -151 -63 -234t-177 -83q-51 0 -98 23t-82 46t-58 23q-60 0 -69 -92z" />
    <glyph glyph-name="Imacron" unicode="&#x12a;" horiz-adv-x="622" 
d="M84 0l201 1434h311l-201 -1434h-311zM98 1548l39 271h709l-39 -271h-709z" />
    <glyph glyph-name="imacron" unicode="&#x12b;" horiz-adv-x="505" 
d="M59 0l144 1022h297l-142 -1022h-299zM47 1188l39 270h610l-39 -270h-610z" />
    <glyph glyph-name="Ibreve" unicode="&#x12c;" horiz-adv-x="622" 
d="M84 0l201 1434h311l-201 -1434h-311zM465 1516q-166 0 -260 85.5t-74 217.5h244q-12 -131 108 -131q56 0 91 33.5t44 97.5h244q-12 -137 -121 -220t-276 -83z" />
    <glyph glyph-name="ibreve" unicode="&#x12d;" horiz-adv-x="505" 
d="M59 0l144 1022h297l-142 -1022h-299zM362 1147q-148 0 -228 93t-60 235h225q-9 -75 8.5 -109.5t63.5 -34.5q42 0 73.5 40t40.5 104h226q-20 -152 -115.5 -240t-233.5 -88z" />
    <glyph glyph-name="Iogonek" unicode="&#x12e;" horiz-adv-x="622" 
d="M84 0l201 1434h311l-201 -1434h-2q-84 -29 -133 -73.5t-49 -90.5q0 -65 86 -65q52 0 96 20l45 -160q-86 -41 -209 -41q-117 0 -185.5 51t-68.5 144q0 66 38.5 122t109.5 93h-39z" />
    <glyph glyph-name="iogonek" unicode="&#x12f;" horiz-adv-x="505" 
d="M59 0l144 1022h297l-142 -1022h-24q-75 -29 -118.5 -73.5t-43.5 -90.5q0 -65 86 -65q52 0 96 20l45 -160q-86 -41 -209 -41q-117 0 -185 51t-68 144q0 66 36.5 122t102.5 93h-17zM369 1161q-72 0 -123 51.5t-51 124.5q0 72 51 123t123 51q73 0 124.5 -51t51.5 -123
q0 -73 -51.5 -124.5t-124.5 -51.5z" />
    <glyph glyph-name="Idotaccent" unicode="&#x130;" horiz-adv-x="622" 
d="M84 0l201 1434h311l-201 -1434h-311zM444 1499q-72 0 -123 51.5t-51 124.5q0 72 51 123t123 51q73 0 125 -51t52 -123q0 -73 -51.5 -124.5t-125.5 -51.5z" />
    <glyph glyph-name="dotlessi" unicode="&#x131;" horiz-adv-x="561" 
d="M59 0l144 1022h297l-142 -1022h-299z" />
    <glyph glyph-name="IJ" unicode="&#x132;" horiz-adv-x="1261" 
d="M575 -25q-226 0 -348.5 139.5t-91.5 362.5h309q-13 -92 27.5 -143t126.5 -51q87 0 142.5 53t68.5 149l92 654h-215l41 295h524l-135 -965q-32 -226 -178.5 -360t-362.5 -134zM156 625l112 809h312l-115 -809h-309z" />
    <glyph glyph-name="ij" unicode="&#x133;" horiz-adv-x="1134" 
d="M59 0l144 1022h297l-142 -1022h-299zM391 1161q-72 0 -123 51.5t-51 124.5q0 72 51 123t123 51q73 0 124.5 -51t51.5 -123q0 -73 -51.5 -124.5t-124.5 -51.5zM551 -434q-132 0 -215 47l82 231q32 -18 76 -18q62 0 94 33.5t41 99.5l149 1063h299l-151 -1081
q-28 -185 -122.5 -280t-252.5 -95zM967 1161q-72 0 -123 51.5t-51 124.5q0 72 51 123t123 51q73 0 124.5 -51t51.5 -123q0 -73 -51.5 -124.5t-124.5 -51.5z" />
    <glyph glyph-name="Jcircumflex" unicode="&#x134;" horiz-adv-x="1222" 
d="M537 -25q-227 0 -348.5 140.5t-90.5 369.5l8 64h310l-10 -80q-12 -89 27 -137.5t122 -48.5q89 0 145.5 52.5t69.5 149.5l92 654h-356l41 295h667l-137 -965q-31 -223 -178.5 -358.5t-361.5 -135.5zM1036 1516l-100 192l-154 -192h-307l256 303h416l170 -303h-281z" />
    <glyph glyph-name="jcircumflex" unicode="&#x135;" horiz-adv-x="552" 
d="M-31 -434q-132 0 -215 47l82 231q32 -18 76 -18q62 0 94 33.5t41 99.5l150 1063h299l-152 -1081q-28 -185 -122.5 -280t-252.5 -95zM473 1147l-72 192l-125 -192h-296l239 328h377l145 -328h-268z" />
    <glyph glyph-name="uni0136" unicode="&#x136;" horiz-adv-x="1284" 
d="M84 0l201 1434h311l-82 -582l496 582h366l-534 -607l334 -827h-334l-221 573l-172 -194l-54 -379h-311zM401 -377q80 3 152 26t111 56q-28 -4 -48 -4q-74 0 -117.5 32t-43.5 85q0 57 47.5 89t132.5 32q86 0 134 -41t48 -113q0 -127 -102 -199t-293 -78z" />
    <glyph glyph-name="uni0137" unicode="&#x137;" horiz-adv-x="1132" 
d="M59 0l207 1475h299l-119 -820l385 367h371l-450 -426l301 -596h-305l-201 401l-150 -141l-39 -260h-299zM256 -377q80 3 151.5 26t110.5 56q-28 -4 -47 -4q-74 0 -118 32t-44 85q0 57 47.5 89t132.5 32q86 0 134.5 -41t48.5 -113q0 -127 -102.5 -199t-293.5 -78z" />
    <glyph glyph-name="kgreenlandic" unicode="&#x138;" horiz-adv-x="1159" 
d="M59 0l144 1022h297l-54 -367l385 367h371l-450 -426l301 -596h-305l-201 401l-150 -141l-39 -260h-299z" />
    <glyph glyph-name="Lacute" unicode="&#x139;" horiz-adv-x="1081" 
d="M84 0l201 1434h311l-160 -1139h543l-39 -295h-856zM539 1516l194 303h381l-258 -303h-317z" />
    <glyph glyph-name="lacute" unicode="&#x13a;" horiz-adv-x="505" 
d="M59 0l207 1475h299l-207 -1475h-299zM213 1556l195 304h380l-258 -304h-317z" />
    <glyph glyph-name="uni013B" unicode="&#x13b;" horiz-adv-x="1081" 
d="M84 0l201 1434h311l-160 -1139h543l-39 -295h-856zM289 -377q80 3 151.5 26t110.5 56q-28 -4 -47 -4q-74 0 -118 32t-44 85q0 57 47.5 89t132.5 32q86 0 134.5 -41t48.5 -113q0 -127 -102.5 -199t-293.5 -78z" />
    <glyph glyph-name="uni013C" unicode="&#x13c;" horiz-adv-x="505" 
d="M59 0l207 1475h299l-207 -1475h-299zM-72 -377q80 3 151.5 26t110.5 56q-28 -4 -47 -4q-74 0 -117.5 32t-43.5 85q0 57 47.5 89t132.5 32q86 0 134 -41t48 -113q0 -127 -102 -199t-293 -78z" />
    <glyph glyph-name="Lcaron" unicode="&#x13d;" horiz-adv-x="1081" 
d="M84 0l201 1434h311l-160 -1139h543l-39 -295h-856zM784 827l84 607h303l-118 -607h-269z" />
    <glyph glyph-name="lcaron" unicode="&#x13e;" horiz-adv-x="505" 
d="M59 0l207 1475h299l-207 -1475h-299zM559 868l84 607h303l-119 -607h-268z" />
    <glyph glyph-name="Ldot" unicode="&#x13f;" horiz-adv-x="1122" 
d="M84 0l201 1434h311l-160 -1139h543l-39 -295h-856zM922 647q-75 0 -120.5 50t-45.5 130q0 92 52 153.5t130 61.5q75 0 120.5 -50t45.5 -130q0 -92 -52 -153.5t-130 -61.5z" />
    <glyph glyph-name="ldot" unicode="&#x140;" horiz-adv-x="735" 
d="M59 0l207 1475h299l-207 -1475h-299zM688 549q-65 0 -104 47.5t-39 124.5q0 98 48 160.5t120 62.5q64 0 102.5 -45.5t38.5 -122.5q0 -99 -47 -163t-119 -64z" />
    <glyph glyph-name="Lslash" unicode="&#x141;" horiz-adv-x="1081" 
d="M84 0l80 567l-105 -53l39 303l109 55l78 562h311l-53 -385l182 94l-39 -303l-186 -97l-64 -448h543l-39 -295h-856z" />
    <glyph glyph-name="lslash" unicode="&#x142;" horiz-adv-x="505" 
d="M59 0l74 524l-149 -84l36 279l152 86l94 670h299l-67 -486l73 43l-34 -278l-78 -45l-101 -709h-299z" />
    <glyph glyph-name="Nacute" unicode="&#x143;" horiz-adv-x="1421" 
d="M84 0l201 1434h319l354 -887l125 887h310l-201 -1434h-318l-356 887l-123 -887h-311zM688 1516l195 303h381l-258 -303h-318z" />
    <glyph glyph-name="nacute" unicode="&#x144;" horiz-adv-x="1196" 
d="M59 0l144 1022h297l-15 -117q43 64 120 103t161 39q175 0 263.5 -111.5t60.5 -300.5l-89 -635h-296l83 600q12 85 -23.5 129.5t-113.5 44.5q-82 0 -141.5 -55t-71.5 -141l-80 -578h-299zM522 1147l185 328h354l-248 -328h-291z" />
    <glyph glyph-name="uni0145" unicode="&#x145;" horiz-adv-x="1421" 
d="M84 0l201 1434h319l354 -887l125 887h310l-201 -1434h-318l-356 887l-123 -887h-311zM383 -377q80 3 151.5 26t110.5 56q-28 -4 -47 -4q-74 0 -118 32t-44 85q0 57 47.5 89t132.5 32q86 0 134.5 -41t48.5 -113q0 -127 -102.5 -199t-293.5 -78z" />
    <glyph glyph-name="uni0146" unicode="&#x146;" horiz-adv-x="1196" 
d="M59 0l144 1022h297l-15 -117q43 64 120 103t161 39q175 0 263.5 -111.5t60.5 -300.5l-89 -635h-296l83 600q12 85 -23.5 129.5t-113.5 44.5q-82 0 -141.5 -55t-71.5 -141l-80 -578h-299zM270 -377q80 3 151.5 26t110.5 56q-28 -4 -47 -4q-74 0 -117.5 32t-43.5 85
q0 57 47.5 89t132.5 32q86 0 134 -41t48 -113q0 -127 -102 -199t-293 -78z" />
    <glyph glyph-name="Ncaron" unicode="&#x147;" horiz-adv-x="1421" 
d="M84 0l201 1434h319l354 -887l125 887h310l-201 -1434h-318l-356 887l-123 -887h-311zM758 1819l100 -193l154 193h307l-256 -303h-416l-170 303h281z" />
    <glyph glyph-name="ncaron" unicode="&#x148;" horiz-adv-x="1196" 
d="M59 0l144 1022h297l-15 -117q43 64 120 103t161 39q175 0 263.5 -111.5t60.5 -300.5l-89 -635h-296l83 600q12 85 -23.5 129.5t-113.5 44.5q-82 0 -141.5 -55t-71.5 -141l-80 -578h-299zM606 1475l99 -209l155 209h309l-268 -328h-401l-174 328h280z" />
    <glyph glyph-name="Eng" unicode="&#x14a;" horiz-adv-x="1421" 
d="M84 0l201 1434h319l354 -887l125 887h310l-172 -1239l-35 -254q-56 -375 -383 -375q-129 0 -205 49l80 229q34 -18 80 -18q51 0 87 37t44 96l6 41h-21l-356 887l-123 -887h-311z" />
    <glyph glyph-name="eng" unicode="&#x14b;" horiz-adv-x="1193" 
d="M621 -434q-132 0 -215 47l79 231q29 -18 74 -18q55 0 92.5 36.5t46.5 96.5l90 641q24 174 -137 174q-80 0 -140.5 -55t-72.5 -141l-80 -578h-299l144 1022h297l-21 -121q44 66 123 106t164 40q175 0 263.5 -111.5t60.5 -300.5l-97 -694q-26 -184 -120.5 -279.5
t-251.5 -95.5z" />
    <glyph glyph-name="Omacron" unicode="&#x14c;" horiz-adv-x="1361" 
d="M612 -25q-247 0 -388.5 158t-141.5 434q0 259 92 462t256.5 316t374.5 113q246 0 389 -159.5t143 -434.5q0 -259 -91.5 -461.5t-257 -315t-376.5 -112.5zM641 283q164 0 269.5 162t105.5 417q0 142 -60.5 215.5t-177.5 73.5q-164 0 -270.5 -163.5t-106.5 -416.5
q0 -288 240 -288zM467 1548l39 271h708l-38 -271h-709z" />
    <glyph glyph-name="omacron" unicode="&#x14d;" horiz-adv-x="1196" 
d="M539 -25q-214 0 -349 130.5t-135 336.5q0 167 79.5 306t218.5 219t306 80q214 0 348 -131t134 -338q0 -125 -46.5 -236.5t-126.5 -192t-192 -127.5t-237 -47zM559 250q117 0 201 92t84 221q0 95 -55.5 152t-149.5 57q-120 0 -203.5 -91t-83.5 -222q0 -97 56 -153t151 -56
zM340 1188l39 270h708l-38 -270h-709z" />
    <glyph glyph-name="Obreve" unicode="&#x14e;" horiz-adv-x="1361" 
d="M612 -25q-247 0 -388.5 158t-141.5 434q0 259 92 462t256.5 316t374.5 113q246 0 389 -159.5t143 -434.5q0 -259 -91.5 -461.5t-257 -315t-376.5 -112.5zM641 283q164 0 269.5 162t105.5 417q0 142 -60.5 215.5t-177.5 73.5q-164 0 -270.5 -163.5t-106.5 -416.5
q0 -288 240 -288zM834 1516q-166 0 -260 85.5t-74 217.5h243q-12 -131 109 -131q56 0 91 33.5t44 97.5h244q-12 -137 -121 -220t-276 -83z" />
    <glyph glyph-name="obreve" unicode="&#x14f;" horiz-adv-x="1196" 
d="M539 -25q-214 0 -349 130.5t-135 336.5q0 167 79.5 306t218.5 219t306 80q214 0 348 -131t134 -338q0 -125 -46.5 -236.5t-126.5 -192t-192 -127.5t-237 -47zM559 250q117 0 201 92t84 221q0 95 -55.5 152t-149.5 57q-120 0 -203.5 -91t-83.5 -222q0 -97 56 -153t151 -56
zM705 1147q-166 0 -258 93t-72 235h237q-17 -144 105 -144q58 0 94 39t45 105h238q-20 -152 -126 -240t-263 -88z" />
    <glyph glyph-name="Ohungarumlaut" unicode="&#x150;" horiz-adv-x="1361" 
d="M612 -25q-247 0 -388.5 158t-141.5 434q0 259 92 462t256.5 316t374.5 113q246 0 389 -159.5t143 -434.5q0 -259 -91.5 -461.5t-257 -315t-376.5 -112.5zM641 283q164 0 269.5 162t105.5 417q0 142 -60.5 215.5t-177.5 73.5q-164 0 -270.5 -163.5t-106.5 -416.5
q0 -288 240 -288zM373 1516l180 303h375l-244 -303h-311zM856 1516l180 303h375l-244 -303h-311z" />
    <glyph glyph-name="ohungarumlaut" unicode="&#x151;" horiz-adv-x="1196" 
d="M539 -25q-214 0 -349 130.5t-135 336.5q0 167 79.5 306t218.5 219t306 80q214 0 348 -131t134 -338q0 -125 -46.5 -236.5t-126.5 -192t-192 -127.5t-237 -47zM559 250q117 0 201 92t84 221q0 95 -55.5 152t-149.5 57q-120 0 -203.5 -91t-83.5 -222q0 -97 56 -153t151 -56
zM317 1147l185 328h354l-248 -328h-291zM764 1147l184 328h355l-248 -328h-291z" />
    <glyph glyph-name="OE" unicode="&#x152;" horiz-adv-x="1961" 
d="M735 0q-302 0 -476.5 162.5t-174.5 443.5q0 242 105.5 430.5t296.5 293t436 104.5h1052l-43 -295h-565l-27 -183l-12 -92h537l-41 -282h-535l-41 -287h576l-39 -295h-1049zM762 295h174l119 844h-160q-215 0 -353.5 -145t-138.5 -369q0 -157 94.5 -243.5t264.5 -86.5z
" />
    <glyph glyph-name="oe" unicode="&#x153;" horiz-adv-x="1931" 
d="M539 -25q-214 0 -349 130.5t-135 336.5q0 167 79.5 306t218.5 219t306 80q119 0 215 -42.5t160 -119.5q173 162 416 162q198 0 315 -116t117 -313q0 -79 -22 -176h-727v-8q0 -103 53 -157t155 -54q129 0 215 99l213 -154q-77 -90 -195 -141.5t-253 -51.5
q-116 0 -211.5 42t-159.5 118q-170 -160 -411 -160zM559 250q117 0 201 92t84 221q0 95 -55.5 152t-149.5 57q-120 0 -203.5 -91t-83.5 -222q0 -97 56 -153t151 -56zM1167 623h443q3 84 -43.5 132t-136.5 48t-159 -47.5t-104 -132.5z" />
    <glyph glyph-name="Racute" unicode="&#x154;" horiz-adv-x="1267" 
d="M84 0l201 1434h516q219 0 345.5 -116t115.5 -304q-7 -161 -100 -277t-249 -168l209 -569h-307l-186 537h-158l-76 -537h-311zM616 1516l195 303h381l-258 -303h-318zM508 807h205q98 0 164.5 55.5t72.5 141.5q6 73 -38.5 112t-133.5 39h-221z" />
    <glyph glyph-name="racute" unicode="&#x155;" horiz-adv-x="1019" 
d="M59 0l144 1022h297l-23 -143q38 79 106.5 123.5t161.5 44.5q134 0 205 -98.5t68 -250.5l-277 -59q3 96 -18.5 138t-89.5 42q-76 0 -128 -64t-67 -177l-80 -578h-299zM395 1147l185 328h354l-248 -328h-291z" />
    <glyph glyph-name="uni0156" unicode="&#x156;" horiz-adv-x="1267" 
d="M84 0l201 1434h516q219 0 345.5 -116t115.5 -304q-7 -161 -100 -277t-249 -168l209 -569h-307l-186 537h-158l-76 -537h-311zM311 -377q80 3 151.5 26t110.5 56q-28 -4 -47 -4q-74 0 -117.5 32t-43.5 85q0 57 47.5 89t132.5 32q86 0 134 -41t48 -113q0 -127 -102 -199
t-293 -78zM508 807h205q98 0 164.5 55.5t72.5 141.5q6 73 -38.5 112t-133.5 39h-221z" />
    <glyph glyph-name="uni0157" unicode="&#x157;" horiz-adv-x="1019" 
d="M59 0l144 1022h297l-23 -143q38 79 106.5 123.5t161.5 44.5q134 0 205 -98.5t68 -250.5l-277 -59q3 96 -18.5 138t-89.5 42q-76 0 -128 -64t-67 -177l-80 -578h-299zM-39 -377q80 3 151.5 26t110.5 56q-28 -4 -47 -4q-74 0 -118 32t-44 85q0 57 48 89t133 32
q86 0 134 -41t48 -113q0 -127 -102 -199t-293 -78z" />
    <glyph glyph-name="Rcaron" unicode="&#x158;" horiz-adv-x="1267" 
d="M84 0l201 1434h516q219 0 345.5 -116t115.5 -304q-7 -161 -100 -277t-249 -168l209 -569h-307l-186 537h-158l-76 -537h-311zM686 1819l100 -193l154 193h307l-256 -303h-416l-169 303h280zM508 807h205q98 0 164.5 55.5t72.5 141.5q6 73 -38.5 112t-133.5 39h-221z" />
    <glyph glyph-name="rcaron" unicode="&#x159;" horiz-adv-x="1019" 
d="M59 0l144 1022h297l-23 -143q38 79 106.5 123.5t161.5 44.5q134 0 205 -98.5t68 -250.5l-277 -59q3 96 -18.5 138t-89.5 42q-76 0 -128 -64t-67 -177l-80 -578h-299zM481 1475l99 -209l155 209h309l-268 -328h-401l-174 328h280z" />
    <glyph glyph-name="Sacute" unicode="&#x15a;" horiz-adv-x="1163" 
d="M539 -25q-232 0 -366 121.5t-134 333.5l295 49q-6 -108 55.5 -168.5t179.5 -60.5q101 0 162.5 50.5t61.5 133.5q0 96 -129 123l-164 33q-155 30 -242.5 130.5t-87.5 242.5q0 215 152.5 355t379.5 140q422 0 478 -368l-293 -84q-6 85 -57.5 131.5t-137.5 46.5
q-97 0 -154 -49t-57 -134q0 -93 121 -118l156 -31q169 -34 256.5 -129t87.5 -244q0 -227 -156 -365.5t-407 -138.5zM559 1516l195 303h381l-258 -303h-318z" />
    <glyph glyph-name="sacute" unicode="&#x15b;" horiz-adv-x="937" 
d="M434 -25q-181 0 -298.5 89.5t-112.5 224.5l256 39q2 -65 42 -99t115 -34q64 0 101.5 27.5t37.5 74.5q0 34 -20 53t-70 29l-114 22q-127 26 -197 100t-70 183q0 164 114.5 263.5t303.5 99.5q166 0 273 -86t106 -218l-252 -38q0 122 -135 122q-58 0 -94.5 -30.5
t-36.5 -77.5q0 -59 82 -76l115 -22q140 -28 208 -95.5t68 -179.5q0 -171 -114 -271t-308 -100zM391 1147l184 328h355l-248 -328h-291z" />
    <glyph glyph-name="Scircumflex" unicode="&#x15c;" horiz-adv-x="1163" 
d="M539 -25q-232 0 -366 121.5t-134 333.5l295 49q-6 -108 55.5 -168.5t179.5 -60.5q101 0 162.5 50.5t61.5 133.5q0 96 -129 123l-164 33q-155 30 -242.5 130.5t-87.5 242.5q0 215 152.5 355t379.5 140q422 0 478 -368l-293 -84q-6 85 -57.5 131.5t-137.5 46.5
q-97 0 -154 -49t-57 -134q0 -93 121 -118l156 -31q169 -34 256.5 -129t87.5 -244q0 -227 -156 -365.5t-407 -138.5zM860 1516l-100 192l-154 -192h-307l256 303h416l170 -303h-281z" />
    <glyph glyph-name="scircumflex" unicode="&#x15d;" horiz-adv-x="937" 
d="M434 -25q-181 0 -298.5 89.5t-112.5 224.5l256 39q2 -65 42 -99t115 -34q64 0 101.5 27.5t37.5 74.5q0 34 -20 53t-70 29l-114 22q-127 26 -197 100t-70 183q0 164 114.5 263.5t303.5 99.5q166 0 273 -86t106 -218l-252 -38q0 122 -135 122q-58 0 -94.5 -30.5
t-36.5 -77.5q0 -59 82 -76l115 -22q140 -28 208 -95.5t68 -179.5q0 -171 -114 -271t-308 -100zM694 1147l-98 209l-156 -209h-309l268 328h402l174 -328h-281z" />
    <glyph glyph-name="Scedilla" unicode="&#x15e;" horiz-adv-x="1163" 
d="M530 -410q-122 0 -208 41l45 160q61 -33 120 -33q62 0 62 39q0 23 -22.5 32t-75.5 9l-62 72l37 74q-182 28 -284.5 145t-102.5 301l295 49q-6 -108 55.5 -168.5t179.5 -60.5q101 0 162.5 50.5t61.5 133.5q0 96 -129 123l-164 33q-155 30 -242.5 130.5t-87.5 242.5
q0 215 152.5 355t379.5 140q422 0 478 -368l-293 -84q-6 85 -57.5 131.5t-137.5 46.5q-97 0 -154 -49t-57 -134q0 -93 121 -118l156 -31q169 -34 256.5 -129t87.5 -244q0 -214 -140 -350.5t-370 -151.5l-19 -34q199 -30 199 -172q0 -87 -63.5 -134t-178.5 -47z" />
    <glyph glyph-name="scedilla" unicode="&#x15f;" horiz-adv-x="937" 
d="M436 -410q-123 0 -209 41l45 160q61 -33 121 -33q62 0 62 39q0 23 -23 32t-76 9l-61 72l37 74q-142 25 -227.5 108t-81.5 197l256 39q2 -65 42 -99t115 -34q64 0 101.5 27.5t37.5 74.5q0 34 -20 53t-70 29l-114 22q-127 26 -197 100t-70 183q0 164 114.5 263.5
t303.5 99.5q166 0 273 -86t106 -218l-252 -38q0 122 -135 122q-58 0 -94.5 -30.5t-36.5 -77.5q0 -59 82 -76l115 -22q140 -28 208 -95.5t68 -179.5q0 -156 -95.5 -253.5t-260.5 -112.5l-21 -37q199 -30 199 -172q0 -87 -63.5 -134t-178.5 -47z" />
    <glyph glyph-name="Scaron" unicode="&#x160;" horiz-adv-x="1163" 
d="M539 -25q-232 0 -366 121.5t-134 333.5l295 49q-6 -108 55.5 -168.5t179.5 -60.5q101 0 162.5 50.5t61.5 133.5q0 96 -129 123l-164 33q-155 30 -242.5 130.5t-87.5 242.5q0 215 152.5 355t379.5 140q422 0 478 -368l-293 -84q-6 85 -57.5 131.5t-137.5 46.5
q-97 0 -154 -49t-57 -134q0 -93 121 -118l156 -31q169 -34 256.5 -129t87.5 -244q0 -227 -156 -365.5t-407 -138.5zM629 1819l100 -193l154 193h307l-256 -303h-416l-170 303h281z" />
    <glyph glyph-name="scaron" unicode="&#x161;" horiz-adv-x="937" 
d="M434 -25q-181 0 -298.5 89.5t-112.5 224.5l256 39q2 -65 42 -99t115 -34q64 0 101.5 27.5t37.5 74.5q0 34 -20 53t-70 29l-114 22q-127 26 -197 100t-70 183q0 164 114.5 263.5t303.5 99.5q166 0 273 -86t106 -218l-252 -38q0 122 -135 122q-58 0 -94.5 -30.5
t-36.5 -77.5q0 -59 82 -76l115 -22q140 -28 208 -95.5t68 -179.5q0 -171 -114 -271t-308 -100zM475 1475l98 -209l156 209h309l-268 -328h-401l-174 328h280z" />
    <glyph glyph-name="uni0162" unicode="&#x162;" horiz-adv-x="1118" 
d="M334 0l160 1139h-373l41 295h1055l-41 -295h-373l-160 -1139h-22l-31 -57q201 -30 201 -172q0 -87 -63.5 -134t-178.5 -47q-124 0 -207 41l43 160q61 -33 121 -33q61 0 61 39q0 23 -22.5 32t-75.5 9l-61 72l38 90h-112z" />
    <glyph glyph-name="uni0163" unicode="&#x163;" horiz-adv-x="997" 
d="M494 -410q-123 0 -209 41l45 160q61 -33 121 -33q61 0 61 39q0 23 -22.5 32t-75.5 9l-62 72l39 78q-121 31 -181 126t-40 232l59 416h-178l35 260h178l41 291h297l-41 -291h334l-35 -260h-334l-59 -416q-15 -113 92 -113q96 0 141 132l232 -54q-66 -310 -375 -334
l-20 -34q198 -30 198 -172q0 -87 -63 -134t-178 -47z" />
    <glyph glyph-name="Tcaron" unicode="&#x164;" horiz-adv-x="1118" 
d="M334 0l160 1139h-373l41 295h1055l-41 -295h-373l-160 -1139h-309zM608 1819l101 -193l153 193h307l-256 -303h-415l-170 303h280z" />
    <glyph glyph-name="tcaron" unicode="&#x165;" horiz-adv-x="997" 
d="M502 -25q-172 0 -264.5 102t-67.5 269l59 416h-178l35 260h178l41 291h297l-41 -291h334l-35 -260h-334l-59 -416q-15 -113 92 -113q96 0 141 132l232 -54q-35 -166 -143.5 -251t-286.5 -85zM676 1090l84 606h303l-119 -606h-268z" />
    <glyph glyph-name="Tbar" unicode="&#x166;" horiz-adv-x="1118" 
d="M334 0l72 516h-336l39 283h337l48 340h-373l41 295h1055l-41 -295h-373l-47 -340h338l-39 -283h-340l-72 -516h-309z" />
    <glyph glyph-name="tbar" unicode="&#x167;" horiz-adv-x="997" 
d="M502 -25q-172 0 -264.5 102t-67.5 269l14 100h-178l29 201h178l16 115h-178l35 260h178l41 291h297l-41 -291h334l-35 -260h-334l-16 -115h328l-29 -201h-328l-14 -100q-15 -113 92 -113q96 0 141 132l232 -54q-35 -166 -143.5 -251t-286.5 -85z" />
    <glyph glyph-name="Utilde" unicode="&#x168;" horiz-adv-x="1396" 
d="M627 -25q-252 0 -384.5 157.5t-97.5 414.5l125 887h310l-127 -906q-17 -117 41 -181t178 -64q112 0 182.5 69t89.5 195l125 887h309l-127 -906q-35 -256 -202.5 -404.5t-421.5 -148.5zM463 1556q0 146 59 226t166 80q57 0 119.5 -22.5t115 -45t85.5 -22.5q60 0 69 90
l242 -29q0 -151 -63 -234t-177 -83q-56 0 -118.5 23t-115.5 46t-85 23q-61 0 -70 -92z" />
    <glyph glyph-name="utilde" unicode="&#x169;" horiz-adv-x="1196" 
d="M1137 1022l-144 -1022h-297l15 117q-43 -64 -120 -103t-161 -39q-175 0 -263.5 111.5t-60.5 300.5l89 635h297l-84 -600q-12 -85 23.5 -129.5t113.5 -44.5q82 0 141.5 55t71.5 141l80 578h299zM242 1192q0 146 59 225.5t166 79.5q57 0 119 -22.5t114.5 -45t85.5 -22.5
q61 0 70 90l242 -29q0 -151 -63 -234t-177 -83q-56 0 -118.5 23t-115.5 46t-85 23q-61 0 -70 -92z" />
    <glyph glyph-name="Umacron" unicode="&#x16a;" horiz-adv-x="1388" 
d="M627 -25q-252 0 -384.5 157.5t-97.5 414.5l125 887h310l-127 -906q-17 -117 41 -181t178 -64q112 0 182.5 69t89.5 195l125 887h309l-127 -906q-35 -256 -202.5 -404.5t-421.5 -148.5zM481 1548l39 271h709l-39 -271h-709z" />
    <glyph glyph-name="umacron" unicode="&#x16b;" horiz-adv-x="1196" 
d="M1137 1022l-144 -1022h-297l15 117q-43 -64 -120 -103t-161 -39q-175 0 -263.5 111.5t-60.5 300.5l89 635h297l-84 -600q-12 -85 23.5 -129.5t113.5 -44.5q82 0 141.5 55t71.5 141l80 578h299zM338 1188l39 270h708l-38 -270h-709z" />
    <glyph glyph-name="Ubreve" unicode="&#x16c;" horiz-adv-x="1388" 
d="M627 -25q-252 0 -384.5 157.5t-97.5 414.5l125 887h310l-127 -906q-17 -117 41 -181t178 -64q112 0 182.5 69t89.5 195l125 887h309l-127 -906q-35 -256 -202.5 -404.5t-421.5 -148.5zM848 1516q-166 0 -260 85.5t-74 217.5h244q-12 -131 108 -131q56 0 91 33.5t44 97.5
h244q-12 -137 -121 -220t-276 -83z" />
    <glyph glyph-name="ubreve" unicode="&#x16d;" horiz-adv-x="1196" 
d="M1137 1022l-144 -1022h-297l15 117q-43 -64 -120 -103t-161 -39q-175 0 -263.5 111.5t-60.5 300.5l89 635h297l-84 -600q-12 -85 23.5 -129.5t113.5 -44.5q82 0 141.5 55t71.5 141l80 578h299zM702 1147q-166 0 -257.5 93t-71.5 235h237q-17 -144 105 -144q58 0 94 39
t45 105h238q-20 -152 -126.5 -240t-263.5 -88z" />
    <glyph glyph-name="Uring" unicode="&#x16e;" horiz-adv-x="1388" 
d="M627 -25q-252 0 -384.5 157.5t-97.5 414.5l125 887h310l-127 -906q-17 -117 41 -181t178 -64q112 0 182.5 69t89.5 195l125 887h309l-127 -906q-35 -256 -202.5 -404.5t-421.5 -148.5zM850 1458q-118 0 -193 67.5t-75 172.5q0 106 75 173.5t193 67.5q117 0 191.5 -67.5
t74.5 -173.5q0 -105 -74.5 -172.5t-191.5 -67.5zM850 1622q32 0 53 21t21 55t-21 56t-53 22t-54 -22t-22 -56q0 -33 21.5 -54.5t54.5 -21.5z" />
    <glyph glyph-name="uring" unicode="&#x16f;" horiz-adv-x="1196" 
d="M1137 1022l-144 -1022h-297l15 117q-43 -64 -120 -103t-161 -39q-175 0 -263.5 111.5t-60.5 300.5l89 635h297l-84 -600q-12 -85 23.5 -129.5t113.5 -44.5q82 0 141.5 55t71.5 141l80 578h299zM670 1122q-118 0 -193.5 67.5t-75.5 172.5q0 106 75.5 174t193.5 68
q117 0 191.5 -68t74.5 -174q0 -105 -74.5 -172.5t-191.5 -67.5zM670 1286q32 0 52.5 21t20.5 55t-20.5 56t-52.5 22t-54 -22t-22 -56q0 -33 21.5 -54.5t54.5 -21.5z" />
    <glyph glyph-name="Uhungarumlaut" unicode="&#x170;" horiz-adv-x="1388" 
d="M627 -25q-252 0 -384.5 157.5t-97.5 414.5l125 887h310l-127 -906q-17 -117 41 -181t178 -64q112 0 182.5 69t89.5 195l125 887h309l-127 -906q-35 -256 -202.5 -404.5t-421.5 -148.5zM387 1516l180 303h375l-244 -303h-311zM870 1516l181 303h374l-243 -303h-312z" />
    <glyph glyph-name="uhungarumlaut" unicode="&#x171;" horiz-adv-x="1196" 
d="M1137 1022l-144 -1022h-297l15 117q-43 -64 -120 -103t-161 -39q-175 0 -263.5 111.5t-60.5 300.5l89 635h297l-84 -600q-12 -85 23.5 -129.5t113.5 -44.5q82 0 141.5 55t71.5 141l80 578h299zM315 1147l185 328h354l-248 -328h-291zM762 1147l184 328h354l-247 -328
h-291z" />
    <glyph glyph-name="Uogonek" unicode="&#x172;" horiz-adv-x="1421" 
d="M768 -410q-115 0 -178.5 47.5t-63.5 131.5q0 68 36 122.5t100 85.5l-27 -2q-254 0 -389.5 158.5t-100.5 413.5l125 887h310l-127 -906q-17 -119 42.5 -182t178.5 -63q129 0 207 70t96 194l125 887h309l-127 -906q-23 -159 -101 -281.5t-198 -197.5q-219 -130 -219 -229
q0 -49 68 -49q59 0 102 24l35 -168q-80 -37 -203 -37z" />
    <glyph glyph-name="uogonek" unicode="&#x173;" horiz-adv-x="1196" 
d="M1137 1022l-144 -1018l8 -4q-84 -29 -133 -73.5t-49 -90.5q0 -65 86 -65q52 0 96 20l46 -160q-86 -41 -209 -41q-117 0 -185.5 51t-68.5 144q0 66 38.5 122t108.5 93h-35l15 117q-43 -64 -120 -103t-161 -39q-175 0 -263.5 111.5t-60.5 300.5l89 635h297l-84 -600
q-12 -85 23.5 -129.5t113.5 -44.5q82 0 141.5 55t71.5 141l80 578h299z" />
    <glyph glyph-name="Wcircumflex" unicode="&#x174;" horiz-adv-x="1775" 
d="M236 0l-78 1434h301l39 -1065l307 1065h401l35 -1065l315 1065h320l-479 -1434h-398l-47 987l-305 -987h-411zM1165 1516l-100 192l-154 -192h-307l256 303h416l170 -303h-281z" />
    <glyph glyph-name="wcircumflex" unicode="&#x175;" horiz-adv-x="1591" 
d="M197 0l-107 1022h311l35 -700l262 700h332l64 -700l233 700h318l-396 -1022h-364l-62 696l-260 -696h-366zM1022 1147l-98 209l-156 -209h-309l268 328h401l175 -328h-281z" />
    <glyph glyph-name="Ycircumflex" unicode="&#x176;" horiz-adv-x="1275" 
d="M412 0l82 584l-336 850h327l195 -572l354 572h342l-573 -850l-82 -584h-309zM918 1516l-101 192l-153 -192h-308l256 303h416l170 -303h-280z" />
    <glyph glyph-name="ycircumflex" unicode="&#x177;" horiz-adv-x="1159" 
d="M137 -434q-151 0 -215 51l72 229q41 -20 106 -20q77 0 125 33.5t105 113.5l41 62l-281 987h322l147 -672l318 672h335l-618 -1131q-95 -173 -202.5 -249t-254.5 -76zM805 1147l-98 209l-156 -209h-309l268 328h401l174 -328h-280z" />
    <glyph glyph-name="Ydieresis" unicode="&#x178;" horiz-adv-x="1275" 
d="M412 0l82 584l-336 850h327l195 -572l354 572h342l-573 -850l-82 -584h-309zM516 1499q-72 0 -123 51t-51 123q0 73 51 124.5t123 51.5q74 0 125 -51.5t51 -124.5q0 -72 -51.5 -123t-124.5 -51zM1061 1499q-72 0 -123 51t-51 123q0 73 51 124.5t123 51.5
q73 0 124.5 -51.5t51.5 -124.5q0 -72 -51.5 -123t-124.5 -51z" />
    <glyph glyph-name="Zacute" unicode="&#x179;" horiz-adv-x="1138" 
d="M18 0l41 285l684 854h-546l41 295h938l-39 -285l-686 -854h565l-41 -295h-957zM547 1516l194 303h381l-258 -303h-317z" />
    <glyph glyph-name="zacute" unicode="&#x17a;" horiz-adv-x="956" 
d="M0 0l31 246l516 516h-428l35 260h802l-32 -246l-512 -516h438l-37 -260h-813zM403 1147l185 328h354l-248 -328h-291z" />
    <glyph glyph-name="Zdotaccent" unicode="&#x17b;" horiz-adv-x="1138" 
d="M18 0l41 285l684 854h-546l41 295h938l-39 -285l-686 -854h565l-41 -295h-957zM700 1499q-72 0 -123 51.5t-51 124.5q0 72 51 123t123 51q73 0 125 -51t52 -123q0 -73 -51.5 -124.5t-125.5 -51.5z" />
    <glyph glyph-name="zdotaccent" unicode="&#x17c;" horiz-adv-x="956" 
d="M0 0l31 246l516 516h-428l35 260h802l-32 -246l-512 -516h438l-37 -260h-813zM594 1161q-72 0 -123 51.5t-51 124.5q0 72 51 123t123 51q73 0 124.5 -51t51.5 -123q0 -73 -51 -124.5t-125 -51.5z" />
    <glyph glyph-name="Zcaron" unicode="&#x17d;" horiz-adv-x="1138" 
d="M18 0l41 285l684 854h-546l41 295h938l-39 -285l-686 -854h565l-41 -295h-957zM616 1819l101 -193l153 193h308l-256 -303h-416l-170 303h280z" />
    <glyph glyph-name="zcaron" unicode="&#x17e;" horiz-adv-x="956" 
d="M0 0l31 246l516 516h-428l35 260h802l-32 -246l-512 -516h438l-37 -260h-813zM487 1475l99 -209l155 209h310l-269 -328h-401l-174 328h280z" />
    <glyph glyph-name="uni018F" unicode="&#x18f;" horiz-adv-x="1538" 
d="M690 -25q-322 0 -482.5 199t-111.5 539q7 61 21 102h1077q0 161 -97 248.5t-261 87.5q-134 0 -248 -66.5t-170 -173.5l-277 154q84 178 279.5 285.5t427.5 107.5q300 0 481.5 -176.5t181.5 -458.5q0 -169 -62 -324t-169.5 -270.5t-261.5 -184.5t-328 -69zM379 573
q-7 -156 76 -236.5t243 -80.5q162 0 278 87t173 230h-770z" />
    <glyph glyph-name="uni01F4" unicode="&#x1f4;" horiz-adv-x="1359" 
d="M614 -25q-247 0 -389.5 158.5t-142.5 433.5q0 192 54 357.5t149 282.5t230 184t292 67q217 0 352 -119t148 -323l-324 -64q-6 103 -55.5 151t-149.5 48q-161 0 -268 -165.5t-107 -414.5q0 -288 240 -288q117 0 198.5 66.5t121.5 195.5h-267l39 270h606l-14 -106
q-51 -349 -238.5 -541.5t-474.5 -192.5zM668 1516l194 303h381l-258 -303h-317z" />
    <glyph glyph-name="uni01F5" unicode="&#x1f5;" horiz-adv-x="1230" 
d="M444 -434q-165 0 -284 69.5t-160 188.5l262 123q57 -117 209 -117q125 0 204.5 72t98.5 202l8 64q-46 -60 -129.5 -93.5t-187.5 -33.5q-179 0 -292.5 118.5t-113.5 307.5q0 162 70 295.5t192.5 209t270.5 75.5q105 0 185 -43.5t108 -114.5l18 133h297l-133 -934
q-73 -522 -623 -522zM567 307q116 0 199.5 83t83.5 198q0 86 -57 138t-154 52q-118 0 -200.5 -81t-82.5 -197q0 -89 56.5 -141t154.5 -52zM526 1147l185 328h354l-248 -328h-291z" />
    <glyph glyph-name="AEacute" unicode="&#x1fc;" horiz-adv-x="1978" 
d="M932 0l45 324h-430l-217 -324h-373l1006 1434h1028l-43 -295h-545l-39 -275h516l-41 -282h-516l-39 -287h555l-39 -295h-868zM1067 1516l195 303h380l-258 -303h-317zM737 606h279l74 524z" />
    <glyph glyph-name="aeacute" unicode="&#x1fd;" horiz-adv-x="1794" 
d="M379 -25q-166 0 -259 75.5t-93 209.5q0 166 128 259t355 93h205l8 58q10 66 -22.5 100.5t-104.5 34.5q-75 0 -133 -45t-78 -117l-258 74q38 146 171 238t306 92q225 0 338 -119q158 119 352 119q206 0 323.5 -115.5t117.5 -317.5q0 -79 -23 -176h-715v-12q0 -91 53 -142
t148 -51q80 0 149.5 43.5t100.5 112.5l256 -92q-60 -145 -203.5 -233.5t-318.5 -88.5q-118 0 -214.5 42t-160.5 118q-97 -88 -195.5 -124t-232.5 -36zM819 1147l185 328h354l-248 -328h-291zM326 281q0 -45 29.5 -69t86.5 -24q91 0 160.5 58t81.5 143l4 37h-158
q-95 0 -149.5 -38.5t-54.5 -106.5zM1036 618h414q4 82 -38 126t-124 44q-83 0 -149 -45.5t-103 -124.5z" />
    <glyph glyph-name="Oslashacute" unicode="&#x1fe;" horiz-adv-x="1361" 
d="M612 -25q-202 0 -333 107l-78 -82h-340l270 285q-49 122 -49 282q0 259 92 462t256.5 316t374.5 113q205 0 336 -110l82 86h340l-275 -289q49 -119 49 -281q0 -259 -91.5 -461.5t-257 -315t-376.5 -112.5zM641 283q164 0 268.5 160.5t106.5 414.5l-514 -541
q55 -34 139 -34zM881 1516l194 303h381l-258 -303h-317zM401 569l517 543q-53 39 -140 39q-164 0 -270.5 -163.5t-106.5 -416.5v-2z" />
    <glyph glyph-name="oslashacute" unicode="&#x1ff;" horiz-adv-x="1196" 
d="M539 -25q-142 0 -256 62l-35 -37h-244l143 154q-92 122 -92 288q0 167 79.5 306t218.5 219t306 80q144 0 256 -64l37 39h244l-145 -156q90 -123 90 -288q0 -125 -46.5 -236.5t-126.5 -192t-192 -127.5t-237 -47zM559 250q117 0 201 92t84 221q0 30 -8 70l-349 -373
q38 -10 72 -10zM522 1147l185 328h354l-248 -328h-291zM352 459q0 -36 10 -74l349 377q-38 10 -72 10q-120 0 -203.5 -91t-83.5 -222z" />
    <glyph glyph-name="uni0218" unicode="&#x218;" horiz-adv-x="1163" 
d="M539 -25q-232 0 -366 121.5t-134 333.5l295 49q-6 -108 55.5 -168.5t179.5 -60.5q101 0 162.5 50.5t61.5 133.5q0 96 -129 123l-164 33q-155 30 -242.5 130.5t-87.5 242.5q0 215 152.5 355t379.5 140q422 0 478 -368l-293 -84q-6 85 -57.5 131.5t-137.5 46.5
q-97 0 -154 -49t-57 -134q0 -93 121 -118l156 -31q169 -34 256.5 -129t87.5 -244q0 -227 -156 -365.5t-407 -138.5zM254 -377q80 3 151.5 26t110.5 56q-28 -4 -47 -4q-74 0 -118 32t-44 85q0 57 47.5 89t132.5 32q86 0 134.5 -41t48.5 -113q0 -127 -102.5 -199t-293.5 -78z
" />
    <glyph glyph-name="uni0219" unicode="&#x219;" horiz-adv-x="937" 
d="M434 -25q-181 0 -298.5 89.5t-112.5 224.5l256 39q2 -65 42 -99t115 -34q64 0 101.5 27.5t37.5 74.5q0 34 -20 53t-70 29l-114 22q-127 26 -197 100t-70 183q0 164 114.5 263.5t303.5 99.5q166 0 273 -86t106 -218l-252 -38q0 122 -135 122q-58 0 -94.5 -30.5
t-36.5 -77.5q0 -59 82 -76l115 -22q140 -28 208 -95.5t68 -179.5q0 -171 -114 -271t-308 -100zM160 -377q80 3 151.5 26t110.5 56q-28 -4 -47 -4q-74 0 -118 32t-44 85q0 57 47.5 89t132.5 32q86 0 134 -41t48 -113q0 -127 -102 -199t-293 -78z" />
    <glyph glyph-name="uni021A" unicode="&#x21a;" horiz-adv-x="1118" 
d="M334 0l160 1139h-373l41 295h1055l-41 -295h-373l-160 -1139h-309zM231 -377q80 3 152 26t111 56q-28 -4 -48 -4q-74 0 -117.5 32t-43.5 85q0 57 47.5 89t132.5 32q86 0 134 -41t48 -113q0 -127 -102 -199t-293 -78z" />
    <glyph glyph-name="uni021B" unicode="&#x21b;" horiz-adv-x="997" 
d="M502 -25q-172 0 -264.5 102t-67.5 269l59 416h-178l35 260h178l41 291h297l-41 -291h334l-35 -260h-334l-59 -416q-15 -113 92 -113q96 0 141 132l232 -54q-35 -166 -143.5 -251t-286.5 -85zM215 -377q80 3 151.5 26t110.5 56q-28 -4 -47 -4q-74 0 -118 32t-44 85
q0 57 48 89t133 32q86 0 134 -41t48 -113q0 -127 -102 -199t-293 -78z" />
    <glyph glyph-name="uni0237" unicode="&#x237;" horiz-adv-x="552" 
d="M-31 -434q-132 0 -215 47l82 231q32 -18 76 -18q62 0 94 33.5t41 99.5l150 1063h299l-152 -1081q-28 -185 -122.5 -280t-252.5 -95z" />
    <glyph glyph-name="uni0259" unicode="&#x259;" horiz-adv-x="1136" 
d="M610 1047q209 0 341 -128t132 -331q0 -128 -46.5 -242t-126 -195.5t-191.5 -128.5t-238 -47q-198 0 -315 116t-117 312q0 75 23 177h727v8q0 103 -53 157t-156 54q-129 0 -215 -99l-213 154q77 90 195 141.5t253 51.5zM322 399q-3 -84 43.5 -132t136.5 -48t158 47.5
t104 132.5h-442z" />
    <glyph glyph-name="circumflex" unicode="&#x2c6;" horiz-adv-x="1048" 
d="M754 1147l-99 209l-155 -209h-310l269 328h401l174 -328h-280z" />
    <glyph glyph-name="caron" unicode="&#x2c7;" horiz-adv-x="1048" 
d="M518 1475l98 -209l156 209h309l-268 -328h-401l-174 328h280z" />
    <glyph glyph-name="uni02C9" unicode="&#x2c9;" horiz-adv-x="913" 
d="M199 1188l39 270h708l-39 -270h-708z" />
    <glyph glyph-name="breve" unicode="&#x2d8;" horiz-adv-x="921" 
d="M567 1147q-166 0 -257.5 93t-71.5 235h237q-17 -144 105 -144q58 0 94 39t45 105h237q-20 -152 -126 -240t-263 -88z" />
    <glyph glyph-name="dotaccent" unicode="&#x2d9;" horiz-adv-x="559" 
d="M395 1161q-72 0 -123 51.5t-51 124.5q0 72 51 123t123 51q73 0 124.5 -51t51.5 -123q0 -73 -51.5 -124.5t-124.5 -51.5z" />
    <glyph glyph-name="ring" unicode="&#x2da;" horiz-adv-x="745" 
d="M494 1122q-118 0 -193.5 67.5t-75.5 172.5q0 106 75.5 174t193.5 68q117 0 191.5 -68t74.5 -174q0 -105 -74.5 -172.5t-191.5 -67.5zM494 1286q32 0 52.5 21t20.5 55t-20.5 56t-52.5 22t-54 -22t-22 -56q0 -33 21.5 -54.5t54.5 -21.5z" />
    <glyph glyph-name="ogonek" unicode="&#x2db;" horiz-adv-x="690" 
d="M256 -410q-117 0 -185.5 51t-68.5 144q0 100 85.5 173t229.5 95l103 -53q-84 -29 -133 -73.5t-49 -90.5q0 -65 86 -65q52 0 96 20l45 -160q-86 -41 -209 -41z" />
    <glyph glyph-name="tilde" unicode="&#x2dc;" horiz-adv-x="1034" 
d="M205 1192q0 146 59 225.5t166 79.5q57 0 119.5 -22.5t115 -45t85.5 -22.5q60 0 69 90l242 -29q0 -151 -63 -234t-177 -83q-56 0 -118.5 23t-115.5 46t-85 23q-61 0 -70 -92z" />
    <glyph glyph-name="hungarumlaut" unicode="&#x2dd;" horiz-adv-x="1142" 
d="M190 1147l185 328h354l-248 -328h-291zM637 1147l184 328h355l-248 -328h-291z" />
    <glyph glyph-name="gravecomb" unicode="&#x300;" horiz-adv-x="0" 
d="M778 1147h-291l-247 328h354z" />
    <glyph glyph-name="acutecomb" unicode="&#x301;" horiz-adv-x="0" 
d="M190 1147l185 328h354l-248 -328h-291z" />
    <glyph glyph-name="uni0302" unicode="&#x302;" horiz-adv-x="0" 
d="M754 1147l-99 209l-155 -209h-310l269 328h401l174 -328h-280z" />
    <glyph glyph-name="tildecomb" unicode="&#x303;" horiz-adv-x="0" 
d="M205 1192q0 146 59 225.5t166 79.5q57 0 119.5 -22.5t115 -45t85.5 -22.5q60 0 69 90l242 -29q0 -151 -63 -234t-177 -83q-56 0 -118.5 23t-115.5 46t-85 23q-61 0 -70 -92z" />
    <glyph glyph-name="uni0304" unicode="&#x304;" horiz-adv-x="0" 
d="M199 1188l39 270h708l-39 -270h-708z" />
    <glyph glyph-name="uni0306" unicode="&#x306;" horiz-adv-x="0" 
d="M567 1147q-166 0 -257.5 93t-71.5 235h237q-17 -144 105 -144q58 0 94 39t45 105h237q-20 -152 -126 -240t-263 -88z" />
    <glyph glyph-name="uni0307" unicode="&#x307;" horiz-adv-x="0" 
d="M395 1161q-72 0 -123 51.5t-51 124.5q0 72 51 123t123 51q73 0 124.5 -51t51.5 -123q0 -73 -51.5 -124.5t-124.5 -51.5z" />
    <glyph glyph-name="uni0308" unicode="&#x308;" horiz-adv-x="0" 
d="M395 1161q-72 0 -123 51.5t-51 124.5q0 72 51 123t123 51q73 0 124.5 -51t51.5 -123q0 -73 -51.5 -124.5t-124.5 -51.5zM940 1161q-72 0 -123 51.5t-51 124.5q0 72 51 123t123 51q73 0 124.5 -51t51.5 -123q0 -73 -51 -124.5t-125 -51.5z" />
    <glyph glyph-name="uni030A" unicode="&#x30a;" horiz-adv-x="0" 
d="M494 1122q-118 0 -193.5 67.5t-75.5 172.5q0 106 75.5 174t193.5 68q117 0 191.5 -68t74.5 -174q0 -105 -74.5 -172.5t-191.5 -67.5zM494 1286q32 0 52.5 21t20.5 55t-20.5 56t-52.5 22t-54 -22t-22 -56q0 -33 21.5 -54.5t54.5 -21.5z" />
    <glyph glyph-name="uni030B" unicode="&#x30b;" horiz-adv-x="0" 
d="M190 1147l185 328h354l-248 -328h-291zM637 1147l184 328h355l-248 -328h-291z" />
    <glyph glyph-name="uni030C" unicode="&#x30c;" horiz-adv-x="0" 
d="M518 1475l98 -209l156 209h309l-268 -328h-401l-174 328h280z" />
    <glyph glyph-name="uni0312" unicode="&#x312;" horiz-adv-x="0" 
d="M629 1434q-80 -3 -151.5 -26t-110.5 -56q28 4 47 4q74 0 117.5 -32t43.5 -85q0 -57 -47.5 -89t-132.5 -32q-86 0 -134 41t-48 113q0 127 102 198.5t293 77.5z" />
    <glyph glyph-name="uni0326" unicode="&#x326;" horiz-adv-x="0" 
d="M-23 -377q80 3 152 26t111 56q-28 -4 -47 -4q-74 0 -118 32t-44 85q0 57 47.5 89t132.5 32q86 0 134 -41t48 -113q0 -127 -102 -199t-293 -78z" />
    <glyph glyph-name="uni0327" unicode="&#x327;" horiz-adv-x="0" 
d="M186 -410q-123 0 -209 41l46 160q61 -33 120 -33q62 0 62 39q0 23 -23 32t-76 9l-61 72l66 131h174l-56 -98q199 -30 199 -172q0 -87 -63.5 -134t-178.5 -47z" />
    <glyph glyph-name="uni0328" unicode="&#x328;" horiz-adv-x="0" 
d="M256 -410q-117 0 -185.5 51t-68.5 144q0 100 85.5 173t229.5 95l103 -53q-84 -29 -133 -73.5t-49 -90.5q0 -65 86 -65q52 0 96 20l45 -160q-86 -41 -209 -41z" />
    <glyph glyph-name="uni0335" unicode="&#x335;" horiz-adv-x="0" 
d="M193 1143l30 225h715l-31 -225h-714z" />
    <glyph glyph-name="uni0336" unicode="&#x336;" horiz-adv-x="0" 
d="M94 446l29 201h803l-29 -201h-803z" />
    <glyph glyph-name="uni0337" unicode="&#x337;" horiz-adv-x="0" 
d="M100 483l37 279l551 313l-35 -278z" />
    <glyph glyph-name="uni0338" unicode="&#x338;" horiz-adv-x="0" 
d="M31 0l948 1022h244l-949 -1022h-243z" />
    <glyph glyph-name="uni1E20" unicode="&#x1e20;" horiz-adv-x="1359" 
d="M614 -25q-247 0 -389.5 158.5t-142.5 433.5q0 192 54 357.5t149 282.5t230 184t292 67q217 0 352 -119t148 -323l-324 -64q-6 103 -55.5 151t-149.5 48q-161 0 -268 -165.5t-107 -414.5q0 -288 240 -288q117 0 198.5 66.5t121.5 195.5h-267l39 270h606l-14 -106
q-51 -349 -238.5 -541.5t-474.5 -192.5zM477 1548l39 271h709l-39 -271h-709z" />
    <glyph glyph-name="uni1E21" unicode="&#x1e21;" horiz-adv-x="1259" 
d="M444 -434q-165 0 -284 69.5t-160 188.5l262 123q57 -117 209 -117q125 0 204.5 72t98.5 202l8 64q-46 -60 -129.5 -93.5t-187.5 -33.5q-179 0 -292.5 118.5t-113.5 307.5q0 162 70 295.5t192.5 209t270.5 75.5q105 0 185 -43.5t108 -114.5l18 133h297l-133 -934
q-73 -522 -623 -522zM567 307q116 0 199.5 83t83.5 198q0 86 -57 138t-154 52q-118 0 -200.5 -81t-82.5 -197q0 -89 56.5 -141t154.5 -52zM371 1188l39 270h708l-39 -270h-708z" />
    <glyph glyph-name="Wgrave" unicode="&#x1e80;" horiz-adv-x="1775" 
d="M236 0l-78 1434h301l39 -1065l307 1065h401l35 -1065l315 1065h320l-479 -1434h-398l-47 987l-305 -987h-411zM1231 1516h-318l-258 303h381z" />
    <glyph glyph-name="wgrave" unicode="&#x1e81;" horiz-adv-x="1591" 
d="M197 0l-107 1022h311l35 -700l262 700h332l64 -700l233 700h318l-396 -1022h-364l-62 696l-260 -696h-366zM1016 1147h-291l-248 328h354z" />
    <glyph glyph-name="Wacute" unicode="&#x1e82;" horiz-adv-x="1775" 
d="M236 0l-78 1434h301l39 -1065l307 1065h401l35 -1065l315 1065h320l-479 -1434h-398l-47 987l-305 -987h-411zM866 1516l195 303h381l-258 -303h-318z" />
    <glyph glyph-name="wacute" unicode="&#x1e83;" horiz-adv-x="1591" 
d="M197 0l-107 1022h311l35 -700l262 700h332l64 -700l233 700h318l-396 -1022h-364l-62 696l-260 -696h-366zM717 1147l184 328h354l-247 -328h-291z" />
    <glyph glyph-name="Wdieresis" unicode="&#x1e84;" horiz-adv-x="1775" 
d="M236 0l-78 1434h301l39 -1065l307 1065h401l35 -1065l315 1065h320l-479 -1434h-398l-47 987l-305 -987h-411zM766 1499q-72 0 -123 51t-51 123q0 73 51 124.5t123 51.5q74 0 125 -51.5t51 -124.5q0 -72 -51.5 -123t-124.5 -51zM1311 1499q-72 0 -123 51t-51 123
q0 73 51 124.5t123 51.5q73 0 124.5 -51.5t51.5 -124.5q0 -72 -51.5 -123t-124.5 -51z" />
    <glyph glyph-name="wdieresis" unicode="&#x1e85;" horiz-adv-x="1591" 
d="M197 0l-107 1022h311l35 -700l262 700h332l64 -700l233 700h318l-396 -1022h-364l-62 696l-260 -696h-366zM623 1161q-72 0 -123 51.5t-51 124.5q0 72 51 123t123 51q73 0 124.5 -51t51.5 -123q0 -73 -51.5 -124.5t-124.5 -51.5zM1167 1161q-72 0 -123 51.5t-51 124.5
q0 72 51 123t123 51q73 0 124.5 -51t51.5 -123q0 -73 -51.5 -124.5t-124.5 -51.5z" />
    <glyph glyph-name="uni1E9E" unicode="&#x1e9e;" horiz-adv-x="1527" 
d="M926 -25q-201 0 -321.5 92t-121.5 248l262 97q5 -77 52 -118.5t131 -41.5q92 0 151.5 59t59.5 150q0 145 -195 145h-141l24 187l260 319q-73 57 -194 57q-163 0 -261.5 -88t-121.5 -254l-115 -827h-311l123 868q38 280 219.5 435t470.5 155q214 0 368 -77.5t214 -215.5
l-287 -350q116 -34 183 -125t67 -219q0 -223 -142 -359.5t-374 -136.5z" />
    <glyph glyph-name="uni1EBC" unicode="&#x1ebc;" horiz-adv-x="1159" 
d="M84 0l201 1434h886l-43 -295h-573l-39 -275h545l-41 -282h-545l-39 -287h584l-39 -295h-897zM403 1556q0 146 59.5 226t166.5 80q57 0 119 -22.5t114.5 -45t85.5 -22.5q61 0 70 90l242 -29q0 -151 -63 -234t-177 -83q-56 0 -119 23t-116 46t-85 23q-60 0 -69 -92z" />
    <glyph glyph-name="uni1EBD" unicode="&#x1ebd;" horiz-adv-x="1136" 
d="M526 -25q-209 0 -341 128t-132 331q0 128 46.5 242t126 195.5t191.5 128.5t238 47q198 0 315 -116t117 -313q0 -79 -22 -176h-727v-8q0 -103 53 -157t156 -54q129 0 215 99l213 -154q-77 -90 -195.5 -141.5t-253.5 -51.5zM217 1192q0 146 59 225.5t166 79.5
q57 0 119.5 -22.5t115 -45t85.5 -22.5q60 0 69 90l242 -29q0 -151 -62.5 -234t-176.5 -83q-56 0 -119 23t-116 46t-85 23q-61 0 -70 -92zM373 623h442q3 84 -43.5 132t-136.5 48t-158 -47.5t-104 -132.5z" />
    <glyph glyph-name="Ygrave" unicode="&#x1ef2;" horiz-adv-x="1275" 
d="M412 0l82 584l-336 850h327l195 -572l354 572h342l-573 -850l-82 -584h-309zM981 1516h-317l-258 303h380z" />
    <glyph glyph-name="ygrave" unicode="&#x1ef3;" horiz-adv-x="1159" 
d="M137 -434q-151 0 -215 51l72 229q41 -20 106 -20q77 0 125 33.5t105 113.5l41 62l-281 987h322l147 -672l318 672h335l-618 -1131q-95 -173 -202.5 -249t-254.5 -76zM799 1147h-291l-248 328h354z" />
    <glyph glyph-name="uni1EF8" unicode="&#x1ef8;" horiz-adv-x="1275" 
d="M412 0l82 584l-336 850h327l195 -572l354 572h342l-573 -850l-82 -584h-309zM426 1556q0 146 59 226t166 80q57 0 119.5 -22.5t115 -45t85.5 -22.5q60 0 69 90l242 -29q0 -151 -63 -234t-177 -83q-56 0 -118.5 23t-115.5 46t-85 23q-61 0 -70 -92z" />
    <glyph glyph-name="uni1EF9" unicode="&#x1ef9;" horiz-adv-x="1159" 
d="M137 -434q-151 0 -215 51l72 229q41 -20 106 -20q77 0 125 33.5t105 113.5l41 62l-281 987h322l147 -672l318 672h335l-618 -1131q-95 -173 -202.5 -249t-254.5 -76zM221 1192q0 146 59 225.5t166 79.5q57 0 119.5 -22.5t115 -45t85.5 -22.5q61 0 70 90l241 -29
q0 -151 -62.5 -234t-176.5 -83q-56 0 -119 23t-116 46t-85 23q-60 0 -69 -92z" />
    <glyph glyph-name="uni2011" unicode="&#x2011;" horiz-adv-x="856" 
d="M96 463l41 278h647l-41 -278h-647z" />
    <glyph glyph-name="endash" unicode="&#x2013;" horiz-adv-x="1150" 
d="M96 463l41 278h942l-41 -278h-942z" />
    <glyph glyph-name="emdash" unicode="&#x2014;" horiz-adv-x="1796" 
d="M96 463l41 278h1585l-39 -278h-1587z" />
    <glyph glyph-name="quoteleft" unicode="&#x2018;" horiz-adv-x="610" 
d="M637 1313q-90 -7 -174.5 -58t-128.5 -120q24 4 37 4q82 0 134 -53t52 -136q0 -90 -58.5 -148.5t-148.5 -58.5q-92 0 -145 57.5t-53 155.5q0 196 140 345t329 157z" />
    <glyph glyph-name="quoteright" unicode="&#x2019;" horiz-adv-x="612" 
d="M139 889q90 7 174.5 58t128.5 120q-24 -4 -36 -4q-82 0 -134.5 52.5t-52.5 135.5q0 90 58.5 148.5t148.5 58.5q92 0 145.5 -57.5t53.5 -155.5q0 -196 -140 -345t-329 -157z" />
    <glyph glyph-name="quotesinglbase" unicode="&#x201a;" horiz-adv-x="632" 
d="M-12 -190q90 7 174.5 58t128.5 120q-24 -4 -37 -4q-82 0 -134 52.5t-52 135.5q0 90 58 148.5t148 58.5q92 0 145.5 -57.5t53.5 -155.5q0 -196 -140 -345t-329 -157z" />
    <glyph glyph-name="quotedblleft" unicode="&#x201c;" horiz-adv-x="1110" 
d="M1137 1313q-90 -7 -174.5 -58t-128.5 -120q24 4 36 4q82 0 134.5 -53t52.5 -136q0 -90 -58.5 -148.5t-148.5 -58.5q-92 0 -145.5 57.5t-53.5 155.5q0 196 140 345t329 157zM637 1313q-90 -7 -174.5 -58t-128.5 -120q24 4 37 4q82 0 134 -53t52 -136q0 -90 -58.5 -148.5
t-148.5 -58.5q-92 0 -145 57.5t-53 155.5q0 196 140 345t329 157z" />
    <glyph glyph-name="quotedblright" unicode="&#x201d;" horiz-adv-x="1112" 
d="M139 889q90 7 174.5 58t128.5 120q-24 -4 -36 -4q-82 0 -134.5 52.5t-52.5 135.5q0 90 58.5 148.5t148.5 58.5q92 0 145.5 -57.5t53.5 -155.5q0 -196 -140 -345t-329 -157zM639 889q90 7 174.5 58t128.5 120q-24 -4 -37 -4q-82 0 -134 52.5t-52 135.5q0 90 58.5 148.5
t148.5 58.5q92 0 145 -57.5t53 -155.5q0 -196 -140 -345t-329 -157z" />
    <glyph glyph-name="quotedblbase" unicode="&#x201e;" horiz-adv-x="1132" 
d="M-12 -190q90 7 174.5 58t128.5 120q-24 -4 -37 -4q-82 0 -134 52.5t-52 135.5q0 90 58 148.5t148 58.5q92 0 145.5 -57.5t53.5 -155.5q0 -196 -140 -345t-329 -157zM487 -190q90 7 175 58t129 120q-24 -4 -37 -4q-82 0 -134.5 52.5t-52.5 135.5q0 90 58.5 148.5
t148.5 58.5q92 0 145.5 -57.5t53.5 -155.5q0 -196 -140 -345t-329 -157z" />
    <glyph glyph-name="dagger" unicode="&#x2020;" horiz-adv-x="763" 
d="M365 614v482h-183v200h183v179h229v-179h182v-200h-182v-482h-229z" />
    <glyph glyph-name="daggerdbl" unicode="&#x2021;" horiz-adv-x="823" 
d="M373 614v179h-183v188h183v127h-183v188h183v179h229v-179h182v-188h-182v-127h182v-188h-182v-179h-229z" />
    <glyph glyph-name="bullet" unicode="&#x2022;" horiz-adv-x="833" 
d="M440 369q-120 0 -206.5 85.5t-86.5 204.5q0 122 86 207.5t207 85.5q122 0 208.5 -85.5t86.5 -207.5q0 -119 -87 -204.5t-208 -85.5z" />
    <glyph glyph-name="ellipsis" unicode="&#x2026;" horiz-adv-x="2023" 
d="M258 -16q-82 0 -140.5 58t-58.5 138q0 83 58.5 141t140.5 58t140.5 -58t58.5 -141q0 -80 -58.5 -138t-140.5 -58zM958 -16q-81 0 -139.5 58t-58.5 138q0 83 58 141t140 58t140.5 -58t58.5 -141q0 -80 -58.5 -138t-140.5 -58zM1671 -16q-81 0 -139.5 58t-58.5 138
q0 83 58 141t140 58t140.5 -58t58.5 -141q0 -80 -58.5 -138t-140.5 -58z" />
    <glyph glyph-name="guilsinglleft" unicode="&#x2039;" horiz-adv-x="763" 
d="M328 102l-252 420l362 420h344l-383 -436l236 -404h-307z" />
    <glyph glyph-name="guilsinglright" unicode="&#x203a;" horiz-adv-x="761" 
d="M438 942l252 -420l-362 -420h-344l383 437l-236 403h307z" />
    <glyph glyph-name="uni20AA" unicode="&#x20aa;" horiz-adv-x="1632" 
d="M944 0q-243 0 -357 121t-83 344l61 436h262l-59 -422q-15 -113 33.5 -168t163.5 -55h206l164 1178h269l-201 -1434h-459zM84 0l201 1434h460q242 0 356.5 -121t82.5 -344l-62 -437h-262l60 422q34 224 -195 224h-207l-166 -1178h-268z" />
    <glyph glyph-name="Euro" unicode="&#x20ac;" horiz-adv-x="1380" 
d="M35 762l41 188h133q81 231 252.5 369.5t406.5 138.5q248 0 377 -153t111 -410h-312q6 124 -40.5 190t-161.5 66q-94 0 -167.5 -54t-121.5 -147h301l-41 -188h-328q-13 -74 -16 -103h334l-41 -188h-289q40 -188 232 -188q221 0 301 243h315q-58 -262 -228 -406.5
t-417 -144.5q-225 0 -363 131.5t-163 364.5h-115l41 188h74q3 54 12 103h-127z" />
    <glyph glyph-name="uni20B1" unicode="&#x20b1;" horiz-adv-x="1288" 
d="M72 1010l30 225h166l29 199h491q144 0 251 -52t161 -147h191l-31 -225h-107q-3 -65 -18 -127h106l-30 -226h-209q-161 -151 -426 -151h-199l-69 -506h-312l92 657h-165l30 226h166l19 127h-166zM516 784h182q105 0 173.5 64.5t68.5 165.5q0 69 -44.5 105t-129.5 36h-199z
" />
    <glyph glyph-name="uni20BA" unicode="&#x20ba;" horiz-adv-x="1366" 
d="M72 0l69 502l-143 -43l27 200l145 46l14 100l-143 -43l27 201l145 45l59 426h312l-47 -328l460 139l-26 -201l-463 -141l-14 -100l460 139l-26 -201l-463 -141l-41 -295h197q136 0 231.5 80.5t138.5 228.5h307q-60 -293 -245 -453.5t-461 -160.5h-520z" />
    <glyph glyph-name="uni20BF" unicode="&#x20bf;" horiz-adv-x="1275" 
d="M215 -164l23 164h-154l201 1434h155l23 163h250l-23 -163h123h4l23 163h250l-31 -217q80 -43 123 -115t43 -165q0 -127 -77 -229t-190 -130q97 -28 157.5 -108t60.5 -184q0 -144 -83.5 -254t-222.5 -160l-28 -199h-250l22 164h-127l-22 -164h-250zM631 258
q108 0 172.5 54t64.5 149q0 67 -45 105t-133 38h-211l-49 -346h201zM682 864q102 0 164.5 50.5t62.5 138.5q0 58 -42 90.5t-119 32.5h-189l-43 -312h166z" />
    <glyph glyph-name="uni2116" unicode="&#x2116;" horiz-adv-x="2373" 
d="M84 0l201 1434h319l354 -887l125 887h310l-201 -1434h-318l-356 887l-123 -887h-311zM1927 608q-170 0 -278.5 104.5t-108.5 270.5q0 97 37.5 184.5t101.5 151.5t151.5 101.5t184.5 37.5q170 0 277.5 -104.5t107.5 -270.5q0 -97 -37.5 -185t-100.5 -151.5t-150.5 -101
t-184.5 -37.5zM1931 825q101 0 169.5 73.5t68.5 182.5q0 72 -43 116t-113 44q-101 0 -170 -74t-69 -182q0 -72 43 -116t114 -44zM1978 -16q-81 0 -139.5 58t-58.5 138q0 83 58 141t140 58t140.5 -58t58.5 -141q0 -80 -58.5 -138t-140.5 -58z" />
    <glyph glyph-name="uni2117" unicode="&#x2117;" horiz-adv-x="1093" 
d="M612 506q-198 0 -336.5 139t-138.5 338q0 198 138.5 336.5t336.5 138.5q199 0 338.5 -138.5t139.5 -336.5q0 -199 -139 -338t-339 -139zM612 631q149 0 251 101.5t102 250.5q0 148 -102 249t-251 101q-148 0 -249 -101t-101 -249q0 -149 101 -250.5t249 -101.5zM430 694
v582h229q89 0 149 -54.5t60 -140.5q0 -87 -59.5 -141.5t-149.5 -54.5h-81v-191h-148zM578 1006h67q34 0 55 18.5t21 56.5q0 37 -21 56.5t-55 19.5h-67v-151z" />
    <glyph glyph-name="trademark" unicode="&#x2122;" horiz-adv-x="2062" 
d="M387 614v607h-227v213h678v-213h-228v-607h-223zM952 614v820h383l123 -580l144 580h362v-820h-223v611l-133 -611h-299l-133 611v-611h-224z" />
    <glyph glyph-name="estimated" unicode="&#x212e;" horiz-adv-x="1761" 
d="M911 -20q-177 0 -329.5 55t-260 152t-168.5 234t-61 296q0 214 104 382.5t290.5 261.5t424.5 93q178 0 330.5 -54.5t260 -151t168.5 -233.5t61 -298v-23h-1315q-23 0 -23 -20v-359q0 -59 43 -102q91 -82 224.5 -135t250.5 -53q138 0 285 67.5t238 171.5h125
q-107 -124 -290 -204t-358 -80zM1411 735q16 0 16 19v366q0 59 -41 97q-85 85 -218.5 139.5t-256.5 54.5q-121 0 -255 -54.5t-220 -139.5q-43 -40 -43 -97v-366q0 -19 23 -19h995z" />
    <glyph glyph-name="minus" unicode="&#x2212;" 
d="M121 514l37 256h966l-37 -256h-966z" />
    <glyph glyph-name="notequal" unicode="&#x2260;" 
d="M162 813l37 256h499l115 215h297l-115 -215h170l-37 -256h-268l-182 -342h403l-37 -256h-501l-115 -215h-297l115 215h-168l37 256h266l182 342h-401z" />
    <glyph glyph-name="uniA78B" unicode="&#xa78b;" horiz-adv-x="612" 
d="M160 430l125 1004h303l-158 -1004h-270z" />
    <glyph glyph-name="uniA78C" unicode="&#xa78c;" horiz-adv-x="563" 
d="M193 840l73 635h303l-106 -635h-270z" />
    <glyph glyph-name="uniF8FF" unicode="&#xf8ff;" horiz-adv-x="2512" 
d="M334 -410v1844h1843v-1844h-1843zM526 68h140l63 186h371l61 -186h146l-306 852h-167zM768 373l145 424h5l145 -424h-295zM1593 68h121v106h-98q-62 0 -62 57v347h160v110h-160v182h-129v-141q0 -41 -43 -41h-82v-110h117v-334q0 -176 176 -176zM1909 637q65 0 105 40.5
t40 104.5t-40 104t-105 40q-66 0 -106 -39.5t-40 -104.5q0 -64 40.5 -104.5t105.5 -40.5zM1909 672q-107 0 -107 110q0 109 107 109q106 0 106 -109q0 -110 -106 -110zM1845 705h43v53h23l26 -53h45l-32 59q26 12 26 45q0 49 -53 49h-78v-153zM1888 786v43h27q22 0 22 -20
q0 -9 -6 -16t-16 -7h-27z" />
    <glyph glyph-name="uni004A0301" horiz-adv-x="1222" 
d="M537 -25q-227 0 -348.5 140.5t-90.5 369.5l8 64h310l-10 -80q-12 -89 27 -137.5t122 -48.5q89 0 145.5 52.5t69.5 149.5l92 654h-356l41 295h667l-137 -965q-31 -223 -178.5 -358.5t-361.5 -135.5zM737 1516l195 303h381l-258 -303h-318z" />
    <glyph glyph-name="i.loclTRK" horiz-adv-x="561" 
d="M59 0l144 1022h297l-142 -1022h-299zM391 1161q-72 0 -123 51.5t-51 124.5q0 72 51 123t123 51q73 0 124.5 -51t51.5 -123q0 -73 -51.5 -124.5t-124.5 -51.5z" />
    <glyph glyph-name="uni006A0301" horiz-adv-x="552" 
d="M-31 -434q-132 0 -215 47l82 231q32 -18 76 -18q62 0 94 33.5t41 99.5l150 1063h299l-152 -1081q-28 -185 -122.5 -280t-252.5 -95zM199 1147l184 328h354l-248 -328h-290z" />
    <glyph glyph-name="zero.zero" horiz-adv-x="1347" 
d="M614 -25q-252 0 -392 155t-140 435q0 258 90.5 462t252.5 317.5t366 113.5q252 0 392 -154.5t140 -431.5q0 -260 -90 -464.5t-251.5 -318.5t-367.5 -114zM623 258q110 0 200 79.5t141.5 218.5t51.5 308q0 153 -59 232.5t-173 79.5q-111 0 -201.5 -79t-142 -217.5
t-51.5 -308.5q0 -153 60.5 -233t173.5 -80zM702 555q-66 0 -113.5 47.5t-47.5 112.5q0 67 47.5 115.5t113.5 48.5q67 0 114.5 -48t47.5 -116q0 -65 -47.5 -112.5t-114.5 -47.5z" />
    <glyph glyph-name="zero.osf" horiz-adv-x="1337" 
d="M608 -25q-243 0 -392.5 150.5t-149.5 396.5q0 151 54 286.5t146.5 233t220.5 154.5t271 57q244 0 393 -148.5t149 -393.5q0 -153 -54 -289.5t-146 -234.5t-220.5 -155t-271.5 -57zM621 283q149 0 253.5 120t104.5 291q0 117 -62.5 184.5t-171.5 67.5q-148 0 -253 -120
t-105 -289q0 -117 63.5 -185.5t170.5 -68.5z" />
    <glyph glyph-name="one.osf" horiz-adv-x="804" 
d="M293 0l119 864q-53 -49 -129 -85t-191 -72l31 323q233 79 344 199h307l-172 -1229h-309z" />
    <glyph glyph-name="two.osf" horiz-adv-x="1171" 
d="M0 0l35 260l436 256q187 110 263.5 186.5t76.5 151.5q0 104 -131 104q-94 0 -158.5 -55t-93.5 -160l-301 82q63 200 215 314t354 114q207 0 323 -95.5t116 -266.5q0 -167 -94.5 -295t-292.5 -229l-183 -97h502l-37 -270h-1030z" />
    <glyph glyph-name="three.osf" horiz-adv-x="1208" 
d="M524 -229q-242 0 -377.5 118.5t-134.5 327.5l307 45q-9 -215 209 -215q110 0 181 62.5t71 158.5q0 133 -194 133h-105l37 258h92q106 0 171 55t65 144q0 57 -40.5 88t-115.5 31q-97 0 -164.5 -51.5t-93.5 -143.5l-282 88q56 180 202 281.5t353 101.5q212 0 335 -96
t123 -260q0 -138 -70.5 -233.5t-195.5 -126.5q88 -26 140.5 -103t52.5 -182q0 -215 -156.5 -348t-409.5 -133z" />
    <glyph glyph-name="four.osf" horiz-adv-x="1275" 
d="M59 432q169 171 266 363.5t130 433.5h325q-31 -226 -146.5 -458.5t-279.5 -399.5h363l63 446h312l-64 -446h184l-41 -283h-182l-41 -293h-311l41 293h-662z" />
    <glyph glyph-name="five.osf" horiz-adv-x="1179" 
d="M510 -229q-228 0 -365.5 122t-134.5 320l303 49q0 -215 201 -215q115 0 190.5 79t75.5 191q0 75 -45.5 117.5t-126.5 42.5q-65 0 -121.5 -25.5t-93.5 -66.5l-289 96l193 748h862l-41 -295h-620l-74 -303q47 41 120 64.5t156 23.5q187 0 290.5 -100t103.5 -279
q0 -252 -161 -410.5t-423 -158.5z" />
    <glyph glyph-name="six.osf" horiz-adv-x="1218" 
d="M582 -25q-242 0 -373 144t-131 409q0 198 52.5 371t144.5 295.5t220.5 193t276.5 70.5q192 0 312 -87t157 -251l-307 -94q-6 77 -50.5 116.5t-123.5 39.5q-128 0 -222 -110.5t-122 -291.5q50 72 133 111t190 39q186 0 300 -111t114 -293q0 -155 -74 -281.5t-204.5 -198
t-292.5 -71.5zM582 252q107 0 182.5 74t75.5 180q0 77 -51.5 122.5t-139.5 45.5q-109 0 -183.5 -73t-74.5 -179q0 -78 51 -124t140 -46z" />
    <glyph glyph-name="seven.osf" horiz-adv-x="1120" 
d="M229 -205q70 316 212 583t386 558h-444l-29 -193h-293l70 486h1059l-37 -291q-228 -259 -372.5 -538t-217.5 -605h-334z" />
    <glyph glyph-name="eight.osf" horiz-adv-x="1253" 
d="M567 -25q-238 0 -373 101.5t-135 279.5q0 150 88.5 255.5t233.5 136.5q-99 23 -155 95t-56 179q0 137 79 237.5t207.5 149.5t286.5 49q225 0 359.5 -97t134.5 -259q0 -133 -76 -232t-223 -131q103 -23 165 -104t62 -195q0 -139 -79.5 -246t-215 -163t-303.5 -56zM582 252
q122 0 197 60t75 149q0 67 -55 105t-152 38q-125 0 -198.5 -58t-73.5 -149q0 -67 55.5 -106t151.5 -39zM666 864q112 0 183 54t71 133q0 60 -51 95.5t-140 35.5q-114 0 -183 -52t-69 -135q0 -60 50 -95.5t139 -35.5z" />
    <glyph glyph-name="nine.osf" horiz-adv-x="1218" 
d="M666 1253q241 0 372 -143.5t131 -409.5q0 -265 -90 -477.5t-248.5 -332t-355.5 -119.5q-192 0 -312 87t-157 251l307 94q6 -77 50.5 -116.5t123.5 -39.5q128 0 222 110.5t122 291.5q-50 -72 -133 -111t-190 -39q-186 0 -300 111t-114 292q0 236 163 393.5t409 157.5z
M666 977q-107 0 -182.5 -74t-75.5 -180q0 -77 51.5 -122.5t138.5 -45.5q109 0 183.5 73t74.5 179q0 78 -50.5 124t-139.5 46z" />
    <glyph glyph-name="zero.tf" 
d="M545 -25q-226 0 -352.5 152t-126.5 422q0 263 83.5 470.5t233 323t338.5 115.5q227 0 353 -151.5t126 -421.5q0 -263 -83 -470.5t-232.5 -323.5t-339.5 -116zM555 270q99 0 179 78.5t125.5 216.5t45.5 309q0 140 -49.5 214.5t-144.5 74.5q-149 0 -250 -173t-101 -431
q0 -139 50.5 -214t144.5 -75z" />
    <glyph glyph-name="one.tf" 
d="M76 0l41 295h348l106 772q-106 -89 -362 -156l33 322q270 75 387 201h305l-160 -1139h287l-41 -295h-944z" />
    <glyph glyph-name="two.tf" 
d="M18 0l39 285l594 473q113 89 159 152.5t46 129.5q0 58 -36 90.5t-99 32.5q-187 0 -246 -215l-301 82q65 201 214.5 314.5t350.5 113.5q207 0 324 -100.5t117 -280.5q0 -152 -79.5 -279t-256.5 -261l-318 -242h564l-41 -295h-1031z" />
    <glyph glyph-name="three.tf" 
d="M553 -25q-242 0 -377.5 119t-132.5 328l307 45q-12 -215 207 -215q110 0 181 62.5t71 158.5q0 133 -195 133h-104l37 258h94q104 0 168.5 55t64.5 144q0 57 -39 88t-112 31q-100 0 -168 -50.5t-94 -144.5l-283 88q56 180 202 281.5t353 101.5q212 0 335.5 -96t123.5 -260
q0 -138 -71.5 -234t-194.5 -127q88 -26 141 -102.5t53 -181.5q0 -215 -157 -348.5t-410 -133.5z" />
    <glyph glyph-name="four.tf" 
d="M53 637q170 170 266.5 362t131.5 435h325q-32 -227 -148.5 -460t-279.5 -399h365l63 447h309l-63 -447h168l-39 -282h-168l-41 -293h-309l41 293h-664z" />
    <glyph glyph-name="five.tf" 
d="M545 -25q-228 0 -363.5 122t-132.5 321l303 49q0 -107 54.5 -161t156.5 -54q115 0 185.5 78t70.5 192q0 75 -45.5 117.5t-126.5 42.5q-65 0 -121.5 -25.5t-93.5 -66.5l-289 96l193 748h862l-41 -295h-620l-74 -303q47 41 120 64.5t156 23.5q187 0 290.5 -100t103.5 -279
q0 -252 -162.5 -411t-425.5 -159z" />
    <glyph glyph-name="six.tf" 
d="M578 -25q-244 0 -374 142t-130 405q0 187 47.5 355.5t134 298t219.5 206t293 76.5q194 0 313 -87t154 -251l-305 -94q-6 76 -51 116t-123 40q-129 0 -223.5 -111t-122.5 -291q54 72 145 111t193 39q184 0 292.5 -109t108.5 -291q0 -115 -42 -217t-115.5 -176.5t-181 -118
t-232.5 -43.5zM575 252q109 0 184 74t75 180q0 77 -51.5 122.5t-139.5 45.5q-108 0 -182 -73t-74 -179q0 -78 50.5 -124t137.5 -46z" />
    <glyph glyph-name="seven.tf" 
d="M285 0q67 310 208 578t390 561h-410l-27 -191h-292l67 486h1022l-37 -291q-228 -260 -372.5 -539.5t-217.5 -603.5h-331z" />
    <glyph glyph-name="eight.tf" 
d="M545 -25q-235 0 -369.5 101.5t-134.5 279.5q0 147 88 253.5t236 138.5q-100 23 -155.5 95.5t-55.5 178.5q0 195 157.5 315.5t409.5 120.5q223 0 355 -96.5t132 -259.5q0 -138 -80 -235t-219 -128q103 -23 164.5 -104.5t61.5 -194.5q0 -204 -165.5 -334.5t-424.5 -130.5z
M559 252q118 0 195 59t77 150q0 67 -54.5 105t-151.5 38q-123 0 -199 -57.5t-76 -149.5q0 -67 56 -106t153 -39zM641 864q110 0 182 52.5t72 134.5q0 60 -50.5 95.5t-137.5 35.5q-112 0 -182 -52t-70 -135q0 -62 49 -96.5t137 -34.5z" />
    <glyph glyph-name="nine.tf" 
d="M688 1458q244 0 374 -142t130 -405q0 -187 -47.5 -355.5t-134 -298t-219.5 -206t-293 -76.5q-194 0 -313 87t-154 251l305 95q6 -76 51 -116t123 -40q129 0 223.5 110.5t122.5 290.5q-54 -72 -144.5 -110.5t-193.5 -38.5q-184 0 -292.5 108.5t-108.5 290.5q0 115 42 217
t115.5 176.5t181 118t232.5 43.5zM690 1182q-108 0 -183 -74t-75 -180q0 -77 51.5 -122.5t139.5 -45.5q108 0 182 73t74 179q0 78 -50.5 124t-138.5 46z" />
    <glyph glyph-name="zero.osf.zero" horiz-adv-x="1337" 
d="M684 453q-66 0 -114 47t-48 112q0 67 48 115.5t114 48.5t114 -48.5t48 -115.5q0 -65 -48 -112t-114 -47zM608 -25q-243 0 -392.5 150.5t-149.5 396.5q0 151 54 286.5t146.5 233t220.5 154.5t271 57q244 0 393 -148.5t149 -393.5q0 -153 -54 -289.5t-146 -234.5
t-220.5 -155t-271.5 -57zM627 248q159 0 271 129t112 313q0 133 -73 212t-196 79q-158 0 -270.5 -129t-112.5 -311q0 -135 73 -214t196 -79z" />
    <glyph glyph-name="zero.tf.zero" 
d="M633 555q-65 0 -107.5 45.5t-42.5 114.5q0 71 43 117.5t107 46.5q66 0 108.5 -46.5t42.5 -117.5q0 -69 -42.5 -114.5t-108.5 -45.5zM545 -25q-226 0 -352.5 152t-126.5 422q0 263 83.5 470.5t233 323t338.5 115.5q227 0 353 -151.5t126 -421.5q0 -263 -83 -470.5
t-232.5 -323.5t-339.5 -116zM555 270q99 0 179 78.5t125.5 216.5t45.5 309q0 140 -49.5 214.5t-144.5 74.5q-149 0 -250 -173t-101 -431q0 -139 50.5 -214t144.5 -75z" />
    <glyph glyph-name="space.tf" horiz-adv-x="614" 
 />
    <glyph glyph-name="exclamdown.case" horiz-adv-x="610" 
d="M410 1450q81 0 139.5 -58.5t58.5 -138.5q0 -83 -58 -140.5t-140 -57.5t-140.5 57.5t-58.5 140.5q0 80 59 138.5t140 58.5zM539 967l-138 -967h-309l137 967h310z" />
    <glyph glyph-name="questiondown.case" horiz-adv-x="1040" 
d="M743 922q-15 -87 -56.5 -144t-149.5 -133l-37 -24q-152 -110 -152 -236q0 -51 37 -82t100 -31q174 0 244 197l295 -74q-57 -195 -205 -307.5t-352 -112.5q-208 0 -327.5 94t-119.5 261q0 140 67.5 247t203.5 203l35 27q104 78 110 129l4 31h312zM618 1450q81 0 140 -58.5
t59 -138.5q0 -83 -58.5 -140.5t-140.5 -57.5t-140 57.5t-58 140.5q0 80 58.5 138.5t139.5 58.5z" />
    <glyph glyph-name="periodcentered.case" horiz-adv-x="651" 
d="M358 541q-81 0 -139.5 58t-58.5 138q0 83 58 141t140 58t140.5 -58t58.5 -141q0 -80 -58.5 -138t-140.5 -58z" />
    <glyph glyph-name="bullet.case" horiz-adv-x="872" 
d="M473 453q-120 0 -206.5 85.5t-86.5 204.5q0 123 86 209t207 86q122 0 208.5 -86t86.5 -209q0 -119 -87 -204.5t-208 -85.5z" />
    <glyph glyph-name="slash.case" horiz-adv-x="774" 
d="M-92 0l702 1434h316l-705 -1434h-313z" />
    <glyph glyph-name="backslash.case" horiz-adv-x="765" 
d="M715 0h-305l-301 1434h307z" />
    <glyph glyph-name="colon.mid" horiz-adv-x="614" 
d="M281 205q-82 0 -140.5 58t-58.5 138q0 83 58.5 141t140.5 58t140 -58t58 -141q0 -80 -58.5 -138t-139.5 -58zM371 838q-82 0 -140.5 58t-58.5 138q0 83 58.5 141t140.5 58t140 -58t58 -141q0 -80 -58.5 -138t-139.5 -58z" />
    <glyph glyph-name="period.tf" horiz-adv-x="614" 
d="M250 -16q-82 0 -140.5 58t-58.5 138q0 83 58.5 141t140.5 58t140.5 -58t58.5 -141q0 -80 -58.5 -138t-140.5 -58z" />
    <glyph glyph-name="comma.tf" horiz-adv-x="614" 
d="M-29 -190q90 7 174.5 58t128.5 120q-24 -4 -36 -4q-82 0 -134.5 52.5t-52.5 135.5q0 90 58.5 148.5t148.5 58.5q92 0 145.5 -57.5t53.5 -155.5q0 -196 -140 -345t-329 -157z" />
    <glyph glyph-name="colon.tf" horiz-adv-x="614" 
d="M250 -16q-82 0 -140.5 58t-58.5 138q0 83 58.5 141t140.5 58t140.5 -58t58.5 -141q0 -80 -58.5 -138t-140.5 -58zM340 616q-81 0 -140 58.5t-59 138.5q0 83 58.5 141t140.5 58t140.5 -58t58.5 -141q0 -80 -59 -138.5t-140 -58.5z" />
    <glyph glyph-name="semicolon.tf" horiz-adv-x="614" 
d="M-29 -190q90 7 174.5 58t128.5 120q-24 -4 -36 -4q-82 0 -134.5 52.5t-52.5 135.5q0 90 58.5 148.5t148.5 58.5q92 0 145.5 -57.5t53.5 -155.5q0 -196 -140 -345t-329 -157zM340 616q-81 0 -140 58.5t-59 138.5q0 83 58.5 141t140.5 58t140.5 -58t58.5 -141
q0 -80 -59 -138.5t-140 -58.5z" />
    <glyph glyph-name="hyphen.case" horiz-adv-x="897" 
d="M133 571l41 279h647l-41 -279h-647z" />
    <glyph glyph-name="endash.case" horiz-adv-x="1191" 
d="M133 571l41 279h942l-41 -279h-942z" />
    <glyph glyph-name="emdash.case" horiz-adv-x="1837" 
d="M133 571l41 279h1585l-39 -279h-1587z" />
    <glyph glyph-name="parenleft.case" horiz-adv-x="735" 
d="M393 -281q-104 126 -161.5 324t-57.5 430q0 354 136 704t349 545l220 -163q-183 -164 -303.5 -471.5t-120.5 -608.5q0 -194 46.5 -358t129.5 -262z" />
    <glyph glyph-name="parenright.case" horiz-adv-x="735" 
d="M-84 -129q181 164 300.5 471t119.5 608q0 196 -45.5 359.5t-128.5 261.5l239 139q103 -126 160 -324t57 -428q0 -356 -136 -706t-351 -545z" />
    <glyph glyph-name="braceleft.case" horiz-adv-x="751" 
d="M573 -262q-205 0 -297.5 99.5t-66.5 291.5l41 301q12 94 -27 126t-164 32l35 254q120 0 172 38.5t66 135.5l43 301q28 191 139.5 283t316.5 92h39l-32 -230h-23q-69 0 -115.5 -43.5t-56.5 -118.5l-41 -301q-30 -220 -240 -290q90 -32 131.5 -110t24.5 -185l-43 -301
q-9 -75 18.5 -110.5t96.5 -35.5h39l-33 -229h-23z" />
    <glyph glyph-name="braceright.case" horiz-adv-x="751" 
d="M236 1692q205 0 297.5 -100t66.5 -292l-41 -301q-12 -93 27 -125t164 -32l-35 -254q-120 0 -172 -38.5t-66 -135.5l-43 -301q-28 -191 -140 -283t-317 -92h-38l32 229h23q69 0 115.5 43.5t56.5 118.5l41 301q31 222 239 291q-90 32 -131 110t-24 185l43 301
q9 75 -18.5 110t-96.5 35h-39l33 230h23z" />
    <glyph glyph-name="bracketleft.case" horiz-adv-x="649" 
d="M47 -262l275 1954h442l-35 -230h-170l-209 -1495h170l-31 -229h-442z" />
    <glyph glyph-name="bracketright.case" horiz-adv-x="649" 
d="M659 1692l-274 -1954h-442l34 229h170l209 1495h-170l31 230h442z" />
    <glyph glyph-name="guillemotleft.case" horiz-adv-x="1296" 
d="M350 266l-252 420l363 420h344l-383 -436l235 -404h-307zM883 266l-252 420l362 420h344l-383 -436l236 -404h-307z" />
    <glyph glyph-name="guillemotright.case" horiz-adv-x="1294" 
d="M993 1106l252 -420l-362 -420h-344l383 436l-236 404h307zM461 1106l252 -420l-363 -420h-344l383 436l-235 404h307z" />
    <glyph glyph-name="guilsinglleft.case" horiz-adv-x="802" 
d="M371 266l-252 420l362 420h344l-383 -436l236 -404h-307z" />
    <glyph glyph-name="guilsinglright.case" horiz-adv-x="763" 
d="M487 1106l252 -420l-362 -420h-344l383 436l-236 404h307z" />
    <glyph glyph-name="at.case" horiz-adv-x="1925" 
d="M911 -188q-376 0 -603.5 215.5t-227.5 570.5q0 214 81 404t220 326t333.5 215t413.5 79q228 0 408 -90.5t280.5 -253.5t100.5 -369q0 -170 -62 -315.5t-168 -230t-231 -84.5q-107 0 -182 52.5t-94 139.5q-41 -90 -116.5 -138t-174.5 -48q-149 0 -238.5 98t-89.5 262
q0 210 120 354t296 144t231 -150l17 121h227l-68 -487q-18 -133 70 -133q86 0 151.5 121.5t65.5 281.5q0 224 -147.5 356.5t-397.5 132.5q-171 0 -319 -59t-253 -162.5t-164.5 -250t-59.5 -316.5q0 -256 157.5 -404.5t427.5 -148.5q231 0 408 105l78 -228
q-101 -52 -229.5 -81t-260.5 -29zM950 502q94 0 159 76.5t65 189.5q0 72 -39.5 114t-106.5 42q-93 0 -157 -76.5t-64 -188.5q0 -72 38.5 -114.5t104.5 -42.5z" />
    <glyph glyph-name="bar.case" horiz-adv-x="657" 
d="M125 0l207 1475h262l-207 -1475h-262z" />
    <glyph glyph-name="uni20BF.tf" 
d="M170 -164l23 164h-154l201 1434h155l23 163h250l-23 -163h123h4l23 163h249l-30 -217q80 -43 123 -115t43 -165q0 -127 -77 -229t-190 -130q97 -28 157 -108t60 -184q0 -144 -83 -254t-222 -160l-28 -199h-250l22 164h-127l-22 -164h-250zM586 258q108 0 172.5 54
t64.5 149q0 67 -45 105t-133 38h-211l-49 -346h201zM637 864q102 0 164.5 50.5t62.5 138.5q0 58 -42.5 90.5t-119.5 32.5h-188l-43 -312h166z" />
    <glyph glyph-name="cent.tf" 
d="M401 -164l23 156q-156 40 -247 158.5t-91 287.5q0 224 136.5 391t348.5 207l21 150h246l-23 -154q134 -31 219.5 -121t102.5 -221l-277 -69q-10 73 -58.5 112t-127.5 39q-125 0 -207 -94t-82 -225q0 -92 53 -147.5t142 -55.5q84 0 153 45.5t101 122.5l258 -105
q-52 -128 -166 -215t-258 -114l-21 -148h-246z" />
    <glyph glyph-name="dollar.tf" 
d="M362 -164l23 152q-171 34 -266.5 149.5t-95.5 292.5l294 49q-6 -108 56 -168.5t180 -60.5q101 0 162 50.5t61 133.5q0 96 -129 123l-164 33q-155 30 -242 130.5t-87 242.5q0 190 122 323.5t314 163.5l20 147h250l-22 -153q281 -58 325 -354l-293 -84q-6 85 -57 131.5
t-137 46.5q-97 0 -154 -49t-57 -134q0 -93 121 -118l155 -31q169 -34 256.5 -129t87.5 -244q0 -199 -123 -332.5t-329 -162.5l-21 -148h-250z" />
    <glyph glyph-name="Euro.tf" 
d="M35 762l67 188h84q79 232 240.5 370t364.5 138q213 0 334.5 -134t127.5 -374l-276 -61q-10 141 -57.5 204.5t-141.5 63.5q-82 0 -152.5 -55t-121.5 -152h381l-68 -188h-379q-12 -65 -14 -103h420l-68 -188h-348q17 -95 67.5 -145t129.5 -50q106 0 186 76.5t129 225.5
l268 -76q-82 -257 -234.5 -392t-361.5 -135q-205 0 -333 132t-150 364h-137l67 188h70l10 103h-104z" />
    <glyph glyph-name="uni20BA.tf" 
d="M31 0l69 492l-102 -33l27 200l102 35l14 101l-100 -33l25 201l104 34l61 437h312l-47 -328l424 139l-27 -201l-426 -141l-14 -102l424 141l-25 -201l-428 -141l-41 -295h147q137 0 232.5 80t138.5 229h309q-60 -293 -245 -453.5t-461 -160.5h-473z" />
    <glyph glyph-name="uni20B1.tf" 
d="M70 1010l32 225h119l29 199h491q144 0 251 -52t161 -147h158l-33 -225h-72q-3 -65 -18 -127h74l-33 -226h-174q-161 -151 -426 -151h-199l-70 -506h-311l92 657h-121l33 226h119l18 127h-120zM469 784h182q105 0 173.5 64.5t68.5 165.5q0 69 -44.5 105t-129.5 36h-199z
" />
    <glyph glyph-name="uni20AA.tf" 
d="M743 0q-227 0 -336 121.5t-77 343.5l65 473h230l-68 -471q-34 -248 209 -248h149l170 1215h226l-201 -1434h-367zM-45 0l201 1434h368q229 0 337 -121t77 -344l-68 -473h-227l66 471q37 247 -207 247h-152l-170 -1214h-225z" />
    <glyph glyph-name="sterling.tf" 
d="M43 260q133 48 198 113.5t66 156.5h-219l31 232h125q-41 102 -41 192q0 106 43 199.5t117.5 160.5t179.5 105.5t225 38.5q205 0 332.5 -106.5t134.5 -286.5l-297 -80q-3 199 -178 199q-114 0 -177 -66.5t-63 -183.5q0 -62 31 -172h352l-33 -232h-270v-8q0 -163 -115 -254
h637l-37 -268h-1071z" />
    <glyph glyph-name="yen.tf" 
d="M375 0l22 166h-342l27 188h342l12 88h-342l27 189h317l-297 803h324l176 -572l340 572h346l-528 -803h315l-27 -189h-339l-13 -88h340l-26 -188h-340l-25 -166h-309z" />
    <glyph glyph-name="percent.tf" 
d="M41 444l29 209l1155 328l-29 -209zM428 829q-135 0 -226 90t-91 226q0 135 91 224t226 89q137 0 227 -89t90 -224q0 -136 -90 -226t-227 -90zM428 1004q59 0 96 39t37 102q0 60 -37.5 99.5t-95.5 39.5q-56 0 -93.5 -39.5t-37.5 -99.5q0 -62 37.5 -101.5t93.5 -39.5z
M838 -25q-135 0 -225.5 89.5t-90.5 224.5q0 136 90.5 225.5t225.5 89.5q137 0 227 -89.5t90 -225.5q0 -135 -90.5 -224.5t-226.5 -89.5zM838 150q58 0 95.5 39.5t37.5 99.5q0 62 -37.5 101.5t-95.5 39.5q-56 0 -93.5 -40t-37.5 -101q0 -60 37.5 -99.5t93.5 -39.5z" />
    </font>
</defs>
</svg>
