<svg width="19" height="18" viewBox="0 0 19 18" fill="none" xmlns="http://www.w3.org/2000/svg">
<path d="M9.78356 18C8.00954 18 6.27536 17.4722 4.80032 16.4832C3.32528 15.4943 2.17563 14.0887 1.49674 12.4442C0.817851 10.7996 0.640223 8.99002 0.986317 7.24419C1.33241 5.49836 2.18668 3.89471 3.4411 2.63604C4.69552 1.37737 6.29375 0.520203 8.03368 0.172936C9.77361 -0.17433 11.5771 0.00389964 13.2161 0.685088C14.8551 1.36628 16.2559 2.51983 17.2415 3.99987C18.2271 5.47991 18.7532 7.21997 18.7532 9C18.7532 11.3869 17.8081 13.6761 16.126 15.364C14.4439 17.0518 12.1624 18 9.78356 18ZM9.78356 1.2C8.24608 1.2 6.74312 1.65747 5.46475 2.51454C4.18639 3.37162 3.19002 4.58981 2.60165 6.01507C2.01328 7.44033 1.85934 9.00866 2.15928 10.5217C2.45923 12.0348 3.1996 13.4246 4.28676 14.5154C5.37393 15.6063 6.75906 16.3492 8.267 16.6501C9.77494 16.9511 11.338 16.7966 12.7584 16.2063C14.1789 15.6159 15.3929 14.6162 16.2471 13.3334C17.1013 12.0507 17.5572 10.5427 17.5572 9C17.5572 6.93131 16.7382 4.94735 15.2804 3.48457C13.8225 2.02179 11.8453 1.2 9.78356 1.2Z" fill="#8FD2EA"/>
<path d="M12.3189 12.3959L9.35897 9.42595C9.30355 9.36989 9.2597 9.3034 9.22994 9.23029C9.20019 9.15719 9.1851 9.07891 9.18556 8.99995V4.19995H10.3815V8.75395L13.1681 11.5439L12.3189 12.3959Z" fill="#8FD2EA"/>
</svg>
