<svg width="32" height="32" viewBox="0 0 32 32" fill="none" xmlns="http://www.w3.org/2000/svg">
<path d="M16 0C7.17764 0 0 7.17764 0 16C0 24.8224 7.17764 32 16 32C24.8224 32 32 24.8224 32 16C32 7.17764 24.8224 0 16 0ZM19.9791 16.5633H17.376C17.376 20.7221 17.376 25.8426 17.376 25.8426H13.5187C13.5187 25.8426 13.5187 20.7718 13.5187 16.5633H11.6852V13.2841H13.5187V11.1631C13.5187 9.64408 14.2406 7.27044 17.4114 7.27044L20.2684 7.2814V10.4645C20.2684 10.4645 18.5315 10.4645 18.1938 10.4645C17.8561 10.4645 17.3766 10.6334 17.3766 11.3578V13.2848H20.3155L19.9791 16.5633Z" fill="#8FD2EA"/>
</svg>
