<svg width="24" height="21" viewBox="0 0 24 21" fill="none" xmlns="http://www.w3.org/2000/svg">
<g clip-path="url(#clip0_1033_2673)">
<path d="M2.53999 8.4C2.53999 4.17 5.95999 0.75 10.19 0.75H13.22C17.44 0.75 20.87 4.17 20.87 8.4" stroke="#8FD2EA" stroke-width="1.5" stroke-linejoin="round"/>
<path d="M2.53 8.65002H2.52C1.54246 8.65002 0.75 9.44248 0.75 10.42V13.53C0.75 14.5076 1.54246 15.3 2.52 15.3H2.53C3.50754 15.3 4.3 14.5076 4.3 13.53V10.42C4.3 9.44248 3.50754 8.65002 2.53 8.65002Z" stroke="#8FD2EA" stroke-width="1.5" stroke-linejoin="round"/>
<path d="M20.85 8.65002H20.84C19.8625 8.65002 19.07 9.44248 19.07 10.42V13.53C19.07 14.5076 19.8625 15.3 20.84 15.3H20.85C21.8276 15.3 22.62 14.5076 22.62 13.53V10.42C22.62 9.44248 21.8276 8.65002 20.85 8.65002Z" stroke="#8FD2EA" stroke-width="1.5" stroke-linejoin="round"/>
<path d="M20.85 15.3V15.63C20.85 16.91 19.81 17.95 18.53 17.95H15.35" stroke="#8FD2EA" stroke-width="1.5" stroke-linejoin="round"/>
<path d="M14.14 19.49C14.996 19.49 15.69 18.7961 15.69 17.94C15.69 17.084 14.996 16.39 14.14 16.39C13.284 16.39 12.59 17.084 12.59 17.94C12.59 18.7961 13.284 19.49 14.14 19.49Z" stroke="#8FD2EA" stroke-width="1.5" stroke-linejoin="round"/>
<path d="M8.12 13.02C8.76617 13.02 9.29 12.4962 9.29 11.85C9.29 11.2038 8.76617 10.68 8.12 10.68C7.47382 10.68 6.95 11.2038 6.95 11.85C6.95 12.4962 7.47382 13.02 8.12 13.02Z" fill="#8FD2EA"/>
<path d="M11.7 13.02C12.3462 13.02 12.87 12.4962 12.87 11.85C12.87 11.2038 12.3462 10.68 11.7 10.68C11.0538 10.68 10.53 11.2038 10.53 11.85C10.53 12.4962 11.0538 13.02 11.7 13.02Z" fill="#8FD2EA"/>
<path d="M15.28 13.02C15.9262 13.02 16.45 12.4962 16.45 11.85C16.45 11.2038 15.9262 10.68 15.28 10.68C14.6338 10.68 14.11 11.2038 14.11 11.85C14.11 12.4962 14.6338 13.02 15.28 13.02Z" fill="#8FD2EA"/>
</g>
<defs>
<clipPath id="clip0_1033_2673">
<rect width="23.37" height="20.24" fill="white"/>
</clipPath>
</defs>
</svg>
