<svg width="32" height="32" viewBox="0 0 32 32" fill="none" xmlns="http://www.w3.org/2000/svg">
<g clip-path="url(#clip0_122_1853)">
<path d="M14.667 22.6667H17.3337V14.6667H14.667V22.6667ZM16.0003 2.66669C8.63366 2.66669 2.66699 8.63335 2.66699 16C2.66699 23.3667 8.63366 29.3334 16.0003 29.3334C23.367 29.3334 29.3337 23.3667 29.3337 16C29.3337 8.63335 23.367 2.66669 16.0003 2.66669ZM16.0003 26.6667C10.1203 26.6667 5.33366 21.88 5.33366 16C5.33366 10.12 10.1203 5.33335 16.0003 5.33335C21.8803 5.33335 26.667 10.12 26.667 16C26.667 21.88 21.8803 26.6667 16.0003 26.6667ZM14.667 12H17.3337V9.33335H14.667V12Z" fill="white"/>
</g>
<defs>
<clipPath id="clip0_122_1853">
<rect width="32" height="32" fill="white"/>
</clipPath>
</defs>
</svg>
