<svg width="18" height="17" viewBox="0 0 18 17" fill="none" xmlns="http://www.w3.org/2000/svg">
<g clip-path="url(#clip0_344_1083)">
<path d="M4.89441 15.2364L6.27329 15.9802C6.93168 16.3281 7.67702 16.5201 8.43478 16.5201H13.5404C14.0497 16.5201 14.5466 16.2921 14.8447 15.8962C15.0559 15.6083 15.1925 15.2004 15.0435 14.6605C15.0435 14.6605 16.7329 14.0366 16 12.441C16 12.441 17.5031 11.8052 16.3851 10.1735C17.0062 10.1735 17.5155 9.68167 17.5155 9.08181V8.70989C17.5155 8.11004 17.0062 7.61815 16.3851 7.61815H11.8261C11.4658 7.61815 11.2174 7.29423 11.3043 6.95831C11.8758 4.94278 11.6025 2.7353 11.354 1.4396C11.2298 0.803754 10.6087 0.383853 9.95031 0.479831C9.41615 0.551814 8.99379 0.959718 8.90683 1.4756L8.55901 3.68308C8.45963 4.33092 8.14907 4.93078 7.67702 5.41067L4.90683 8.17002" stroke="#8FD2EA" stroke-linejoin="round"/>
<path d="M3.82608 7.07837H1.51552C0.952945 7.07837 0.496887 7.51882 0.496887 8.06214V15.0925C0.496887 15.6358 0.952945 16.0763 1.51552 16.0763H3.82608C4.38866 16.0763 4.84471 15.6358 4.84471 15.0925V8.06214C4.84471 7.51882 4.38866 7.07837 3.82608 7.07837Z" stroke="#8FD2EA" stroke-linejoin="round"/>
</g>
<defs>
<clipPath id="clip0_344_1083">
<rect width="18" height="17" fill="white"/>
</clipPath>
</defs>
</svg>
