<svg width="66" height="73" viewBox="0 0 66 73" fill="none" xmlns="http://www.w3.org/2000/svg">
<g clip-path="url(#clip0_1245_780)">
<path d="M14.8171 5.00537V5.05153C14.8171 7.12877 16.19 8.95542 18.193 9.54232L20.7996 10.3073C23.5521 11.1184 25.4423 13.6374 25.4423 16.4928V21.6694C25.4423 24.8479 22.849 27.4197 19.6588 27.4197C16.4619 27.4197 13.8752 24.8413 13.8752 21.6694V11.6789" stroke="#8FD2EA" stroke-width="2" stroke-linecap="round" stroke-linejoin="round"/>
<path d="M25.0244 30.5981C29.3289 30.5981 33.1559 32.6358 35.5834 35.7879" stroke="#8FD2EA" stroke-width="2" stroke-linecap="round" stroke-linejoin="round"/>
<path d="M0.994873 49.7812V43.8001C0.994873 36.5067 6.94422 30.5981 14.2731 30.5981" stroke="#8FD2EA" stroke-width="2" stroke-linecap="round" stroke-linejoin="round"/>
<path d="M15.4802 26.6611L14.5185 29.5363C13.5502 32.4444 15.7256 35.4449 18.8097 35.4449H20.4944C23.5785 35.4449 25.754 32.4444 24.7856 29.5363L23.8836 26.8392" stroke="#8FD2EA" stroke-width="2" stroke-linecap="round" stroke-linejoin="round"/>
<path d="M25.3959 26.3777L21.3169 27.3735C20.2226 27.6438 19.0752 27.6438 17.9808 27.3735L13.9018 26.3777C9.53098 25.3094 6.74533 21.056 7.52797 16.651L9.62384 7.48474C10.2937 3.72593 13.5768 0.989258 17.4104 0.989258H21.8807C25.7209 0.989258 29.004 3.72593 29.6673 7.48474L31.7631 16.651C32.5458 21.056 29.7601 25.3094 25.3893 26.3777H25.3959Z" stroke="#8FD2EA" stroke-width="2" stroke-linecap="round" stroke-linejoin="round"/>
<path d="M9.70337 42.1382V49.7811" stroke="#8FD2EA" stroke-width="2" stroke-linecap="round" stroke-linejoin="round"/>
<path d="M55.965 13.3998V18.0093C55.965 23.2914 51.6605 27.5711 46.3478 27.5711C41.0352 27.5711 36.7307 23.2914 36.7307 18.0093V10.9203C36.7307 5.63816 41.0352 1.3584 46.3478 1.3584H55.965V3.56752C55.965 6.66689 53.438 9.17276 50.3273 9.17276H41.2209" stroke="#8FD2EA" stroke-width="2" stroke-linecap="round" stroke-linejoin="round"/>
<path d="M51.7202 30.5981C59.0558 30.5981 64.9985 36.5133 64.9985 43.8001V49.7812" stroke="#8FD2EA" stroke-width="2" stroke-linecap="round" stroke-linejoin="round"/>
<path d="M32.9966 33.2357C35.2185 31.5739 37.9776 30.5913 40.9688 30.5913" stroke="#8FD2EA" stroke-width="2" stroke-linecap="round" stroke-linejoin="round"/>
<path d="M42.1694 26.6611L41.2077 29.5363C40.2394 32.4444 42.4148 35.4449 45.4989 35.4449H47.1836C50.2677 35.4449 52.4432 32.4444 51.4748 29.5363L50.5728 26.8392" stroke="#8FD2EA" stroke-width="2" stroke-linecap="round" stroke-linejoin="round"/>
<path d="M27.9361 52.1616L27.0805 54.7334C26.2116 57.3382 28.1616 60.0221 30.9207 60.0221H32.4263C35.1854 60.0221 37.1353 57.3382 36.2665 54.7334L35.464 52.3199" stroke="#8FD2EA" stroke-width="2" stroke-linecap="round" stroke-linejoin="round"/>
<path d="M23.0479 65.4429V71.7669" stroke="#8FD2EA" stroke-width="2" stroke-linecap="round" stroke-linejoin="round"/>
<path d="M40.2922 65.4429V71.7669" stroke="#8FD2EA" stroke-width="2" stroke-linecap="round" stroke-linejoin="round"/>
<path d="M37.0159 56.1445C42.3418 56.1445 46.6595 60.4375 46.6595 65.7328V72.0107" stroke="#8FD2EA" stroke-width="2" stroke-linecap="round" stroke-linejoin="round"/>
<path d="M16.6741 72.0107V65.7328C16.6741 60.4375 20.9918 56.1445 26.3177 56.1445" stroke="#8FD2EA" stroke-width="2" stroke-linecap="round" stroke-linejoin="round"/>
<path d="M26.8682 54.7862H23.0744C21.3963 54.7862 20.1959 53.2233 20.68 51.6737L24.4009 39.8433C25.3427 36.8429 28.2079 34.792 31.4578 34.792C33.3149 34.792 35.046 35.4646 36.3659 36.5989C37.4868 37.5616 38.6674 38.4651 39.9939 39.1443L42.7596 40.5621" stroke="#8FD2EA" stroke-width="2" stroke-linecap="round" stroke-linejoin="round"/>
<path d="M40.3787 45.165L42.6271 51.6012C43.171 53.164 41.9705 54.7863 40.2593 54.7863H36.2732" stroke="#8FD2EA" stroke-width="2" stroke-linecap="round" stroke-linejoin="round"/>
<path d="M36.5583 40.3247L36.1272 48.4358C36.0012 50.8494 33.9916 52.742 31.5574 52.742C29.1233 52.742 27.1203 50.8494 26.9876 48.4358L26.7754 44.4792" stroke="#8FD2EA" stroke-width="2" stroke-linecap="round" stroke-linejoin="round"/>
<path d="M56.1309 42.1382V49.7811" stroke="#8FD2EA" stroke-width="2" stroke-linecap="round" stroke-linejoin="round"/>
</g>
<defs>
<clipPath id="clip0_1245_780">
<rect width="66" height="73" fill="white"/>
</clipPath>
</defs>
</svg>
