<svg width="36" height="74" viewBox="0 0 36 74" fill="none" xmlns="http://www.w3.org/2000/svg">
<g clip-path="url(#clip0_1245_826)">
<path d="M18 1.2832V69.3895" stroke="#8FD2EA" stroke-width="2" stroke-linecap="round" stroke-linejoin="round"/>
<path d="M6.41094 30.5972C6.73403 30.9223 7.06564 31.2302 7.40574 31.5296C13.6466 36.9357 21.282 29.2628 15.8998 22.9843C15.6107 22.6421 15.2962 22.3085 14.9731 21.9834C11.1299 18.1171 6.04532 16.3977 1.36039 16.9024C0.858739 21.6156 2.56776 26.7394 6.41094 30.5972Z" stroke="#8FD2EA" stroke-width="2" stroke-linecap="round" stroke-linejoin="round"/>
<path d="M29.5974 30.5972C29.2743 30.9223 28.9427 31.2302 28.6026 31.5296C22.3617 36.9357 14.7264 29.2628 20.1085 22.9843C20.3976 22.6421 20.7122 22.3085 21.0353 21.9834C24.8785 18.1171 29.963 16.3977 34.6479 16.9024C35.1496 21.6156 33.4406 26.7394 29.5974 30.5972Z" stroke="#8FD2EA" stroke-width="2" stroke-linecap="round" stroke-linejoin="round"/>
<path d="M6.41094 50.2716C6.73403 50.5966 7.06564 50.9046 7.40574 51.2039C13.6466 56.61 21.282 48.9372 15.8998 42.6586C15.6107 42.3164 15.2962 41.9828 14.9731 41.6578C11.1299 37.7914 6.04532 36.072 1.36039 36.5767C0.858739 41.2899 2.56776 46.4137 6.41094 50.2716Z" stroke="#8FD2EA" stroke-width="2" stroke-linecap="round" stroke-linejoin="round"/>
<path d="M29.5974 50.2716C29.2743 50.5966 28.9427 50.9046 28.6026 51.2039C22.3617 56.61 14.7264 48.9372 20.1085 42.6586C20.3976 42.3164 20.7122 41.9828 21.0353 41.6578C24.8785 37.7914 29.963 36.072 34.6479 36.5767C35.1496 41.2899 33.4406 46.4137 29.5974 50.2716Z" stroke="#8FD2EA" stroke-width="2" stroke-linecap="round" stroke-linejoin="round"/>
<path d="M6.41094 69.9454C6.73403 70.2704 7.06564 70.5784 7.40574 70.8778C13.6466 76.2838 21.282 68.611 15.8998 62.3324C15.6107 61.9902 15.2962 61.6566 14.9731 61.3316C11.1299 57.4652 6.04532 55.7459 1.36039 56.2506C0.858739 60.9638 2.56776 66.0876 6.41094 69.9454Z" stroke="#8FD2EA" stroke-width="2" stroke-linecap="round" stroke-linejoin="round"/>
<path d="M29.5974 69.9454C29.2743 70.2704 28.9427 70.5784 28.6026 70.8778C22.3617 76.2838 14.7264 68.611 20.1085 62.3324C20.3976 61.9902 20.7122 61.6566 21.0353 61.3316C24.8785 57.4652 29.963 55.7459 34.6479 56.2506C35.1496 60.9638 33.4406 66.0876 29.5974 69.9454Z" stroke="#8FD2EA" stroke-width="2" stroke-linecap="round" stroke-linejoin="round"/>
<path d="M7.79688 4.96973V12.6169" stroke="#8FD2EA" stroke-width="2" stroke-linecap="round" stroke-linejoin="round"/>
<path d="M28.2031 4.96973V12.6169" stroke="#8FD2EA" stroke-width="2" stroke-linecap="round" stroke-linejoin="round"/>
</g>
<defs>
<clipPath id="clip0_1245_826">
<rect width="36" height="74" fill="white"/>
</clipPath>
</defs>
</svg>
