<svg width="84" height="60" viewBox="0 0 84 60" fill="none" xmlns="http://www.w3.org/2000/svg">
<g clip-path="url(#clip0_1245_842)">
<path d="M78.3278 47.81C78.3278 45.1385 80.3034 42.9385 82.8701 42.5793V19.0223C78.9414 18.708 75.8433 15.4229 75.8433 11.4119C75.8433 11.1725 75.8583 10.9405 75.8807 10.7085H36.3839C35.0369 10.7085 33.9443 11.801 33.9443 13.148V36.5104C34.5355 36.3608 35.1566 36.271 35.7927 36.271C39.9459 36.271 43.3134 39.6384 43.3134 43.7916C43.3134 47.9447 39.9459 51.3121 35.7927 51.3121C35.1566 51.3121 34.5355 51.2223 33.9443 51.0727V56.4531C33.9443 57.8 35.0369 58.8926 36.3839 58.8926H80.4306C81.7776 58.8926 82.8701 57.8 82.8701 56.4531V53.0482C80.3034 52.689 78.3278 50.489 78.3278 47.8175V47.81Z" stroke="#8FD2EA" stroke-width="2" stroke-linecap="round" stroke-linejoin="round"/>
<path d="M45.0269 27.1489C47.858 27.1489 50.153 24.8539 50.153 22.0229C50.153 19.1919 47.858 16.897 45.0269 16.897C42.1959 16.897 39.9009 19.1919 39.9009 22.0229C39.9009 24.8539 42.1959 27.1489 45.0269 27.1489Z" stroke="#8FD2EA" stroke-width="2" stroke-linecap="round" stroke-linejoin="round"/>
<path d="M70.6124 36.1811C74.1791 36.1811 77.0705 33.2897 77.0705 29.7231C77.0705 26.1565 74.1791 23.2651 70.6124 23.2651C67.0457 23.2651 64.1543 26.1565 64.1543 29.7231C64.1543 33.2897 67.0457 36.1811 70.6124 36.1811Z" stroke="#8FD2EA" stroke-width="2" stroke-linecap="round" stroke-linejoin="round"/>
<path d="M55.384 52.8986C57.748 52.8986 59.6644 50.9822 59.6644 48.6183C59.6644 46.2543 57.748 44.3379 55.384 44.3379C53.0199 44.3379 51.1035 46.2543 51.1035 48.6183C51.1035 50.9822 53.0199 52.8986 55.384 52.8986Z" stroke="#8FD2EA" stroke-width="2" stroke-linecap="round" stroke-linejoin="round"/>
<path d="M13.5148 12.5493H8.50849C7.96221 12.5493 7.43838 12.7888 7.08666 13.2153C6.01655 14.5249 3.88381 17.6005 4.09334 21.0876C4.32532 24.9938 6.36078 31.9157 3.3525 36.9968C1.96809 39.3316 1.11499 41.9357 1.11499 44.6446V53.7516C1.11499 56.5802 3.41236 58.8776 6.24105 58.8776H14.3978" stroke="#8FD2EA" stroke-width="2" stroke-linecap="round" stroke-linejoin="round"/>
<path d="M13.2304 12.5493H18.2368C18.783 12.5493 19.3069 12.7888 19.6586 13.2153C20.7287 14.5249 22.8614 17.6005 22.6519 21.0876C22.4199 24.9938 20.3845 31.9157 23.3928 36.9968C24.7772 39.3316 25.6303 41.9357 25.6303 44.6446V53.7516C25.6303 56.5802 23.3329 58.8776 20.5042 58.8776H12.3474" stroke="#8FD2EA" stroke-width="2" stroke-linecap="round" stroke-linejoin="round"/>
<path d="M17.9673 1.12256H8.7703C7.81147 1.12256 7.03418 1.89983 7.03418 2.85865V7.54311C7.03418 8.50193 7.81147 9.27921 8.7703 9.27921H17.9673C18.9261 9.27921 19.7034 8.50193 19.7034 7.54311V2.85865C19.7034 1.89983 18.9261 1.12256 17.9673 1.12256Z" stroke="#8FD2EA" stroke-width="2" stroke-linecap="round" stroke-linejoin="round"/>
<path d="M1.12244 47.8101H12.1528C13.7168 47.8101 14.989 46.538 14.989 44.974V25.196C14.989 23.632 13.7168 22.3599 12.1528 22.3599H9.81054" stroke="#8FD2EA" stroke-width="2" stroke-linecap="round" stroke-linejoin="round"/>
</g>
<defs>
<clipPath id="clip0_1245_842">
<rect width="84" height="60" fill="white"/>
</clipPath>
</defs>
</svg>
