<svg width="24" height="24" viewBox="0 0 24 24" fill="none" xmlns="http://www.w3.org/2000/svg">
<path d="M12.9915 20.912L16.4915 22.75C16.8437 22.9342 17.2403 23.0163 17.6366 22.987C18.033 22.9577 18.4132 22.8182 18.7344 22.5841C19.0556 22.3501 19.3049 22.0309 19.4543 21.6626C19.6036 21.2943 19.647 20.8916 19.5795 20.5L18.9125 16.607C18.8538 16.2663 18.879 15.9165 18.9858 15.5877C19.0926 15.2589 19.2778 14.9611 19.5255 14.72L22.3535 11.963C22.6383 11.6854 22.8398 11.3338 22.9351 10.9477C23.0304 10.5616 23.0158 10.1566 22.8929 9.77838C22.7701 9.40018 22.5438 9.06391 22.2398 8.80759C21.9357 8.55128 21.5661 8.38515 21.1725 8.32799L17.2635 7.75999C16.9224 7.70943 16.5987 7.57694 16.3201 7.37386C16.0414 7.17079 15.8161 6.90319 15.6635 6.59399L13.9105 3.05599C13.7346 2.69939 13.4623 2.39914 13.1246 2.18919C12.7869 1.97925 12.3972 1.86798 11.9995 1.86798C11.6019 1.86798 11.2122 1.97925 10.8744 2.18919C10.5367 2.39914 10.2645 2.69939 10.0885 3.05599L8.34053 6.59999C8.18794 6.90919 7.96266 7.17679 7.684 7.37986C7.40534 7.58294 7.0816 7.71543 6.74053 7.76599L2.83153 8.33399C2.438 8.39114 2.06831 8.55728 1.76428 8.81359C1.46024 9.06991 1.234 9.40618 1.11112 9.78438C0.988245 10.1626 0.973644 10.5676 1.06897 10.9537C1.16429 11.3398 1.36574 11.6914 1.65053 11.969L4.47853 14.726C4.72622 14.9671 4.91148 15.2649 5.01828 15.5937C5.12508 15.9225 5.15022 16.2723 5.09153 16.613L4.41953 20.5C4.35151 20.8922 4.39469 21.2956 4.54418 21.6645C4.69366 22.0334 4.94348 22.353 5.26532 22.5872C5.58717 22.8214 5.96817 22.9608 6.36517 22.9896C6.76216 23.0183 7.15928 22.9353 7.51153 22.75L11.0115 20.912C11.317 20.7521 11.6567 20.6686 12.0015 20.6686C12.3463 20.6686 12.686 20.7521 12.9915 20.912Z" fill="url(#paint0_linear_70_1046)"/>
<defs>
<linearGradient id="paint0_linear_70_1046" x1="11.9995" y1="1.75499" x2="11.9995" y2="23.076" gradientUnits="userSpaceOnUse">
<stop stop-color="#FFF650"/>
<stop offset="1" stop-color="#FFAB17"/>
</linearGradient>
</defs>
</svg>
