<svg width="18" height="17" viewBox="0 0 18 17" fill="none" xmlns="http://www.w3.org/2000/svg">
<g clip-path="url(#clip0_1258_1191)">
<path d="M4.89453 15.2364L6.27341 15.9802C6.9318 16.3281 7.67714 16.5201 8.4349 16.5201H13.5405C14.0498 16.5201 14.5467 16.2921 14.8448 15.8962C15.056 15.6083 15.1927 15.2004 15.0436 14.6605C15.0436 14.6605 16.733 14.0366 16.0001 12.441C16.0001 12.441 17.5032 11.8052 16.3852 10.1735C17.0063 10.1735 17.5156 9.68167 17.5156 9.08181V8.70989C17.5156 8.11004 17.0063 7.61815 16.3852 7.61815H11.8262C11.466 7.61815 11.2175 7.29423 11.3045 6.95831C11.8759 4.94278 11.6026 2.7353 11.3542 1.4396C11.2299 0.803754 10.6088 0.383853 9.95043 0.479831C9.41627 0.551814 8.99391 0.959718 8.90695 1.4756L8.55913 3.68308C8.45975 4.33092 8.14919 4.93078 7.67714 5.41067L4.90695 8.17002" stroke="#8FD2EA" stroke-linejoin="round"/>
<path d="M3.82626 7.07837H1.5157C0.953128 7.07837 0.49707 7.51882 0.49707 8.06214V15.0925C0.49707 15.6358 0.953128 16.0763 1.5157 16.0763H3.82626C4.38884 16.0763 4.8449 15.6358 4.8449 15.0925V8.06214C4.8449 7.51882 4.38884 7.07837 3.82626 7.07837Z" stroke="#8FD2EA" stroke-linejoin="round"/>
</g>
<defs>
<clipPath id="clip0_1258_1191">
<rect width="18" height="17" fill="white"/>
</clipPath>
</defs>
</svg>
